<svg width="77" height="77" viewBox="0 0 77 77" fill="none" xmlns="http://www.w3.org/2000/svg">
<path fill-rule="evenodd" clip-rule="evenodd" d="M38.5 77C59.763 77 77 59.763 77 38.5C77 17.237 59.763 0 38.5 0C17.237 0 0 17.237 0 38.5C0 59.763 17.237 77 38.5 77Z" fill="#FFCA13"/>
<path d="M52.5855 37.5872L34.4694 24.4181C33.8045 23.9362 32.9219 23.8636 32.1932 24.2381C31.4587 24.6098 31 25.3646 31 26.1804V52.5098C31 53.3343 31.4587 54.0862 32.1932 54.4578C32.5039 54.6146 32.8435 54.693 33.1861 54.693C33.6332 54.693 34.0861 54.5507 34.4694 54.2691L52.5855 41.1117C53.1574 40.6907 53.4913 40.0404 53.4913 39.3494C53.4942 38.6468 53.1516 37.9994 52.5855 37.5872Z" fill="white"/>
</svg>
