<?xml version="1.0" encoding="UTF-8"?>
<svg width="67px" height="14px" viewBox="0 0 67 14" version="1.1" xmlns="http://www.w3.org/2000/svg" xmlns:xlink="http://www.w3.org/1999/xlink">
    <!-- Generator: Sketch 52.4 (67378) - http://www.bohemiancoding.com/sketch -->
    <title>Bitcoin</title>
    <desc>Created with Sketch.</desc>
    <g id="Symbols" stroke="none" stroke-width="1" fill="none" fill-rule="evenodd">
        <g id="Footer/Main" transform="translate(-176.000000, -79.000000)" fill="#c0c4cb" fill-rule="nonzero">
            <g id="logo" transform="translate(176.000000, 70.000000)">
                <g id="Bitcoin" transform="translate(0.000000, 9.000000)">
                    <path d="M13.7916283,8.560524 C12.8710745,12.2528625 9.13135138,14.4999702 5.43858215,13.5792009 C1.74732062,12.6586471 -0.499787077,8.91870862 0.421197538,5.22658554 C1.34132062,1.53381631 5.08104369,-0.713506769 8.772736,0.207047077 C12.4652898,1.12760092 14.7121822,4.86797015 13.7916283,8.560524 Z M10.1451668,5.91129323 C10.2823668,4.99418554 9.58408985,4.50117015 8.62928985,4.17227785 L8.93901292,2.92993938 L8.18279754,2.74147785 L7.88125908,3.95107785 C7.68245908,3.90153938 7.47827446,3.85480092 7.27538215,3.80849323 L7.57907446,2.590924 L6.82328985,2.40246246 L6.51335138,3.64437015 C6.34879754,3.60689323 6.18725908,3.56984708 6.03045908,3.53086246 L6.03132062,3.52698554 L4.98842831,3.26658554 L4.78725908,4.07427785 C4.78725908,4.07427785 5.348336,4.20286246 5.33648985,4.21083169 C5.64276677,4.28729323 5.69812062,4.48997015 5.68885908,4.65064708 L5.33605908,6.06593938 C5.35716677,6.071324 5.38452062,6.07907785 5.41467446,6.09113938 C5.38947446,6.08489323 5.36255138,6.07800092 5.33476677,6.071324 L4.84024369,8.05393938 C4.80276677,8.14698554 4.70778215,8.28655477 4.49368985,8.23357015 C4.50122831,8.24455477 3.94402831,8.09637015 3.94402831,8.09637015 L3.56861292,8.96200092 L4.55270523,9.207324 C4.73578215,9.25320092 4.91519754,9.30123169 5.09181292,9.34646246 L4.77885908,10.6030163 L5.53421292,10.7914778 L5.84415138,9.54827785 C6.05048985,9.60427785 6.25079754,9.65597015 6.44679754,9.70464708 L6.137936,10.9420317 L6.89415138,11.1304932 L7.20710523,9.87630862 C8.49661292,10.1203394 9.46627446,10.0219086 9.87442831,8.85560092 C10.2033206,7.916524 9.85805908,7.37483169 9.17959754,7.02160092 C9.67368985,6.90766246 10.0458745,6.58264708 10.1451668,5.91129323 Z M8.41735138,8.33415477 C8.18365908,9.27323169 6.60252062,8.76557015 6.08990523,8.63827785 L6.50516677,6.97357015 C7.01778215,7.10150862 8.66159754,7.35480092 8.41735138,8.33415477 Z M8.65125908,5.897724 C8.43802831,6.75193938 7.12202831,6.31793938 6.695136,6.21153938 L7.07162831,4.70169323 C7.49852062,4.80809323 8.87332062,5.00667785 8.65125908,5.897724 Z" id="Combined-Shape"></path>
                    <path d="M20.4125514,4.17098554 C20.9714745,4.17098554 21.4543668,4.27113938 21.8601514,4.46778554 C22.2678745,4.66637015 22.6043052,4.93387785 22.8741822,5.27030862 C23.1403975,5.60846246 23.3385514,6.00369323 23.4664898,6.45664708 C23.5935668,6.91089323 23.6573206,7.39917015 23.6573206,7.92190862 C23.6573206,8.72486246 23.5102129,9.48344708 23.2131975,10.198524 C22.9161822,10.9146778 22.5131975,11.5358471 22.0005822,12.0656932 C21.4883975,12.5948932 20.8835975,13.0120932 20.1861822,13.3203086 C19.4898437,13.6287394 18.7327668,13.7829548 17.9199052,13.7829548 C17.8147975,13.7829548 17.6299975,13.7799394 17.3689514,13.7745548 C17.1079052,13.7691702 16.8078745,13.7422471 16.4718745,13.6968009 C16.1337206,13.6496317 15.7761822,13.5798471 15.3986129,13.4863702 C15.0212591,13.3946163 14.6628591,13.2660317 14.3253514,13.1027702 L17.3433206,0.421785538 L20.0463975,0.00286246154 L18.9658129,4.50289323 C19.197136,4.39864708 19.4301822,4.31787785 19.6627975,4.25907785 C19.8956283,4.20113938 20.1454745,4.17098554 20.4125514,4.17098554 Z M18.1451975,11.6385855 C18.5522745,11.6385855 18.9358745,11.5384317 19.2962129,11.3417855 C19.6576283,11.144924 19.9695052,10.8791394 20.2307668,10.5480932 C20.4920283,10.2155394 20.6987975,9.84098554 20.8495668,9.42249323 C21.000336,9.00400092 21.0765822,8.56741631 21.0765822,8.11317015 C21.0765822,7.55510862 20.9833206,7.11981631 20.7974437,6.80513938 C20.6115668,6.49175477 20.2675975,6.33409323 19.7681206,6.33409323 C19.6044283,6.33409323 19.3935668,6.365324 19.1320898,6.42110862 C18.8697514,6.48033938 18.6349822,6.603324 18.4245514,6.78833938 L17.2739668,11.5672932 C17.3433206,11.5795702 17.4047052,11.5912009 17.4570437,11.6021855 C17.5083052,11.6140317 17.5649514,11.6224317 17.6213822,11.6282471 C17.6810437,11.634924 17.7493206,11.6383702 17.8318129,11.6383702 C17.9143052,11.6383702 18.0174745,11.6385855 18.1451975,11.6385855 Z" id="Shape"></path>
                    <path d="M26.4605514,13.5402163 L23.878736,13.5402163 L26.0590745,4.36547785 L28.6585514,4.36547785 L26.4605514,13.5402163 Z M27.7168898,3.24763169 C27.3565514,3.24763169 27.0298129,3.14037015 26.7399052,2.92541631 C26.4476283,2.71175477 26.3028898,2.38286246 26.3028898,1.93960092 C26.3028898,1.69578554 26.3524283,1.46704708 26.4506437,1.25123169 C26.5503668,1.03584708 26.6806745,0.850400923 26.843936,0.692739385 C27.0069822,0.536370154 27.1958745,0.411447077 27.4103975,0.317324 C27.6262129,0.224708615 27.8558129,0.178400923 28.1004898,0.178400923 C28.4606129,0.178400923 28.7856283,0.285662462 29.0766129,0.500616308 C29.3665206,0.716647077 29.512336,1.04553938 29.512336,1.48643169 C29.512336,1.73110862 29.4630129,1.96070862 29.363936,2.17609323 C29.2655052,2.39147785 29.1351975,2.576924 28.971936,2.73458554 C28.8101822,2.89117015 28.6195668,3.01566246 28.4054745,3.108924 C28.1894437,3.20304708 27.9607052,3.24763169 27.7168898,3.24763169 Z" id="Shape"></path>
                    <path d="M30.9211668,2.07960092 L33.6253206,1.66067785 L32.9612898,4.36504708 L35.8573514,4.36504708 L35.3343975,6.49261631 L32.4557822,6.49261631 L31.6890129,9.70184708 C31.6183668,9.96935477 31.5783052,10.2192009 31.5671052,10.4513855 C31.5543975,10.6846471 31.5839052,10.8849548 31.6536898,11.0536009 C31.7230437,11.2226778 31.8477514,11.3529855 32.0286745,11.4451702 C32.208736,11.5388625 32.4665514,11.5860317 32.8047052,11.5860317 C33.0831975,11.5860317 33.3545822,11.5595394 33.6169206,11.5069855 C33.8777514,11.4552932 34.1420283,11.3833548 34.409536,11.2892317 L34.6020898,13.278524 C34.2531668,13.4064625 33.8753822,13.516524 33.4683052,13.6091394 C33.0605822,13.7030471 32.5779052,13.7482778 32.0200591,13.7482778 C31.2179668,13.7482778 30.5961514,13.6291702 30.1531052,13.3920317 C29.7107052,13.1531702 29.3979668,12.8268625 29.2107975,12.4137548 C29.0262129,12.0021548 28.9437206,11.5276625 28.9667668,10.9930778 C28.9906745,10.4572009 29.0714437,9.89397015 29.2107975,9.30080092 L30.9211668,2.07960092 Z" id="Shape"></path>
                    <path d="M35.7436283,9.876524 C35.7436283,9.08627785 35.8715668,8.34104708 36.1272283,7.64341631 C36.3824591,6.94513938 36.7501206,6.334524 37.2271975,5.81049323 C37.7025514,5.28904708 38.2817206,4.87593938 38.9634129,4.57267785 C39.6418745,4.27113938 40.401536,4.11907785 41.238736,4.11907785 C41.7627668,4.11907785 42.2307975,4.16861631 42.6426129,4.26790862 C43.0561514,4.36806246 43.4302745,4.49750862 43.7686437,4.65990862 L42.8782437,6.684524 C42.6456283,6.59018554 42.4041822,6.50704708 42.1545514,6.43166246 C41.9047052,6.35477015 41.5997206,6.317724 41.2389514,6.317724 C40.3771975,6.317724 39.695936,6.61473938 39.1889206,7.20683169 C38.6838437,7.79935477 38.4294745,8.596924 38.4294745,9.59738554 C38.4294745,10.1903394 38.5574129,10.6697855 38.8141514,11.0365855 C39.0695975,11.4033855 39.5415052,11.5858163 40.2266437,11.5858163 C40.5647975,11.5858163 40.8911052,11.5504932 41.2036283,11.4815702 C41.5185206,11.4117855 41.7965822,11.3239086 42.0414745,11.2200932 L42.2342437,13.2955394 C41.9077206,13.4221855 41.5475975,13.5365548 41.1525822,13.6367086 C40.7567052,13.7334163 40.2854437,13.7836009 39.7390129,13.7836009 C39.0176898,13.7836009 38.4070745,13.6780625 37.9075975,13.4702163 C37.4079052,13.2591394 36.9950129,12.978924 36.6697822,12.6239702 C36.3428283,12.2681548 36.1080591,11.8526778 35.9628898,11.3758163 C35.8177206,10.8993855 35.7436283,10.3988317 35.7436283,9.876524 Z" id="Shape"></path>
                    <path d="M47.2128591,13.7836009 C46.5966437,13.7836009 46.0614129,13.6896932 45.6073822,13.5038163 C45.1546437,13.3179394 44.7796591,13.0571086 44.4830745,12.7189548 C44.1860591,12.382524 43.9637822,11.9838471 43.8115052,11.5244317 C43.6592283,11.0652317 43.5859975,10.5567086 43.5859975,9.99950862 C43.5859975,9.30058554 43.6982129,8.60187785 43.9250129,7.90510862 C44.150736,7.20683169 44.4856591,6.57941631 44.9289206,6.02178554 C45.368736,5.46329323 45.9112898,5.00667785 46.5501206,4.65064708 C47.1883052,4.29698554 47.922336,4.11907785 48.7468283,4.11907785 C49.3518437,4.11907785 49.8842745,4.21320092 50.3445514,4.39907785 C50.8026745,4.584524 51.1800283,4.84750862 51.478336,5.18393938 C51.7734129,5.52209323 51.9976283,5.91904708 52.1483975,6.37910862 C52.3002437,6.83744708 52.3751975,7.34726246 52.3751975,7.90489323 C52.3751975,8.60166246 52.2644898,9.30037015 52.0447975,9.99929323 C51.8248898,10.6947702 51.4985822,11.3236932 51.0678129,11.8826163 C50.6379052,12.4402471 50.1003052,12.8966471 49.4545822,13.2511702 C48.8097206,13.6056932 48.0619052,13.7836009 47.2128591,13.7836009 Z M48.5032283,6.31793938 C48.1204898,6.31793938 47.7821206,6.42907785 47.4924283,6.64855477 C47.2016591,6.87061631 46.9574129,7.14975477 46.7605514,7.48640092 C46.561536,7.82455477 46.4139975,8.19329323 46.3142745,8.594124 C46.2154129,8.99581631 46.1669514,9.37553938 46.1669514,9.73630862 C46.1669514,10.3184932 46.2608591,10.7718778 46.4454437,11.0981855 C46.6326129,11.4227702 46.9688283,11.5860317 47.457536,11.5860317 C47.8415668,11.5860317 48.1782129,11.4757548 48.4696283,11.2539086 C48.7586745,11.0335702 49.003136,10.7542163 49.2015052,10.416924 C49.3992283,10.0804932 49.5480591,9.71067785 49.6477822,9.30920092 C49.7453514,8.90880092 49.7951052,8.526924 49.7951052,8.16680092 C49.7951052,7.586124 49.7016283,7.13166246 49.5153206,6.80578554 C49.3292283,6.48120092 48.9915052,6.31793938 48.5032283,6.31793938 Z" id="Shape"></path>
                    <path d="M55.1885514,13.5402163 L52.6045822,13.5402163 L54.7849206,4.36547785 L57.3856898,4.36547785 L55.1885514,13.5402163 Z M56.4429514,3.24763169 C56.0828283,3.24763169 55.7563052,3.14037015 55.4668283,2.92541631 C55.1760591,2.71175477 55.0300283,2.38286246 55.0300283,1.93960092 C55.0300283,1.69578554 55.0802129,1.46704708 55.1786437,1.25123169 C55.2770745,1.03584708 55.4082437,0.850400923 55.5715052,0.692739385 C55.7336898,0.536370154 55.9243052,0.411447077 56.1383975,0.317324 C56.3529206,0.224708615 56.5825206,0.178400923 56.826336,0.178400923 C57.1873206,0.178400923 57.5134129,0.285662462 57.8037514,0.500616308 C58.0943052,0.716647077 58.2409822,1.04553938 58.2409822,1.48643169 C58.2409822,1.73110862 58.1888591,1.96070862 58.0912898,2.17609323 C57.9937206,2.39147785 57.8625514,2.576924 57.699936,2.73458554 C57.5362437,2.89117015 57.3479975,3.01566246 57.1334745,3.108924 C56.9172283,3.20304708 56.6880591,3.24763169 56.4429514,3.24763169 Z" id="Shape"></path>
                    <path d="M59.2463975,4.78267785 C59.4423975,4.72538554 59.6612283,4.65646246 59.8992283,4.58150862 C60.1380898,4.50655477 60.4049514,4.43677015 60.7030437,4.37387785 C60.9979052,4.30904708 61.3306745,4.25649323 61.6966129,4.21578554 C62.0625514,4.17421631 62.479536,4.15397015 62.9428283,4.15397015 C64.3044898,4.15397015 65.243136,4.55049323 65.7613514,5.34117015 C66.279136,6.13184708 66.368736,7.21393938 66.032736,8.58550862 L64.8451052,13.5393548 L62.2462745,13.5393548 L63.3972898,8.68975477 C63.4675052,8.386924 63.5226437,8.09421631 63.5633514,7.80818554 C63.6044898,7.52473938 63.6021206,7.27489323 63.5540898,7.05864708 C63.5082129,6.84498554 63.4000898,6.67009323 63.2323052,6.53461631 C63.061936,6.40129323 62.8045514,6.33430862 62.4554129,6.33430862 C62.1187668,6.33430862 61.7763052,6.37049323 61.426736,6.44027785 L59.7344591,13.5391394 L57.1345514,13.5391394 L59.2463975,4.78267785 Z" id="Shape"></path>
                </g>
            </g>
        </g>
    </g>
</svg>