<?xml version="1.0" encoding="UTF-8"?>
<svg width="46px" height="12px" viewBox="0 0 46 12" version="1.1" xmlns="http://www.w3.org/2000/svg" xmlns:xlink="http://www.w3.org/1999/xlink">
    <!-- Generator: Sketch 52.4 (67378) - http://www.bohemiancoding.com/sketch -->
    <title>Dash</title>
    <desc>Created with Sketch.</desc>
    <g id="Symbols" stroke="none" stroke-width="1" fill="none" fill-rule="evenodd">
        <g id="Footer/Main" transform="translate(-1219.000000, -80.000000)" fill="#c0c4cb" fill-rule="nonzero">
            <g id="logo" transform="translate(176.000000, 70.000000)">
                <g id="Dash" transform="translate(1043.000000, 10.000000)">
                    <path d="M9.65383784,0.00356756757 L4.28854054,0.00356756757 L3.84389189,2.48886486 L8.68540541,2.4947027 C11.0698378,2.4947027 11.7749189,3.36032432 11.7548108,4.79740541 C11.7444324,5.53362162 11.4252973,6.77805405 11.2874595,7.18151351 C10.92,8.25697297 10.1652973,9.48421622 7.33524324,9.47935135 L2.62897297,9.47740541 L2.18335135,11.9636757 L7.53664865,11.9636757 C9.42486486,11.9636757 10.2285405,11.7441081 11.0782703,11.351027 C12.9635676,10.4805405 14.0854054,8.61989189 14.5345946,6.19167568 C15.204,2.57578378 14.3704865,0.00356756757 9.65383784,0.00356756757 Z" id="Shape"></path>
                    <path d="M26.2469189,11.9695135 L26.6250811,9.80854054 L31.2084324,9.80854054 C31.5684324,9.80854054 31.8207568,9.59221622 31.8745946,9.23221622 C31.9465946,8.87189189 31.7665946,8.65589189 31.4065946,8.65589189 L29.2151351,8.65589189 C27.4861622,8.65589189 26.6578378,7.64756757 26.964,5.91859459 C27.2701622,4.18962162 28.4588108,3.18162162 30.1874595,3.18162162 L35.1668108,3.18162162 L34.7708108,5.34259459 L30.3823784,5.34259459 C30.0220541,5.34259459 29.7700541,5.55859459 29.7158919,5.91859459 C29.6438919,6.27891892 29.8238919,6.49491892 30.1842162,6.49491892 L32.3756757,6.49491892 C34.1043243,6.49491892 34.9326486,7.50356757 34.6268108,9.23221622 C34.320973,10.9608649 33.1498378,11.9695135 31.4211892,11.9695135 L26.2469189,11.9695135 Z" id="Shape"></path>
                    <path d="M19.2668108,11.9691892 C16.4211892,11.9691892 15.1423784,10.4202162 15.6467027,7.57459459 C16.1331892,4.7292973 17.9701622,3.18032432 20.8154595,3.18032432 L25.8583784,3.18032432 L24.3094054,11.9695135 L19.2668108,11.9691892 Z M22.5444324,5.34162162 L21.2471351,5.34162162 C19.6984865,5.34162162 18.7822703,6.02594595 18.5134054,7.57459459 C18.2254054,9.12356757 18.8017297,9.80789189 20.3503784,9.80789189 L21.7696216,9.80789189 L22.5444324,5.34162162 Z" id="Shape"></path>
                    <path d="M41.4162162,11.9691892 L42.3168649,6.85427027 C42.479027,5.84562162 42.0697297,5.41362162 41.0610811,5.41362162 L39.6269189,5.41362162 L38.4742703,11.9691892 L35.5553514,11.9691892 L37.6657297,0.00356756757 L40.5846486,0.00356756757 L40.0229189,3.18194595 L42.2088649,3.18194595 C44.7661622,3.18194595 45.6846486,4.29859459 45.2344865,6.85589189 L44.3338378,11.9708108 L41.4162162,11.9691892 Z" id="Shape"></path>
                    <path d="M1.97351351,4.73513514 C0.568216216,4.73513514 0.366810811,5.65102703 0.233837838,6.20432432 C0.0596756757,6.92918919 0.00259459459,7.2227027 0.00259459459,7.2227027 L5.496,7.2227027 C6.9012973,7.2227027 7.1027027,6.30681081 7.23567568,5.75351351 C7.40983784,5.02864865 7.46691892,4.73513514 7.46691892,4.73513514 L1.97351351,4.73513514 Z" id="Shape"></path>
                </g>
            </g>
        </g>
    </g>
</svg>