<?xml version="1.0" encoding="UTF-8"?>
<svg width="100px" height="31px" viewBox="0 0 100 31" version="1.1" xmlns="http://www.w3.org/2000/svg" xmlns:xlink="http://www.w3.org/1999/xlink">
    <!-- Generator: Sketch 52.4 (67378) - http://www.bohemiancoding.com/sketch -->
    <title>ethereum-seeklogo.com</title>
    <desc>Created with Sketch.</desc>
    <g id="Symbols" stroke="none" stroke-width="1" fill="none" fill-rule="evenodd">
        <g id="Footer/Main" transform="translate(-582.000000, -70.000000)" fill="#c0c4cb" fill-rule="nonzero">
            <g id="logo" transform="translate(176.000000, 70.000000)">
                <g id="ethereum-seeklogo.com" transform="translate(406.000000, 0.000000)">
                    <path d="M31.3088143,17.3348535 C31.3088143,17.4953745 31.1702249,17.6260312 31.0046876,17.6260312 L25.1454364,17.6260312 C25.2917252,19.029657 26.3811918,20.3100922 27.9133744,20.3100922 C28.9604942,20.3100922 29.7381346,19.9218553 30.3232898,19.111784 C30.4079833,18.9997926 30.5350236,18.9288647 30.6967112,18.9960595 C30.7852544,19.03339 30.8468497,19.111784 30.8622485,19.2013771 C30.8776473,19.2947033 30.8506994,19.346966 30.8237515,19.3992287 C30.2347466,20.3959523 29.0605865,20.8849815 27.9095247,20.8849815 C25.9384757,20.8849815 24.5333333,19.1752458 24.5333333,17.3460526 C24.5333333,15.5168594 25.9384757,13.8071237 27.9095247,13.8071237 C29.8805737,13.8033906 31.3049646,15.5093933 31.3088143,17.3348535 Z M30.6813124,17.058608 C30.5542721,15.6549821 29.445557,14.3745469 27.9133744,14.3745469 C26.3811918,14.3745469 25.2917252,15.6549821 25.1454364,17.058608 L30.6813124,17.058608 Z M38.4192197,13.9452464 C38.5886067,13.9452464 38.7117972,14.0871022 38.7117972,14.228958 C38.7117972,14.3932121 38.584757,14.5126696 38.4192197,14.5126696 L36.84854,14.5126696 L36.84854,20.4892785 C36.84854,20.6311343 36.7214997,20.7729901 36.5559624,20.7729901 C36.3865754,20.7729901 36.2633848,20.6311343 36.2633848,20.4892785 L36.2633848,14.5126696 L34.7543004,14.5126696 C34.5849134,14.5126696 34.4617228,14.3894791 34.4617228,14.228958 C34.4617228,14.0871022 34.5887631,13.9452464 34.7543004,13.9452464 L36.2633848,13.9452464 L36.2633848,11.7576807 C36.2633848,11.6195579 36.3596274,11.4926343 36.4982168,11.470236 C36.6945518,11.4403716 36.84854,11.5710283 36.84854,11.7502146 L36.84854,13.9452464 L38.4192197,13.9452464 Z M48.0011357,16.8346251 L48.0011357,20.4556811 C48.0011357,20.6199351 47.8548469,20.7393927 47.7085581,20.7393927 C47.5391711,20.7393927 47.4159805,20.6162021 47.4159805,20.4556811 L47.4159805,16.8346251 C47.4159805,15.6139186 46.703785,14.3932121 45.2986427,14.3932121 C43.4969807,14.3932121 42.7193403,15.9200285 42.8232823,17.4841754 C42.8232823,17.5252389 42.8425308,17.7081582 42.8425308,17.7268234 L42.8425308,20.4444819 C42.8425308,20.5826047 42.7462882,20.7095283 42.6076988,20.7319266 C42.4113638,20.7617909 42.2573756,20.6311343 42.2573756,20.451948 L42.2573756,8.55845908 C42.2573756,8.41660328 42.3844159,8.27474747 42.5499532,8.27474747 C42.7193403,8.27474747 42.8425308,8.41660328 42.8425308,8.55845908 L42.8425308,15.2891435 C43.3468422,14.4156104 44.2476732,13.8257889 45.294793,13.8257889 C47.0156112,13.8257889 48.0011357,15.2891435 48.0011357,16.8346251 Z M58.5069809,17.3348535 C58.5069809,17.4953745 58.3683915,17.6260312 58.2028542,17.6260312 L52.3397533,17.6260312 C52.4860421,19.029657 53.5755087,20.3100922 55.1076913,20.3100922 C56.1548111,20.3100922 56.9324515,19.9218553 57.5176067,19.111784 C57.6023002,18.9997926 57.7293405,18.9288647 57.8910281,18.9960595 C57.9795713,19.03339 58.0411666,19.111784 58.0565654,19.2013771 C58.0719642,19.2947033 58.0450163,19.346966 58.0180684,19.3992287 C57.4290635,20.3959523 56.2549034,20.8849815 55.1038416,20.8849815 C53.1327926,20.8849815 51.7276502,19.1752458 51.7276502,17.3460526 C51.7276502,15.5168594 53.1327926,13.8071237 55.1038416,13.8071237 C57.0787403,13.8033906 58.5031312,15.5093933 58.5069809,17.3348535 Z M57.8756293,17.058608 C57.748589,15.6549821 56.6398739,14.3745469 55.1076913,14.3745469 C53.5755087,14.3745469 52.4860421,15.6549821 52.3397533,17.058608 L57.8756293,17.058608 Z M65.69823,14.2102928 C65.69823,14.3932121 65.594288,14.4940044 65.424901,14.5164027 C63.7040828,14.7590508 62.9302921,16.1216131 62.9302921,17.7081582 L62.9302921,20.4258167 C62.9302921,20.5639394 62.8340494,20.690863 62.6954601,20.7132613 C62.4991251,20.7431257 62.3451369,20.6124691 62.3451369,20.4332828 L62.3451369,14.2401572 C62.3451369,14.1020344 62.4413795,13.9751108 62.5799689,13.9527125 C62.7763039,13.9228482 62.9302921,14.0535048 62.9302921,14.2326911 L62.9302921,15.4944611 C63.4115052,14.7030551 64.3777812,13.9489795 65.3825542,13.9489795 C65.528843,13.9452464 65.69823,14.0497718 65.69823,14.2102928 Z M75.3224928,17.3348535 C75.3224928,17.4953745 75.1839034,17.6260312 75.0183661,17.6260312 L69.1591149,17.6260312 C69.3054037,19.029657 70.3948703,20.3100922 71.9270529,20.3100922 C72.9741727,20.3100922 73.7518131,19.9218553 74.3369683,19.111784 C74.4216618,18.9997926 74.5487021,18.9288647 74.7103897,18.9960595 C74.7989329,19.03339 74.8605282,19.111784 74.875927,19.2013771 C74.8913258,19.2947033 74.8643779,19.346966 74.83743,19.3992287 C74.2484251,20.3959523 73.074265,20.8849815 71.9232032,20.8849815 C69.9521542,20.8849815 68.5470118,19.1752458 68.5470118,17.3460526 C68.5470118,15.5168594 69.9521542,13.8071237 71.9232032,13.8071237 C73.8942522,13.8033906 75.3186431,15.5093933 75.3224928,17.3348535 Z M74.6949909,17.058608 C74.5679506,15.6549821 73.4592355,14.3745469 71.9270529,14.3745469 C70.3948703,14.3745469 69.3054037,15.6549821 69.1591149,17.058608 L74.6949909,17.058608 Z M84.7812183,14.2812207 L84.7812183,20.4892785 C84.7812183,20.6535326 84.6349295,20.7729901 84.4886407,20.7729901 C84.3192536,20.7729901 84.1960631,20.6497995 84.1960631,20.4892785 L84.1960631,19.3096355 C83.7148499,20.2466304 82.852516,20.9148459 81.7630494,20.9148459 C80.0229827,20.9148459 79.0567068,19.4514913 79.0567068,17.9060097 L79.0567068,14.2662885 C79.0567068,14.1244327 79.183747,13.9825769 79.3492843,13.9825769 C79.5186714,13.9825769 79.6418619,14.1244327 79.6418619,14.2662885 L79.6418619,17.9060097 C79.6418619,19.1267162 80.3540574,20.3474227 81.7591997,20.3474227 C83.7302488,20.3474227 84.1922134,18.559293 84.1922134,16.5845109 L84.1922134,14.2662885 C84.1922134,14.1020344 84.3616004,13.9340473 84.5694845,13.9937761 C84.6965247,14.0348396 84.7812183,14.1542971 84.7812183,14.2812207 Z M99.6025829,16.8122268 L99.6025829,20.451948 C99.6025829,20.6162021 99.4562941,20.7356596 99.3100053,20.7356596 C99.1406183,20.7356596 99.0174277,20.6124691 99.0174277,20.451948 L99.0174277,16.8122268 C99.0174277,15.5915203 98.3052323,14.3932121 96.9000899,14.3932121 C95.136925,14.3932121 94.4670763,16.2224053 94.4670763,17.6446964 L94.4670763,20.451948 C94.4670763,20.6162021 94.3207875,20.7356596 94.1744987,20.7356596 C94.0051117,20.7356596 93.8819211,20.6124691 93.8819211,20.451948 L93.8819211,16.8122268 C93.8819211,15.5915203 93.1697257,14.3932121 91.7645833,14.3932121 C89.9821699,14.3932121 89.2468762,15.7557744 89.3123212,17.5663024 C89.3123212,17.6073659 89.3315697,17.689493 89.3123212,17.7081582 L89.3123212,20.4444819 C89.3123212,20.5826047 89.2160785,20.7095283 89.0736394,20.7319266 C88.8773045,20.7617909 88.7233163,20.6311343 88.7233163,20.451948 L88.7233163,14.2401572 C88.7233163,14.1020344 88.8195589,13.9751108 88.9581483,13.9527125 C89.1544833,13.9228482 89.3084715,14.0535048 89.3084715,14.2326911 L89.3084715,15.2704783 C89.8127828,14.3969452 90.7136138,13.8257889 91.7607336,13.8257889 C92.9541422,13.8257889 93.8780714,14.5574662 94.2553425,15.6363169 C94.7365557,14.5798645 95.6797334,13.8257889 96.8962402,13.8257889 C98.6170584,13.8257889 99.6025829,15.2667452 99.6025829,16.8122268 Z" id="Shape"></path>
                    <g id="Group" opacity="0.6" transform="translate(0.005871, 11.423125)">
                        <polygon id="Shape" points="9.81674802 0.0149321895 0.0230982306 4.334068 9.81674802 9.94483821 19.6065481 4.334068"></polygon>
                    </g>
                    <g id="Group" opacity="0.45" transform="translate(0.005871, 0.000000)">
                        <polygon id="Shape" points="0.0230982306 15.757193 9.81674802 21.3679632 9.81674802 0"></polygon>
                    </g>
                    <g id="Group" opacity="0.8" transform="translate(9.822619, 0.000000)">
                        <polygon id="Shape" points="0 0 0 21.3679632 9.78980009 15.757193"></polygon>
                    </g>
                    <g id="Group" opacity="0.45" transform="translate(0.005871, 17.545323)">
                        <polygon id="Shape" points="0.0230982306 0.0111991421 9.81674802 13.3904409 9.81674802 5.62196935"></polygon>
                    </g>
                    <g id="Group" opacity="0.8" transform="translate(9.822619, 17.545323)">
                        <polygon id="Shape" points="0 5.62196935 0 13.3904409 9.7974995 0.0111991421"></polygon>
                    </g>
                </g>
            </g>
        </g>
    </g>
</svg>