<?xml version="1.0" encoding="UTF-8"?>
<svg width="83px" height="22px" viewBox="0 0 83 22" version="1.1" xmlns="http://www.w3.org/2000/svg" xmlns:xlink="http://www.w3.org/1999/xlink">
    <!-- Generator: Sketch 52.4 (67378) - http://www.bohemiancoding.com/sketch -->
    <title>Monero</title>
    <desc>Created with Sketch.</desc>
    <g id="Symbols" stroke="none" stroke-width="1" fill="none" fill-rule="evenodd">
        <g id="Footer/Main" transform="translate(-1006.000000, -75.000000)" fill="#c0c4cb" fill-rule="nonzero">
            <g id="logo" transform="translate(176.000000, 70.000000)">
                <g id="Monero" transform="translate(830.000000, 5.000000)">
                    <path d="M10.9031722,0.103271442 C4.94676632,0.103271442 0.116047168,4.93340597 0.116047168,10.8901042 C0.116047168,12.0809761 0.308971932,13.2262477 0.665590433,14.2975647 L3.89152632,14.2975647 L3.89152632,5.22162388 L10.9031722,12.2332698 L17.9148181,5.22162388 L17.9148181,14.2975647 L21.1410463,14.2975647 C21.4976648,13.2262477 21.6905896,12.0809761 21.6905896,10.8901042 C21.6905896,4.93340597 16.8598705,0.103271442 10.9031722,0.103271442" id="path22"></path>
                    <path d="M6.23100216,10.7850771 L6.23100216,16.4959424 L1.68557781,16.4959424 C3.57916359,19.6026158 6.99919349,21.6774339 10.9029968,21.6774339 C14.8068002,21.6774339 18.2271224,19.6026158 20.1204159,16.4959424 L15.5752838,16.4959424 L15.5752838,10.7850771 L10.9029968,15.4573641 L6.23100216,10.7850771 Z" id="path26"></path>
                    <path d="M79.7155476,13.9611741 C79.1452503,14.5484254 78.4536442,14.841028 77.6404371,14.841028 C76.9219385,14.841028 76.2867484,14.6153645 75.7307743,14.161699 C75.0160757,13.583217 74.6591649,12.7954409 74.6591649,11.7986629 C74.6591649,10.9062397 74.9432905,10.168741 75.5115416,9.58996669 C76.0777466,9.00914623 76.7775373,8.72063601 77.6114984,8.72063601 C78.4349364,8.72063601 79.1350194,9.01762323 79.7094091,9.61072072 C80.2861372,10.2041105 80.5743551,10.9296246 80.5743551,11.7881398 C80.5743551,12.6489934 80.2884757,13.3718767 79.7155476,13.9611741 M80.9131427,8.42569497 C79.997627,7.50462538 78.9029251,7.04277519 77.6281601,7.04277519 C76.7880605,7.04277519 76.0026228,7.2541155 75.2756472,7.67591919 C74.5460409,8.09801519 73.9734051,8.67035865 73.5577399,9.3935342 C73.1417824,10.1164174 72.9330729,10.9085782 72.9330729,11.7691396 C72.9330729,13.0544277 73.3800153,14.1637451 74.2747769,15.098261 C75.1686617,16.0342384 76.291133,16.5001809 77.6404371,16.5001809 C78.9298176,16.5001809 80.0271503,16.0468077 80.9318505,15.1356767 C81.8365507,14.2265918 82.2878778,13.1131821 82.2878778,11.7986629 C82.2878778,10.4736206 81.8301199,9.34968767 80.9131427,8.42569497" id="path30"></path>
                    <path d="M69.6593735,10.514544 C69.442187,10.6659607 69.3395861,10.7404998 68.7649042,10.7404998 L66.5035921,10.7404998 L66.5035921,8.80599061 L68.6947497,8.80599061 C69.134092,8.80599061 69.2118465,8.83902166 69.3919096,8.90683764 C69.5713881,8.97260745 69.7140355,9.0825161 69.8216057,9.2336405 C69.9291759,9.38505721 69.9817917,9.56482801 69.9817917,9.77090673 C69.9817917,10.1175867 69.8742216,10.3654658 69.6593735,10.514544 Z M69.9312221,12.2955903 C70.5301658,12.08045 70.9797389,11.7647549 71.2778954,11.3482128 C71.5763441,10.9293322 71.7233762,10.4113585 71.7233762,9.78873766 C71.7233762,9.19856327 71.5897904,8.68526647 71.3196957,8.25323193 C71.0498934,7.82119738 70.6923979,7.51193314 70.2495479,7.3254392 C69.8064056,7.13894526 69.0627683,7.04482137 68.0165899,7.04482137 L64.7050071,7.04482137 L64.7050071,16.4981348 L66.5035921,16.4981348 L66.5035921,12.4952382 L68.0732981,12.4952382 L70.2013167,16.4981348 L72.1685647,16.4981348 L69.9312221,12.2955903 Z" id="path34"></path>
                    <polygon id="path38" points="56.6424474 7.04277519 62.7716087 7.04277519 62.7716087 8.80394443 58.4302169 8.80394443 58.4302169 10.738746 62.7716087 10.738746 62.7716087 12.4692226 58.4302169 12.4692226 58.4302169 14.7281962 62.7716087 14.7281962 62.7716087 16.4963809 56.6424474 16.4963809"></polygon>
                    <polygon id="path42" points="47.1457844 7.04277519 48.8677841 7.04277519 52.9232965 13.2631373 52.9232965 7.04277519 54.7218814 7.04277519 54.7218814 16.4960886 52.9934509 16.4960886 48.9443694 10.2956036 48.9443694 16.4960886 47.1457844 16.4960886 47.1457844 7.04277519"></polygon>
                    <g id="use46" transform="translate(36.229341, 7.015446)">
                        <path d="M6.93029596,6.94572819 C6.35999867,7.53297948 5.66839263,7.82558204 4.85518552,7.82558204 C4.13668693,7.82558204 3.50149676,7.59991853 2.94552267,7.14625302 C2.23082412,6.56777104 1.8739133,5.77999492 1.8739133,4.78321698 C1.8739133,3.8907938 2.15803886,3.15329504 2.72628999,2.57452075 C3.29249493,1.99370029 3.99228567,1.70519007 4.8262468,1.70519007 C5.64968477,1.70519007 6.34976781,2.00217729 6.92415745,2.59527478 C7.50088557,3.18866458 7.78910347,3.91417861 7.78910347,4.77269381 C7.78910347,5.63354749 7.50322405,6.35643073 6.93029596,6.94572819 M8.12789105,1.41024904 C7.21237535,0.489179445 6.11767348,0.0273292543 4.84290849,0.0273292543 C4.00280884,0.0273292543 3.2173712,0.238669563 2.49039562,0.66047325 C1.76078924,1.08256925 1.18815346,1.65491271 0.772488291,2.37808826 C0.356530809,3.10097151 0.147821292,3.89313228 0.147821292,4.75369365 C0.147821292,6.0389818 0.594763661,7.14829919 1.48952533,8.08281505 C2.38341006,9.01879247 3.50588142,9.484735 4.85518552,9.484735 C6.14456602,9.484735 7.24189869,9.03136181 8.1465989,8.12023077 C9.05129912,7.2111459 9.50262614,6.09773616 9.50262614,4.78321698 C9.50262614,3.45817463 9.04486829,2.33424173 8.12789105,1.41024904" id="path30"></path>
                    </g>
                    <polygon id="path50" points="26.2167799 7.04251211 27.9779492 7.04251211 30.1623837 13.6361544 32.3801415 7.04251211 34.1150028 7.04251211 35.7078014 16.4961178 33.9726477 16.4961178 32.9571619 10.525681 30.9457751 16.4961178 29.3596997 16.4961178 27.3749131 10.525681 26.3395502 16.4961178 24.5848118 16.4961178"></polygon>
                </g>
            </g>
        </g>
    </g>
</svg>