<?xml version="1.0" encoding="UTF-8"?>
<svg width="64px" height="18px" viewBox="0 0 64 18" version="1.1" xmlns="http://www.w3.org/2000/svg" xmlns:xlink="http://www.w3.org/1999/xlink">
    <!-- Generator: Sketch 52.4 (67378) - http://www.bohemiancoding.com/sketch -->
    <title>ripple-logo</title>
    <desc>Created with Sketch.</desc>
    <g id="Symbols" stroke="none" stroke-width="1" fill="none" fill-rule="evenodd">
        <g id="Footer/Main" transform="translate(-812.000000, -77.000000)" fill="#c0c4cb" fill-rule="nonzero">
            <g id="logo" transform="translate(176.000000, 70.000000)">
                <g id="ripple-logo" transform="translate(636.000000, 7.000000)">
                    <path d="M23.0965986,6.52373792 C22.9297052,6.46874329 22.5741497,6.43437164 22.2258503,6.43437164 C21.1664399,6.43437164 20.0344671,7.24554243 20.0344671,8.24919441 L20.0344671,13.0406015 L17.6181406,13.0406015 L17.6181406,4.49581096 L19.9401361,4.49581096 L19.9401361,5.36197637 C20.4770975,4.72953813 21.4639456,4.32395274 22.5596372,4.32395274 C22.8353741,4.32395274 23.1111111,4.35145005 23.3795918,4.39269603 L23.0965986,6.52373792 Z" id="Shape"></path>
                    <path d="M25.8321995,0 C26.7029478,0 27.414059,0.632438238 27.414059,1.46423201 C27.414059,2.29602578 26.7029478,2.92846402 25.8321995,2.92846402 C24.9614512,2.92846402 24.2503401,2.29602578 24.2503401,1.46423201 C24.2503401,0.632438238 24.954195,0 25.8321995,0 Z M27.0439909,13.0406015 L24.6276644,13.0406015 L24.6276644,4.49581096 L27.0439909,4.49581096 L27.0439909,13.0406015 Z" id="Shape"></path>
                    <path d="M34.184127,4.31707841 C33.2263039,4.30332975 32.2902494,4.61267454 31.5428571,5.18324382 L31.5428571,4.49581096 L29.2136054,4.49581096 L29.2136054,17.2683136 L31.6371882,17.2683136 L31.6371882,12.4425349 C32.3265306,12.9581096 33.1827664,13.2330827 34.0535147,13.219334 C35.3959184,13.219334 36.6730159,12.6556391 37.478458,11.775725 C38.1823129,10.9989259 38.6104308,9.94027927 38.6104308,8.77851772 C38.6104308,6.2556391 36.6367347,4.31707841 34.184127,4.31707841 Z M33.8866213,11.1364125 C32.3845805,11.1364125 31.3977324,10.1533835 31.3977324,8.78539205 C31.3977324,7.41740064 32.3845805,6.43437164 33.8866213,6.43437164 C35.1709751,6.43437164 36.2086168,7.48614393 36.2086168,8.78539205 C36.2086168,10.0846402 35.1709751,11.1364125 33.8866213,11.1364125 Z" id="Shape"></path>
                    <polygon id="Shape" points="53.2897959 13.0406015 50.8662132 13.0406015 50.8662132 0.529323308 53.2825397 0.529323308"></polygon>
                    <path d="M63.1437642,11.6863588 C62.2730159,12.6762621 60.8362812,13.219334 59.4430839,13.219334 C56.7437642,13.219334 54.7192744,11.4595059 54.7192744,8.77851772 C54.7192744,6.4 56.431746,4.31707841 59.1092971,4.31707841 C61.6054422,4.31707841 63.3687075,6.31063373 63.3687075,8.68915145 C63.3687075,8.90912997 63.354195,9.12910849 63.3106576,9.34221267 L57.0630385,9.34221267 C57.1936508,10.5383459 58.21678,11.3701396 59.5011338,11.3701396 C60.524263,11.3701396 61.3442177,10.8270677 61.7723356,10.3802363 L63.1437642,11.6863588 Z M60.8943311,7.66487648 C60.8217687,6.90870032 60.0961451,6.16627282 59.1092971,6.16627282 C58.1079365,6.16627282 57.2879819,6.88807734 57.1718821,7.66487648 L60.8943311,7.66487648 Z" id="Shape"></path>
                    <path d="M45.0104308,4.31707841 C44.0526077,4.30332975 43.1165533,4.61267454 42.369161,5.18324382 L42.369161,4.49581096 L40.0399093,4.49581096 L40.0399093,17.2683136 L42.4562358,17.2683136 L42.4562358,12.4425349 C43.1455782,12.9581096 44.0018141,13.2330827 44.8725624,13.219334 C46.214966,13.219334 47.4920635,12.6556391 48.2975057,11.775725 C49.0013605,10.9989259 49.4294785,9.94027927 49.4294785,8.77851772 C49.4367347,6.2556391 47.4630385,4.31707841 45.0104308,4.31707841 Z M44.7129252,11.1364125 C43.2108844,11.1364125 42.2240363,10.1533835 42.2240363,8.78539205 C42.2240363,7.41740064 43.2108844,6.43437164 44.7129252,6.43437164 C45.9972789,6.43437164 47.0349206,7.48614393 47.0349206,8.78539205 C47.0349206,10.0846402 45.9972789,11.1364125 44.7129252,11.1364125 Z" id="Shape"></path>
                    <path d="M12.6258503,9.92653061 C12.0816327,9.63093448 11.4648526,9.54156821 10.8553288,9.52094522 C10.3473923,9.50719656 9.58548753,9.19097744 9.58548753,8.31106337 C9.58548753,7.65800215 10.1442177,7.12867884 10.862585,7.10118153 C11.4721088,7.08055854 12.0888889,6.99119227 12.6331066,6.69559613 C14.1786848,5.85005371 14.7011338,3.98023631 13.815873,2.52287863 C12.9160998,1.06552095 10.9424036,0.563694952 9.3968254,1.40923738 C8.39546485,1.95230934 7.78594104,2.96283566 7.78594104,4.05585392 C7.78594104,4.64704619 8.01088435,5.19011815 8.29387755,5.69881847 C8.53333333,6.12502685 8.64943311,6.91557465 7.83673469,7.36240602 C7.22721088,7.69237379 6.46530612,7.48614393 6.08798186,6.90870032 C5.76870748,6.42062299 5.38412698,5.96691729 4.8399093,5.67132116 C3.29433107,4.82577873 1.32063492,5.32760473 0.43537415,6.78496241 C-0.449886621,8.24232009 0.0725623583,10.1121375 1.61814059,10.9576799 C2.61950113,11.5007519 3.84580499,11.5007519 4.8399093,10.9576799 C5.38412698,10.6620838 5.76870748,10.2083781 6.08798186,9.72030075 C6.34920635,9.32158969 7.00952381,8.81288937 7.83673469,9.26659506 C8.4462585,9.59656284 8.63492063,10.3252417 8.29387755,10.9301826 C8.01088435,11.4320086 7.78594104,11.9819549 7.78594104,12.5731472 C7.78594104,14.2573577 9.22993197,15.6253491 11.0077098,15.6253491 C12.7854875,15.6253491 14.2294785,14.2573577 14.2294785,12.5731472 C14.2367347,11.4801289 13.6199546,10.4696026 12.6258503,9.92653061 Z" id="Shape"></path>
                </g>
            </g>
        </g>
    </g>
</svg>