<svg width="71" height="71" viewBox="0 0 71 71" fill="none" xmlns="http://www.w3.org/2000/svg">
<path d="M35.1969 38.6576C35.1404 38.6415 35.0826 38.6324 35.0244 38.6293C35.8802 37.7298 36.4072 36.5148 36.4072 35.1782V31.068C36.4072 31.0304 36.4036 30.9938 36.3985 30.9577C36.4037 30.8834 36.4072 30.8087 36.4072 30.7333V28.1328C36.4072 27.7013 36.0574 27.3516 35.6259 27.3516H30.3859C28.1792 27.3516 26.3841 29.1468 26.3841 31.3534V35.1782C26.3841 36.5148 26.911 37.7298 27.7669 38.6293C27.7087 38.6324 27.6509 38.6415 27.5945 38.6576C23.9026 38.9919 21 42.1037 21 45.8812V49.219C21 49.6505 21.3498 50.0002 21.7812 50.0002H41.0099C41.4414 50.0002 41.7912 49.6505 41.7912 49.219V45.8812C41.7912 42.1038 38.8888 38.992 35.1969 38.6576ZM27.9466 32.3441V31.3533C27.9466 30.0083 29.0409 28.914 30.3859 28.914H34.8447V30.7332C34.8447 31.6491 34.0996 32.3941 33.1838 32.3941H27.9466V32.3441ZM27.9466 33.9566H33.1838C33.7909 33.9566 34.3593 33.7877 34.8447 33.4946V35.1781C34.8447 37.0799 33.2974 38.6272 31.3956 38.6272C29.4938 38.6272 27.9466 37.0799 27.9466 35.1781V33.9566ZM33.096 40.1898L31.3956 41.8902L29.6952 40.1898H33.096ZM40.2288 48.4377H22.5625V46.8752H25.8047C26.2362 46.8752 26.5859 46.5255 26.5859 46.094C26.5859 45.6625 26.2362 45.3127 25.8047 45.3127H22.591C22.8534 42.6787 24.9196 40.5692 27.5328 40.237L30.8432 43.5474C30.9897 43.6939 31.1884 43.7763 31.3956 43.7763C31.6028 43.7763 31.8016 43.6939 31.948 43.5474L35.2584 40.237C38.0572 40.5927 40.2288 42.9873 40.2288 45.8812V48.4377Z" fill="#FFCA13"/>
<path d="M54.4059 21.3061C54.3494 21.29 54.2915 21.2809 54.2332 21.2778C55.089 20.3784 55.6159 19.1633 55.6159 17.8267V13.7164C55.6159 13.6788 55.6123 13.6422 55.6073 13.6061C55.6124 13.5319 55.6159 13.4572 55.6159 13.3817V10.7812C55.6159 10.3498 55.2662 10 54.8347 10H49.5946C47.388 10 45.5928 11.7952 45.5928 14.0018V17.8266C45.5928 19.1632 46.1198 20.3783 46.9755 21.2777C46.9173 21.2809 46.8594 21.2899 46.8029 21.306C43.1111 21.6405 40.2087 24.7523 40.2087 28.5296V31.8673C40.2087 32.2988 40.5585 32.6486 40.99 32.6486H47.2759C47.7074 32.6486 48.0572 32.2988 48.0572 31.8673C48.0572 31.4359 47.7074 31.0861 47.2759 31.0861H41.7712V28.5297C41.7712 25.6359 43.9427 23.2413 46.7415 22.8855L50.0519 26.1959C50.2044 26.3485 50.4044 26.4248 50.6043 26.4248C50.8042 26.4248 51.0042 26.3485 51.1567 26.1959L54.4671 22.8855C57.266 23.2413 59.4375 25.6359 59.4375 28.5297V31.0862H53.6823C53.2508 31.0862 52.901 31.4359 52.901 31.8674C52.901 32.2989 53.2508 32.6487 53.6823 32.6487H60.2187C60.6502 32.6487 61 32.2989 61 31.8674V28.5297C61 24.7523 58.0976 21.6405 54.4059 21.3061ZM50.6044 24.5387L48.9041 22.8383H52.3048L50.6044 24.5387ZM54.0535 17.8266C54.0535 19.7284 52.5062 21.2757 50.6044 21.2757C48.7026 21.2757 47.1554 19.7285 47.1554 17.8267V16.6052H52.3926C52.9998 16.6052 53.5681 16.4362 54.0535 16.1431V17.8266ZM54.0535 13.3817C54.0535 14.2976 53.3084 15.0427 52.3926 15.0427H47.1554V14.9926V14.0018C47.1554 12.6568 48.2497 11.5625 49.5947 11.5625H54.0535V13.3817Z" fill="#FFCA13"/>
<path d="M51.1571 31.3148C51.0118 31.1695 50.8102 31.0859 50.6047 31.0859C50.3985 31.0859 50.1977 31.1695 50.0524 31.3148C49.9063 31.4602 49.8235 31.6617 49.8235 31.8672C49.8235 32.0734 49.9063 32.2742 50.0524 32.4195C50.1977 32.5656 50.3985 32.6484 50.6047 32.6484C50.8102 32.6484 51.0118 32.5656 51.1571 32.4195C51.3024 32.2742 51.386 32.0734 51.386 31.8672C51.386 31.6617 51.3024 31.4602 51.1571 31.3148Z" fill="#FFCA13"/>
<path d="M41.891 20.932L38.6238 17.6647V13.9062C38.6238 11.7523 36.8714 10 34.7175 10H24.9062C22.7523 10 21 11.7523 21 13.9062V20.7812C21 22.9352 22.7523 24.6875 24.9062 24.6875H34.7174C36.3326 24.6875 37.741 23.7182 38.332 22.2656H41.3385C41.6545 22.2656 41.9394 22.0752 42.0603 21.7834C42.1812 21.4915 42.1144 21.1554 41.891 20.932ZM37.762 20.7031C37.398 20.7031 37.0823 20.9545 37.0006 21.3092C36.7547 22.3783 35.8159 23.125 34.7174 23.125H24.9062C23.6139 23.125 22.5625 22.0736 22.5625 20.7812V13.9062C22.5625 12.6139 23.6139 11.5625 24.9062 11.5625H34.7174C36.0098 11.5625 37.0612 12.6139 37.0612 13.9062V17.9883C37.0612 18.1955 37.1435 18.3942 37.29 18.5407L39.4524 20.7031H37.762Z" fill="#FFCA13"/>
<path d="M57.0937 35.3125H47.2825C45.6674 35.3125 44.2589 36.2818 43.668 37.7344H40.6614C40.3455 37.7344 40.0606 37.9248 39.9396 38.2166C39.8187 38.5085 39.8856 38.8446 40.1089 39.068L43.3762 42.3353V46.0938C43.3762 48.2477 45.1285 50 47.2824 50H57.0937C59.2476 50 60.9999 48.2477 60.9999 46.0938V39.2188C60.9999 37.0648 59.2476 35.3125 57.0937 35.3125ZM59.4374 46.0938C59.4374 47.3861 58.386 48.4375 57.0937 48.4375H47.2825C45.9902 48.4375 44.9388 47.3861 44.9388 46.0938V42.0117C44.9388 41.8045 44.8564 41.6058 44.7099 41.4593L42.5475 39.2969H44.2379C44.6019 39.2969 44.9177 39.0455 44.9993 38.6908C45.2452 37.6217 46.1841 36.875 47.2825 36.875H57.0937C58.386 36.875 59.4374 37.9264 59.4374 39.2188V46.0938Z" fill="#FFCA13"/>
<path d="M55.6997 40.5774C55.3947 40.2724 54.9001 40.2724 54.595 40.5774L52.5182 42.6542L51.5525 41.6885C51.2474 41.3835 50.7527 41.3835 50.4476 41.6885C50.1425 41.9936 50.1425 42.4883 50.4476 42.7935L51.9657 44.3116C52.1183 44.4642 52.3182 44.5404 52.5181 44.5404C52.718 44.5404 52.918 44.4642 53.0705 44.3116L55.6997 41.6824C56.0048 41.3773 56.0048 40.8826 55.6997 40.5774Z" fill="#FFCA13"/>
<path d="M33.3635 15.1772C33.2712 13.8375 32.1913 12.7577 30.8517 12.6654C30.0921 12.6131 29.368 12.8693 28.8133 13.3872C28.2664 13.8977 27.9526 14.6196 27.9526 15.3675C27.9527 15.7991 28.3025 16.1489 28.734 16.1489C29.1654 16.1489 29.5152 15.7991 29.5152 15.3676C29.5152 15.0465 29.6446 14.7488 29.8796 14.5294C30.1142 14.3104 30.4216 14.2016 30.7444 14.2243C31.3099 14.2633 31.7658 14.7191 31.8047 15.2847C31.8442 15.8565 31.4694 16.3618 30.9135 16.4861C30.3051 16.6222 29.8801 17.1512 29.8801 17.7725V18.1893C29.8801 18.6208 30.2299 18.9705 30.6614 18.9705C31.0929 18.9705 31.4426 18.6208 31.4426 18.1893V17.9619C32.6531 17.6008 33.4519 16.4597 33.3635 15.1772Z" fill="#FFCA13"/>
<path d="M31.2142 20.6269C31.0689 20.4815 30.8673 20.3979 30.6619 20.3979C30.4556 20.3979 30.2548 20.4815 30.1095 20.6269C29.9634 20.7722 29.8806 20.9737 29.8806 21.1792C29.8806 21.3847 29.9634 21.5862 30.1095 21.7315C30.2548 21.8769 30.4556 21.9604 30.6619 21.9604C30.8673 21.9604 31.0689 21.8769 31.2142 21.7315C31.3595 21.5862 31.4431 21.3847 31.4431 21.1792C31.4431 20.9737 31.3595 20.7722 31.2142 20.6269Z" fill="#FFCA13"/>
<path d="M29.482 45.5414C29.3367 45.3961 29.1352 45.3125 28.9297 45.3125C28.7242 45.3125 28.5227 45.3961 28.3773 45.5414C28.232 45.6867 28.1484 45.8883 28.1484 46.0938C28.1484 46.2992 28.232 46.5008 28.3773 46.6461C28.5227 46.7914 28.7242 46.875 28.9297 46.875C29.1352 46.875 29.3367 46.7914 29.482 46.6461C29.6273 46.5008 29.7109 46.2992 29.7109 46.0938C29.7109 45.8883 29.6273 45.6867 29.482 45.5414Z" fill="#FFCA13"/>
<path d="M1 0L0.999998 40C0.999998 56.5685 14.4315 70 31 70L71 70" stroke="#FFCA13" stroke-width="2"/>
</svg>
