<?xml version="1.0" encoding="UTF-8"?>
<svg width="67px" height="56px" viewBox="0 0 67 56" version="1.1" xmlns="http://www.w3.org/2000/svg" xmlns:xlink="http://www.w3.org/1999/xlink">
    <!-- Generator: Sketch 54 (76480) - https://sketchapp.com -->
    <title>startup-hover</title>
    <desc>Created with Sketch.</desc>
    <g id="Page-1" stroke="none" stroke-width="1" fill="none" fill-rule="evenodd">
        <path d="M52.24478,47.4782609 L61.4166667,47.4782609 L61.4166667,12.326087 C61.4166667,10.5613006 59.916691,9.13043478 58.0666667,9.13043478 L42.4333333,9.13043478 L42.4333333,7 L58.0666667,7 C61.1489502,7.00364091 63.6461832,9.38581652 63.65,12.326087 L63.65,47.4782609 L65.8833333,47.4782609 C66.5000082,47.4782609 67,47.9552161 67,48.5434783 L67,52.8043478 C67,54.5691342 65.5000244,56 63.65,56 L3.35,56 C1.49997562,56 0,54.5691342 0,52.8043478 L0,48.5434783 C0,47.9552161 0.499991827,47.4782609 1.11666667,47.4782609 L3.35,47.4782609 L3.35,12.326087 C3.35381677,9.38581652 5.85104984,7.00364091 8.93333333,7 L23.5666667,7 L23.5666667,9.13043478 L8.93333333,9.13043478 C7.08330895,9.13043478 5.58333333,10.5613006 5.58333333,12.326087 L5.58333333,47.4782609 L14.75522,47.4782609 C14.5473336,46.8970514 14.4795028,46.2198905 14.4761905,45.6380767 C14.4843867,44.4597398 14.9777949,43.3335841 15.8460403,42.5135936 C16.7142857,41.6936032 17.8846959,41.2474005 19.0933547,41.2761535 C19.6550642,39.147373 21.7549177,37.7581814 23.9924665,38.0350613 C26.2305618,38.3119412 27.9069475,40.1686339 27.9047619,42.3666343 L25.6666667,42.3666343 C25.6666667,41.1622067 24.6645509,40.1856727 23.4285714,40.1856727 C22.192592,40.1856727 21.1904762,41.1622067 21.1904762,42.3666343 C21.2549526,42.7547986 21.1030506,43.1466901 20.791597,43.3964146 C20.4801432,43.6461389 20.0555827,43.7158914 19.677467,43.5790487 C19.4457892,43.4954523 19.1999046,43.4539203 18.952381,43.4571151 C17.7164015,43.4571151 16.7142857,44.4336491 16.7142857,45.6380767 C16.7142857,46.3410692 17.0719038,47.0280731 17.6154413,47.4782609 L49.3845587,47.4782609 C49.9280962,47.0280731 50.2857143,46.3410692 50.2857143,45.6380767 C50.2857143,44.4336491 49.2835985,43.4571151 48.047619,43.4571151 C47.7990025,43.4539203 47.5520252,43.4949199 47.3192546,43.5790487 C46.9449638,43.7206835 46.5220424,43.6562557 46.2100423,43.4102585 C45.8980422,43.1642613 45.7455939,42.7744998 45.8095238,42.3884652 C45.8155344,41.1840377 44.8188826,40.2027114 43.5823568,40.1963219 C42.3463775,40.1904648 41.3393439,41.1622067 41.3333333,42.3666343 L39.0952381,42.3666343 C39.0952381,39.9577792 41.0994699,38.004711 43.5714286,38.004711 C45.6122698,38.0068409 47.3935663,39.3513057 47.9066453,41.2761535 C49.1169433,41.2436734 50.2889928,41.6882786 51.158331,42.5093339 C52.0271229,43.3303892 52.5199846,44.4586749 52.5238095,45.6380767 C52.5204972,46.2198905 52.4526664,46.8970514 52.24478,47.4782609 Z M57,50 L39.9352417,50 L39.0667725,52.315918 C38.9135132,52.7241211 38.4839477,52.9995117 38,53 L29,53 C28.515503,53 28.0853882,52.7246094 27.9321289,52.315918 L27.0636597,50 L10,50 L2,50 L2,53 C2,53.5522461 2.50372311,54 3.125,54 L63.875,54 C64.4962769,54 65,53.5522461 65,53 L65,50 L57,50 Z M38,50 L29,50 L29.3697797,51 L37.6302203,51 L38,50 Z M22.2331564,26.2391495 C22.02476,25.9689672 21.9506395,25.6174047 22.0328164,25.2853736 L24.2327963,16.3964853 C24.3557932,15.9022361 24.7956818,15.5555564 25.3000229,15.5555564 L26.395716,15.5555564 L26.395716,6.68565684 C26.395716,6.39160297 26.5111935,6.10948493 26.7169045,5.90115161 L32.2168541,0.326607647 C32.4333071,0.130752659 32.709916,0.0157353045 32.9999524,1.8332037e-06 C33.295897,-0.000540701485 33.578951,0.119359465 33.7862733,0.332033063 L39.2862229,6.00803091 C39.4876371,6.21582173 39.5998919,6.49468463 39.5998919,6.78548322 L39.5998919,15.5555564 L40.6998819,15.5555564 C41.204223,15.5555564 41.6441116,15.9022361 41.7671085,16.3964853 L43.9670883,25.2853736 C44.0492653,25.6174047 43.975682,25.9695098 43.7672855,26.2391495 C43.5583517,26.5087892 43.2387747,26.6666669 42.8998617,26.6666669 L38.1921412,26.6666669 L37.3429791,29.2399089 C37.1931269,29.6934679 36.7731111,29.9994575 36.2999222,30 L29.6999826,30 C29.2262565,30 28.8057037,29.6940104 28.6558515,29.2399089 L27.8066894,26.6666669 L23.100043,26.6666669 C22.7611301,26.6666669 22.441553,26.5087892 22.2331564,26.2391495 Z M39.8410518,17.7777785 L39.5998919,17.7777785 L39.5998919,24.4444448 L41.4910367,24.4444448 L39.8410518,17.7777785 Z M35.5066189,27.7777779 L35.8729241,26.6666669 L30.1259064,26.6666669 L30.4932858,27.7777779 L35.5066189,27.7777779 Z M28.5999927,7.14464112 L28.5999927,24.4444448 L31.8999624,24.4444448 L31.8999624,15.5555564 L34.0999423,15.5555564 L34.0999423,24.4444448 L37.3999121,24.4444448 L37.3999121,7.24012722 L32.9935071,2.69205889 L28.5999927,7.14464112 Z M26.1588529,17.7777785 L24.508868,24.4444448 L26.4000128,24.4444448 L26.4000128,17.7777785 L26.1588529,17.7777785 Z M33,13 C31.3432617,13 30,11.6567382 30,10 C30,8.34326175 31.3432617,7 33,7 C34.6567382,7 36,8.34326175 36,10 C36,11.6567382 34.6567382,13 33,13 Z M33,9 C32.4477539,9 32,9.44775388 32,10 C32,10.5522461 32.4477539,11 33,11 C33.5522461,11 34,10.5522461 34,10 C34,9.44775388 33.5522461,9 33,9 Z M34.3371582,43.6347656 C34.1234742,43.8673339 33.8191528,44 33.5,44 C33.1808472,44 32.8765258,43.8673339 32.6628418,43.6347656 C32.0509032,42.9682129 29,39.5350098 29,37.4 C29,34.9701172 31.0148926,33 33.5,33 C35.9851074,33 38,34.9701172 38,37.4 C38,39.5350098 34.9490967,42.9682129 34.3371582,43.6347656 Z M31.25,37.4 C31.25,38.082129 32.3041382,39.7310547 33.5,41.1962891 C34.6936645,39.7375 35.75,38.1009277 35.75,37.4 C35.75,36.1850585 34.7425538,35.2 33.5,35.2 C32.2574462,35.2 31.25,36.1850585 31.25,37.4 Z M47,24 L49,24 L49,26 L47,26 L47,24 Z M51,29 L53,29 L53,31 L51,31 L51,29 Z M18,24 L20,24 L20,26 L18,26 L18,24 Z M14,29 L16,29 L16,31 L14,31 L14,29 Z" id="startup-hover" fill="#FFCA13" fill-rule="nonzero"></path>
    </g>
</svg>