<svg width="71" height="71" viewBox="0 0 71 71" fill="none" xmlns="http://www.w3.org/2000/svg">
<path d="M30 31.4189C24.6928 31.4189 21.3962 34.1102 21.3962 38.4699C21.3962 38.9653 21.8017 39.367 22.3019 39.367H37.6981C38.1983 39.367 38.6038 38.9653 38.6038 38.4699C38.6038 34.1191 35.3072 31.4189 30 31.4189ZM23.271 37.5729C23.8687 33.545 28.5147 33.2131 30 33.2131C31.4853 33.2131 36.1313 33.545 36.7291 37.5729H23.271Z" fill="#FFCA13"/>
<path d="M30.0001 22C27.6242 22 25.6982 23.9077 25.6982 26.2611C25.7032 28.6124 27.6263 30.5173 30.0001 30.5222C32.376 30.5222 34.302 28.6145 34.302 26.2611C34.302 23.9077 32.376 22 30.0001 22ZM30.0001 28.728C28.6247 28.728 27.5096 27.6235 27.5096 26.2611C27.5096 24.8987 28.6247 23.7941 30.0001 23.7941C31.3756 23.7941 32.4907 24.8987 32.4907 26.2611C32.4907 27.6235 31.3756 28.728 30.0001 28.728Z" fill="#FFCA13"/>
<path d="M14.6038 52.0518C9.2966 52.0518 6 54.743 6 59.1027C6 59.5982 6.40551 59.9998 6.90566 59.9998H22.3019C22.802 59.9998 23.2075 59.5982 23.2075 59.1027C23.2075 54.7519 19.9109 52.0518 14.6038 52.0518ZM7.87472 58.2057C8.47245 54.1778 13.1094 53.8459 14.6038 53.8459C16.0981 53.8459 20.7351 54.1778 21.3328 58.2057H7.87472Z" fill="#FFCA13"/>
<path d="M14.6036 42.6328C12.2278 42.6328 10.3018 44.5405 10.3018 46.8939C10.3067 49.2452 12.2298 51.1501 14.6036 51.155C16.9795 51.155 18.9055 49.2473 18.9055 46.8939C18.9055 44.5405 16.9795 42.6328 14.6036 42.6328ZM14.6036 49.3609C13.2282 49.3609 12.1131 48.2563 12.1131 46.8939C12.1131 45.5315 13.2282 44.427 14.6036 44.427C15.9791 44.427 17.0942 45.5315 17.0942 46.8939C17.0942 48.2563 15.9791 49.3609 14.6036 49.3609Z" fill="#FFCA13"/>
<path d="M45.3963 52.0518C40.0891 52.0518 36.7925 54.743 36.7925 59.1027C36.7925 59.5982 37.198 59.9998 37.6981 59.9998H53.0944C53.5945 59.9998 54 59.5982 54 59.1027C54 54.7519 50.7034 52.0518 45.3963 52.0518ZM38.6672 58.2057C39.2649 54.1778 43.9019 53.8459 45.3963 53.8459C46.8906 53.8459 51.5276 54.1778 52.1253 58.2057H38.6672Z" fill="#FFCA13"/>
<path d="M45.3961 42.6328C43.0202 42.6328 41.0942 44.5405 41.0942 46.8939C41.0992 49.2452 43.0223 51.1501 45.3961 51.155C47.772 51.155 49.698 49.2473 49.698 46.8939C49.698 44.5405 47.772 42.6328 45.3961 42.6328ZM45.3961 49.3609C44.0207 49.3609 42.9056 48.2563 42.9056 46.8939C42.9056 45.5315 44.0207 44.427 45.3961 44.427C46.7716 44.427 47.8867 45.5315 47.8867 46.8939C47.8867 48.2563 46.7716 49.3609 45.3961 49.3609Z" fill="#FFCA13"/>
<path d="M34.6823 50.5003L30.9057 46.7416V41.4488C30.9057 40.9534 30.5002 40.5518 30 40.5518C29.4999 40.5518 29.0944 40.9534 29.0944 41.4488V46.7416L25.3178 50.4824C24.9602 50.8317 24.9561 51.402 25.3087 51.7562C25.6614 52.1104 26.2371 52.1145 26.5948 51.7652L30 48.3832L33.4053 51.7652C33.7852 52.0874 34.3569 52.0436 34.6823 51.6673C34.9727 51.3314 34.9727 50.8361 34.6823 50.5003Z" fill="#FFCA13"/>
<path d="M70 71L70 31C70 14.4315 56.5685 1 40 1L8.34742e-07 0.999999" stroke="#FFCA13" stroke-width="2"/>
</svg>
