<svg width="70" height="63" viewBox="0 0 70 63" fill="none" xmlns="http://www.w3.org/2000/svg">
<mask id="path-1-outside-1" maskUnits="userSpaceOnUse" x="11.9432" y="-0.696879" width="45.7821" height="45.7821" fill="black">
<rect fill="white" x="11.9432" y="-0.696879" width="45.7821" height="45.7821"/>
<path d="M56.7207 26.513C56.7207 20.6996 54.3262 13.0976 47.6623 10.3691V7.45639L49.6438 5.87093C49.8228 5.72757 49.927 5.51061 49.9269 5.28128V1.05337C49.9269 0.636429 49.5889 0.298385 49.172 0.298385H46.9074C46.7072 0.298385 46.5152 0.378036 46.3737 0.519595L45.3977 1.49579L44.4216 0.519595C44.2801 0.378036 44.0882 0.298385 43.8879 0.298385H40.8685C40.6682 0.298385 40.4763 0.378036 40.3348 0.519595L39.3587 1.49579L38.3827 0.519595C38.2412 0.378036 38.0492 0.298385 37.849 0.298385H35.5844C35.1675 0.298385 34.8295 0.636429 34.8295 1.05337V5.28128C34.8294 5.51061 34.9336 5.72757 35.1126 5.87093L37.0941 7.45639V10.3691C30.4302 13.0976 28.0357 20.7026 28.0357 26.513C28.0216 27.8762 28.2333 29.2324 28.6623 30.5265C28.3377 30.5083 28.0108 30.4978 27.6847 30.4978H25.7711C25.7711 30.0808 25.4332 29.7428 25.0163 29.7428H18.9774C18.5605 29.7428 18.2225 30.0808 18.2225 30.4978H12.9384V32.0077H18.2225V39.5576H12.9384V41.0676H18.2225C18.2225 41.4845 18.5605 41.8225 18.9774 41.8225H25.0163C25.4332 41.8225 25.7711 41.4845 25.7711 41.0676V40.7799L31.407 43.1203C34.4793 44.3753 37.914 44.4135 41.0134 43.2268L52.6746 38.7792C53.3654 38.5166 53.9213 37.9867 54.2168 37.3092C54.6702 36.2973 54.4779 35.1125 53.7276 34.2961C55.7595 32.228 56.8432 29.4099 56.7207 26.513ZM24.2614 40.3126H19.7322V31.2528H24.2614V40.3126ZM36.3393 4.91889V1.80835H37.5365L38.825 3.09711C39.1198 3.39184 39.5977 3.39184 39.8924 3.09711L41.181 1.80835H43.5754L44.864 3.09711C45.1587 3.39184 45.6366 3.39184 45.9314 3.09711L47.2199 1.80835H48.4171V4.91889L46.6424 6.33826H38.1125L36.3393 4.91889ZM46.1525 7.84823V10.1132H38.6039V7.84823H46.1525ZM52.8323 36.7007C52.699 37.0089 52.447 37.2504 52.1333 37.3704L40.4722 41.8172C37.7321 42.8671 34.6953 42.8344 31.9784 41.7259L25.7711 39.1446V32.0077H27.6847C30.1877 32.0107 32.6559 32.5934 34.896 33.7102C35.6356 34.0795 36.4509 34.272 37.2776 34.2727H43.1331C43.7584 34.2767 44.2621 34.787 44.258 35.4124C44.2546 35.9363 43.8924 36.3896 43.3822 36.5082C43.2833 36.5173 43.1867 36.5376 43.0863 36.5376H34.0747V38.0476H43.0863C43.1021 38.0476 43.1172 38.0476 43.1331 38.0476C43.1482 38.0476 43.1625 38.0431 43.1784 38.0431C43.7774 38.0335 44.3691 37.908 44.9206 37.6739L51.232 34.9945C51.5326 34.8661 51.8727 34.8661 52.1733 34.9945C52.486 35.1265 52.7314 35.3802 52.8527 35.6973C52.981 36.021 52.9736 36.3826 52.8323 36.7007ZM52.3824 33.4845C51.805 33.3297 51.1925 33.3719 50.6417 33.6045L45.7472 35.683C45.7614 35.591 45.7708 35.4982 45.7751 35.4052C45.7751 33.9458 44.5922 32.7627 43.1331 32.7627H37.2776C36.6852 32.7619 36.101 32.6238 35.5708 32.3596C33.9325 31.5448 32.1777 30.9891 30.369 30.7122C29.8049 29.3852 29.5243 27.9548 29.5455 26.513C29.5455 21.0771 31.7655 13.9417 38 11.6232H46.7564C52.9909 13.9417 55.2109 21.0771 55.2109 26.513C55.3377 29.1395 54.3034 31.689 52.3824 33.4845Z"/>
</mask>
<path d="M56.7207 26.513C56.7207 20.6996 54.3262 13.0976 47.6623 10.3691V7.45639L49.6438 5.87093C49.8228 5.72757 49.927 5.51061 49.9269 5.28128V1.05337C49.9269 0.636429 49.5889 0.298385 49.172 0.298385H46.9074C46.7072 0.298385 46.5152 0.378036 46.3737 0.519595L45.3977 1.49579L44.4216 0.519595C44.2801 0.378036 44.0882 0.298385 43.8879 0.298385H40.8685C40.6682 0.298385 40.4763 0.378036 40.3348 0.519595L39.3587 1.49579L38.3827 0.519595C38.2412 0.378036 38.0492 0.298385 37.849 0.298385H35.5844C35.1675 0.298385 34.8295 0.636429 34.8295 1.05337V5.28128C34.8294 5.51061 34.9336 5.72757 35.1126 5.87093L37.0941 7.45639V10.3691C30.4302 13.0976 28.0357 20.7026 28.0357 26.513C28.0216 27.8762 28.2333 29.2324 28.6623 30.5265C28.3377 30.5083 28.0108 30.4978 27.6847 30.4978H25.7711C25.7711 30.0808 25.4332 29.7428 25.0163 29.7428H18.9774C18.5605 29.7428 18.2225 30.0808 18.2225 30.4978H12.9384V32.0077H18.2225V39.5576H12.9384V41.0676H18.2225C18.2225 41.4845 18.5605 41.8225 18.9774 41.8225H25.0163C25.4332 41.8225 25.7711 41.4845 25.7711 41.0676V40.7799L31.407 43.1203C34.4793 44.3753 37.914 44.4135 41.0134 43.2268L52.6746 38.7792C53.3654 38.5166 53.9213 37.9867 54.2168 37.3092C54.6702 36.2973 54.4779 35.1125 53.7276 34.2961C55.7595 32.228 56.8432 29.4099 56.7207 26.513ZM24.2614 40.3126H19.7322V31.2528H24.2614V40.3126ZM36.3393 4.91889V1.80835H37.5365L38.825 3.09711C39.1198 3.39184 39.5977 3.39184 39.8924 3.09711L41.181 1.80835H43.5754L44.864 3.09711C45.1587 3.39184 45.6366 3.39184 45.9314 3.09711L47.2199 1.80835H48.4171V4.91889L46.6424 6.33826H38.1125L36.3393 4.91889ZM46.1525 7.84823V10.1132H38.6039V7.84823H46.1525ZM52.8323 36.7007C52.699 37.0089 52.447 37.2504 52.1333 37.3704L40.4722 41.8172C37.7321 42.8671 34.6953 42.8344 31.9784 41.7259L25.7711 39.1446V32.0077H27.6847C30.1877 32.0107 32.6559 32.5934 34.896 33.7102C35.6356 34.0795 36.4509 34.272 37.2776 34.2727H43.1331C43.7584 34.2767 44.2621 34.787 44.258 35.4124C44.2546 35.9363 43.8924 36.3896 43.3822 36.5082C43.2833 36.5173 43.1867 36.5376 43.0863 36.5376H34.0747V38.0476H43.0863C43.1021 38.0476 43.1172 38.0476 43.1331 38.0476C43.1482 38.0476 43.1625 38.0431 43.1784 38.0431C43.7774 38.0335 44.3691 37.908 44.9206 37.6739L51.232 34.9945C51.5326 34.8661 51.8727 34.8661 52.1733 34.9945C52.486 35.1265 52.7314 35.3802 52.8527 35.6973C52.981 36.021 52.9736 36.3826 52.8323 36.7007ZM52.3824 33.4845C51.805 33.3297 51.1925 33.3719 50.6417 33.6045L45.7472 35.683C45.7614 35.591 45.7708 35.4982 45.7751 35.4052C45.7751 33.9458 44.5922 32.7627 43.1331 32.7627H37.2776C36.6852 32.7619 36.101 32.6238 35.5708 32.3596C33.9325 31.5448 32.1777 30.9891 30.369 30.7122C29.8049 29.3852 29.5243 27.9548 29.5455 26.513C29.5455 21.0771 31.7655 13.9417 38 11.6232H46.7564C52.9909 13.9417 55.2109 21.0771 55.2109 26.513C55.3377 29.1395 54.3034 31.689 52.3824 33.4845Z" fill="#FFCA13"/>
<path d="M56.7207 26.513C56.7207 20.6996 54.3262 13.0976 47.6623 10.3691V7.45639L49.6438 5.87093C49.8228 5.72757 49.927 5.51061 49.9269 5.28128V1.05337C49.9269 0.636429 49.5889 0.298385 49.172 0.298385H46.9074C46.7072 0.298385 46.5152 0.378036 46.3737 0.519595L45.3977 1.49579L44.4216 0.519595C44.2801 0.378036 44.0882 0.298385 43.8879 0.298385H40.8685C40.6682 0.298385 40.4763 0.378036 40.3348 0.519595L39.3587 1.49579L38.3827 0.519595C38.2412 0.378036 38.0492 0.298385 37.849 0.298385H35.5844C35.1675 0.298385 34.8295 0.636429 34.8295 1.05337V5.28128C34.8294 5.51061 34.9336 5.72757 35.1126 5.87093L37.0941 7.45639V10.3691C30.4302 13.0976 28.0357 20.7026 28.0357 26.513C28.0216 27.8762 28.2333 29.2324 28.6623 30.5265C28.3377 30.5083 28.0108 30.4978 27.6847 30.4978H25.7711C25.7711 30.0808 25.4332 29.7428 25.0163 29.7428H18.9774C18.5605 29.7428 18.2225 30.0808 18.2225 30.4978H12.9384V32.0077H18.2225V39.5576H12.9384V41.0676H18.2225C18.2225 41.4845 18.5605 41.8225 18.9774 41.8225H25.0163C25.4332 41.8225 25.7711 41.4845 25.7711 41.0676V40.7799L31.407 43.1203C34.4793 44.3753 37.914 44.4135 41.0134 43.2268L52.6746 38.7792C53.3654 38.5166 53.9213 37.9867 54.2168 37.3092C54.6702 36.2973 54.4779 35.1125 53.7276 34.2961C55.7595 32.228 56.8432 29.4099 56.7207 26.513ZM24.2614 40.3126H19.7322V31.2528H24.2614V40.3126ZM36.3393 4.91889V1.80835H37.5365L38.825 3.09711C39.1198 3.39184 39.5977 3.39184 39.8924 3.09711L41.181 1.80835H43.5754L44.864 3.09711C45.1587 3.39184 45.6366 3.39184 45.9314 3.09711L47.2199 1.80835H48.4171V4.91889L46.6424 6.33826H38.1125L36.3393 4.91889ZM46.1525 7.84823V10.1132H38.6039V7.84823H46.1525ZM52.8323 36.7007C52.699 37.0089 52.447 37.2504 52.1333 37.3704L40.4722 41.8172C37.7321 42.8671 34.6953 42.8344 31.9784 41.7259L25.7711 39.1446V32.0077H27.6847C30.1877 32.0107 32.6559 32.5934 34.896 33.7102C35.6356 34.0795 36.4509 34.272 37.2776 34.2727H43.1331C43.7584 34.2767 44.2621 34.787 44.258 35.4124C44.2546 35.9363 43.8924 36.3896 43.3822 36.5082C43.2833 36.5173 43.1867 36.5376 43.0863 36.5376H34.0747V38.0476H43.0863C43.1021 38.0476 43.1172 38.0476 43.1331 38.0476C43.1482 38.0476 43.1625 38.0431 43.1784 38.0431C43.7774 38.0335 44.3691 37.908 44.9206 37.6739L51.232 34.9945C51.5326 34.8661 51.8727 34.8661 52.1733 34.9945C52.486 35.1265 52.7314 35.3802 52.8527 35.6973C52.981 36.021 52.9736 36.3826 52.8323 36.7007ZM52.3824 33.4845C51.805 33.3297 51.1925 33.3719 50.6417 33.6045L45.7472 35.683C45.7614 35.591 45.7708 35.4982 45.7751 35.4052C45.7751 33.9458 44.5922 32.7627 43.1331 32.7627H37.2776C36.6852 32.7619 36.101 32.6238 35.5708 32.3596C33.9325 31.5448 32.1777 30.9891 30.369 30.7122C29.8049 29.3852 29.5243 27.9548 29.5455 26.513C29.5455 21.0771 31.7655 13.9417 38 11.6232H46.7564C52.9909 13.9417 55.2109 21.0771 55.2109 26.513C55.3377 29.1395 54.3034 31.689 52.3824 33.4845Z" stroke="#FFCA13" stroke-width="0.6" mask="url(#path-1-outside-1)"/>
<path d="M22.9022 37.2923V37.143H22.7529H21.2431H21.0939V37.2923V38.8022V38.9515H21.2431H22.7529H22.9022V38.8022V37.2923Z" fill="#FFCA13" stroke="#FFCA13" stroke-width="0.3"/>
<path d="M43.2817 18.269H43.3264H43.3266C44.5523 18.2703 45.5454 19.264 45.5463 20.4898V20.49V20.9852V21.1345H45.397H43.8873H43.738V20.9852V20.49C43.738 20.2624 43.5538 20.0779 43.3264 20.0775C43.3264 20.0775 43.3264 20.0775 43.3264 20.0775C43.3263 20.0775 43.3263 20.0775 43.3262 20.0775L41.4287 20.0775H41.4282C41.2497 20.077 41.0913 20.1914 41.0357 20.3609M43.2817 18.269L45.5477 23.8987C45.5484 22.9418 44.9359 22.0921 44.028 21.7903L41.2992 20.8806L41.2986 20.8804C41.0826 20.8095 40.9649 20.5769 41.0357 20.3609M43.2817 18.269V16.9083V16.759H43.1324H41.6227H41.4734V16.9083V18.269H41.4288H41.4287V18.4183M43.2817 18.269L43.503 23.3642L40.7742 22.4544M41.0357 20.3609L40.8938 20.3144M41.0357 20.3609L40.8938 20.3144M40.8938 20.3144C40.7973 20.6088 40.9577 20.9257 41.252 21.0222L43.3264 19.9282H41.4287C41.1855 19.9275 40.9696 20.0834 40.8938 20.3144ZM41.4287 18.4183C40.2851 18.4175 39.3574 19.3441 39.3567 20.4878C39.3561 21.3804 39.9273 22.1729 40.7742 22.4544M41.4287 18.4183H41.4734H41.4287ZM40.7742 22.4544L40.727 22.596L40.7271 22.5961M40.7742 22.4544L40.7271 22.5961M40.7271 22.5961L43.4558 23.5058L43.4565 23.506C43.6725 23.5769 43.7902 23.8095 43.7194 24.0255M40.7271 22.5961L43.7194 24.0255M41.4734 26.1174H41.4287H41.4285C40.2028 26.1161 39.2097 25.1224 39.2088 23.8966L39.2088 23.8964L39.2088 23.4012V23.2519H39.3581H40.8678H41.0171V23.4012V23.8964C41.0171 24.124 41.2014 24.3086 41.4288 24.3089H43.3264H43.3269C43.5053 24.3094 43.6638 24.195 43.7194 24.0255C43.7194 24.0255 43.7194 24.0255 43.7194 24.0255M41.4734 26.1174L43.7194 24.0255M41.4734 26.1174V27.4781V27.6274H41.6227H43.1324H43.2817V27.4781V26.1174H43.3263H43.3264V25.9681L41.4734 26.1174Z" fill="#FFCA13" stroke="#FFCA13" stroke-width="0.3"/>
<path d="M33.9259 22.1928L33.9259 22.193C33.9313 26.8597 37.7125 30.6415 42.3785 30.647H42.3787C47.047 30.647 50.8315 26.8619 50.8315 22.1928C50.8315 17.5238 47.047 13.7387 42.3787 13.7387C37.7103 13.7387 33.9259 17.5238 33.9259 22.1928ZM42.3787 28.8384C38.7091 28.8384 35.7342 25.8631 35.7342 22.1929C35.7383 18.5243 38.7108 15.5514 42.3787 15.5473C46.0484 15.5473 49.0232 18.5225 49.0232 22.1928C49.0232 25.8632 46.0484 28.8384 42.3787 28.8384Z" fill="#FFCA13" stroke="#FFCA13" stroke-width="0.3"/>
<path d="M0 62.0047L69.6685 62.0047" stroke="#FFCA13" stroke-width="2"/>
</svg>
