<svg width="71" height="70" viewBox="0 0 71 70" fill="none" xmlns="http://www.w3.org/2000/svg">
<path d="M45.7389 36.8002V22.6974C45.7389 22.2247 45.3332 21.9061 44.853 21.9061H41.6151C41.1369 21.9061 40.7041 22.223 40.7041 22.6974V35.3989C40.2024 35.4165 39.7008 35.4761 39.213 35.5844V26.862C39.213 26.3895 38.7907 26.0548 38.3104 26.0548H35.0725C34.5918 26.0548 34.1782 26.3818 34.1782 26.862V38.7572C33.1826 40.0954 32.6471 41.7042 32.6555 43.3532M32.6555 43.3532C32.6555 43.3532 32.6555 43.3531 32.6555 43.3531H32.7048L32.6555 43.3533C32.6555 43.3533 32.6555 43.3532 32.6555 43.3532ZM34.4357 43.3531C34.4357 40.823 36.035 38.5362 38.4908 37.5688C38.5954 37.5513 38.6901 37.5101 38.7744 37.4623C39.4872 37.2099 40.2499 37.0836 41.0127 37.0836C41.1869 37.0836 41.3527 37.0915 41.527 37.1073L41.527 37.1075H41.5315H41.5381C42.5342 37.179 43.5052 37.472 44.3599 37.9626L44.3602 37.9628C47.4825 39.7287 48.5105 43.5672 46.6601 46.5423C45.4731 48.4499 43.3224 49.6146 41.0044 49.6146C37.3732 49.6146 34.4357 46.8022 34.4357 43.3531Z" fill="#FFCA13" stroke="#FFCA13" stroke-width="0.1"/>
<path d="M43.7979 41.6948L43.798 41.6948V41.6939C43.798 40.6142 43.1122 39.6399 42.0661 39.2346V38.6063C42.0661 38.1381 41.6653 37.7592 41.1801 37.7592C40.695 37.7592 40.2942 38.1381 40.2942 38.6063V39.1424C38.836 39.5225 37.9572 40.956 38.3381 42.3608C38.6454 43.5328 39.7454 44.3441 41.0044 44.3441C41.5562 44.3441 42.001 44.7785 42.001 45.3001C42.001 45.8207 41.5489 46.2481 40.9961 46.2481C40.4443 46.2481 39.9995 45.8137 39.9995 45.2921C39.9995 44.8239 39.5987 44.445 39.1136 44.445C38.6288 44.445 38.2357 44.8157 38.2444 45.2846L38.2444 45.2921L38.2444 45.2925C38.2528 46.4845 39.0886 47.531 40.2858 47.8436V48.1643C40.2858 48.6325 40.6866 49.0114 41.1718 49.0114C41.6569 49.0114 42.0577 48.6325 42.0577 48.1643V47.7594C43.4662 47.2129 44.1526 45.6894 43.6019 44.34L43.6018 44.3399C43.1838 43.3231 42.1527 42.6579 41.0128 42.6579C40.4521 42.6579 40.0079 42.231 40.0079 41.7019C40.0079 41.1725 40.4442 40.7458 41.0048 40.738C41.565 40.7381 42.0093 41.1727 42.0093 41.6939C42.0093 42.1621 42.4101 42.541 42.8953 42.541C43.3884 42.541 43.789 42.1707 43.7979 41.6948Z" fill="#FFCA13" stroke="#FFCA13" stroke-width="0.1"/>
<path d="M25.1918 32.4373H21.9289C21.4437 32.4373 21.0429 32.8162 21.0429 33.2844V45.8103C21.0429 46.2785 21.4437 46.6574 21.9289 46.6574H25.1918C25.677 46.6574 26.0778 46.2785 26.0778 45.8103V33.2844C26.0778 32.8162 25.677 32.4373 25.1918 32.4373ZM24.3059 45.0429H22.8148V34.1315H24.3059V45.0429Z" fill="#FFCA13" stroke="#FFCA13" stroke-width="0.1"/>
<path d="M31.8013 30.6027H28.5383C28.0532 30.6027 27.6524 30.9816 27.6524 31.4498V45.8904C27.6524 46.3586 28.0532 46.7375 28.5383 46.7375H31.8013C32.2864 46.7375 32.6872 46.3586 32.6872 45.8904V31.4498C32.6872 30.9816 32.2864 30.6027 31.8013 30.6027ZM30.9153 45.0433H29.4243V32.2969H30.9153V45.0433Z" fill="#FFCA13" stroke="#FFCA13" stroke-width="0.1"/>
<path d="M18.5822 39.2987H15.3192C14.8341 39.2987 14.4333 39.6777 14.4333 40.1459V45.8104C14.4333 46.2786 14.8341 46.6576 15.3192 46.6576H18.5822C19.0673 46.6576 19.4681 46.2786 19.4681 45.8104V40.1459C19.4681 39.6777 19.0673 39.2987 18.5822 39.2987ZM17.6962 45.0431H16.2052V40.993H17.6962V45.0431Z" fill="#FFCA13" stroke="#FFCA13" stroke-width="0.1"/>
<path d="M45.5642 11.7817L45.5643 11.7817C46.0501 11.7817 46.4503 12.1692 46.4503 12.6368V12.6369L46.4419 18.1099L45.5642 11.7817ZM45.5642 11.7817L39.842 11.7897C39.356 11.7815 38.9562 12.1609 38.9473 12.6279C38.9383 13.0971 39.3399 13.4755 39.824 13.4839H39.8249M45.5642 11.7817L39.8249 13.4839M39.8249 13.4839H39.8249H39.825H39.825H39.8251H39.8251H39.8252H39.8252H39.8253H39.8253H39.8253H39.8254H39.8254H39.8255H39.8255H39.8256H39.8256H39.8257H39.8257H39.8258H39.8258H39.8259H39.8259H39.8259H39.826H39.826H39.8261H39.8261H39.8262H39.8262H39.8263H39.8263H39.8263H39.8264H39.8264H39.8265H39.8265H39.8266H39.8266H39.8266H39.8267H39.8267H39.8268H39.8268H39.8268H39.8269H39.8269H39.827H39.827H39.8271H39.8271H39.8271H39.8272H39.8272H39.8273H39.8273H39.8273H39.8274H39.8274H39.8275H39.8275H39.8275H39.8276H39.8276H39.8276H39.8277H39.8277H39.8278H39.8278H39.8278H39.8279H39.8279H39.8279H39.828H39.828H39.8281H39.8281H39.8281H39.8282H39.8282H39.8282H39.8283H39.8283H39.8283H39.8284H39.8284H39.8285H39.8285H39.8285H39.8286H39.8286H39.8286H39.8287H39.8287H39.8287H39.8288H39.8288H39.8288H39.8289H39.8289H39.8289H39.829H39.829H39.829H39.8291H39.8291H39.8291H39.8292H39.8292H39.8292H39.8293H39.8293H39.8293H39.8294H39.8294H39.8294H39.8295H39.8295H39.8295H39.8296H39.8296H39.8296H39.8296H39.8297H39.8297H39.8297H39.8298H39.8298H39.8298H39.8299H39.8299H39.8299H39.83H39.83H39.83H39.83H39.8301H39.8301H39.8301H39.8302H39.8302H39.8302H39.8303H39.8303H39.8303H39.8303H39.8304H39.8304H39.8304H39.8305H39.8305H39.8305H39.8305H39.8306H39.8306H39.8306H39.8307H39.8307H39.8307H39.8307H39.8308H39.8308H39.8308H39.8309H39.8309H39.8309H39.8309H39.831H39.831H39.831H39.831H39.8311H39.8311H39.8311H39.8312H39.8312H39.8312H39.8312H39.8313H39.8313H39.8313H39.8313H39.8314H39.8314H39.8314H39.8314H39.8315H39.8315H39.8315H39.8316H39.8316H39.8316H39.8316H39.8317H39.8317H39.8317H39.8317H39.8318H39.8318H39.8318H39.8318H39.8319H39.8319H39.8319H39.8319H39.832H39.832H39.832H39.832H39.8321H39.8321H39.8321H39.8321H39.8322H39.8322H39.8322H39.8322H39.8323H39.8323H39.8323H39.8323H39.8324H39.8324H39.8324H39.8324H39.8325H39.8325H39.8325H39.8325H39.8326H39.8326H39.8326H39.8326H39.8327H39.8327H39.8327H39.8327H39.8328H39.8328H39.8328H39.8328H39.8329H39.8329H39.8329H39.8329H39.833H39.833H39.833H39.833H39.8331H39.8331H39.8331H39.8331H39.8332H39.8332H39.8332H39.8332H39.8333H39.8333H39.8333H39.8333H39.8334H39.8334H39.8334H39.8334H39.8335H39.8335H39.8335H39.8335H39.8336H39.8336H39.8336H39.8336H39.8337H39.8337H39.8337H39.8337H39.8337H39.8338H39.8338H39.8338H39.8338H39.8339H39.8339H39.8339H39.8339H39.834H39.834H39.834H39.834H39.8341H39.8341H39.8341H39.8341H39.8342H39.8342H39.8342H39.8342H39.8343H39.8343H39.8343H39.8343H39.8344H39.8344H39.8344H39.8344H39.8345H39.8345H39.8345H39.8346H39.8346H39.8346H39.8346H39.8347H39.8347H39.8347H39.8347H39.8348H39.8348H39.8348H39.8348H39.8349H39.8349H39.8349H39.8349H39.835H39.835H39.835H39.835H39.8351H39.8351H39.8351H39.8352H39.8352H39.8352H39.8352H39.8353H39.8353H39.8353H39.8353H39.8354H39.8354H39.8354H39.8354H39.8355H39.8355H39.8355H39.8356H39.8356H39.8356H39.8356H39.8357H39.8357H39.8357H39.8358H39.8358H39.8358H39.8358H39.8359H39.8359H39.8359H39.836H39.836H39.836H39.836H39.8361H39.8361H39.8361H39.8362H39.8362H39.8362H39.8362H39.8363H39.8363H39.8363H39.8364H39.8364H39.8364H39.8365H39.8365H39.8365H39.8365H39.8366H39.8366H39.8366H39.8367H39.8367H39.8367H39.8368H39.8368H39.8368H39.8368H39.8369H39.8369H39.8369H39.837H39.837H39.837H39.8371H39.8371H39.8371H39.8372H39.8372H39.8372H39.8373H39.8373H39.8373H39.8374H39.8374H39.8374H39.8375H39.8375H39.8375H39.8376H39.8376H39.8376H39.8377H39.8377H39.8377H39.8378H39.8378H39.8378H39.8379H39.8379H39.8379H39.838H39.838H39.838H39.8381H39.8381H39.8382H39.8382H39.8382H39.8383H39.8383H39.8383H39.8384H39.8384H39.8384H39.8385H39.8385H39.8386H39.8386H39.8386H39.8387H39.8387H39.8387H39.8388H39.8388H39.8389H39.8389H39.8389H39.839H39.839H39.8391H39.8391H39.8391H39.8392H39.8392H39.8393H39.8393H39.8393H39.8394H39.8394H39.8395H39.8395H39.8395H39.8396H39.8396H39.8397H39.8397H39.8397H39.8398H39.8398H39.8399H39.8399H39.84H39.84H39.84H39.8401H39.8401H39.8402H39.8402H39.8403H39.8403H39.8403H39.8404H39.8404H39.8405H39.8405H39.8406H39.8406H39.8407H39.8407H39.8407H39.8408H39.8408H39.8409H39.8409H39.841H39.841H39.8411H39.8411H39.8412H39.8412H39.8413H39.8413H39.8414H39.8414H39.8415H39.8415H39.8416L39.8416 13.4839L39.8417 13.4839M39.8249 13.4839L39.8417 13.4839M39.8417 13.4839L43.4242 13.4762L34.4702 21.9832L31.3332 19.0155L31.3324 19.0147M39.8417 13.4839L31.3324 19.0147M31.3324 19.0147C31.1635 18.8621 30.9338 18.7866 30.7053 18.7945C30.4768 18.7866 30.2472 18.8621 30.0783 19.0147L30.0783 19.0147L30.0773 19.0156M31.3324 19.0147L30.0773 19.0156M30.0773 19.0156L14.0135 34.3339C13.6672 34.6641 13.6664 35.1995 14.0138 35.5224C14.1824 35.6831 14.4039 35.7672 14.6416 35.7672C14.8793 35.7672 15.1009 35.6831 15.2696 35.5222L30.7136 20.795L33.8496 23.8091C34.0102 23.9788 34.2403 24.0706 34.4769 24.079L34.4769 24.0791M30.0773 19.0156L34.4769 24.0791M34.4769 24.0791L34.4804 24.079C34.7193 24.0706 34.9397 23.9694 35.1067 23.8101L35.1067 23.8101L44.6781 14.675M34.4769 24.0791L44.6781 14.675M44.6781 14.675L44.67 18.1098V18.1099C44.67 18.5857 45.0617 18.9641 45.5543 18.9809L45.5543 18.981L45.5568 18.9809C46.0508 18.9725 46.4419 18.585 46.4419 18.1099L44.6781 14.675Z" fill="#FFCA13" stroke="#FFCA13" stroke-width="0.1"/>
<path d="M0 69.0141L39.4366 69.0141C55.7718 69.0141 69.0141 55.7718 69.0141 39.4366L69.0141 1.20668e-05" stroke="#FFCA13" stroke-width="2"/>
</svg>
