<svg width="70" height="65" viewBox="0 0 70 65" fill="none" xmlns="http://www.w3.org/2000/svg">
<path d="M39.6303 57.666C38.1834 57.666 37.0063 58.8173 37.0063 60.2327C37.0063 61.648 38.1834 62.7993 39.6303 62.7993C41.0771 62.7993 42.2542 61.648 42.2542 60.2327C42.2542 58.8173 41.0764 57.666 39.6303 57.666ZM39.6303 61.3326C39.0103 61.3326 38.5057 60.8391 38.5057 60.2327C38.5057 59.6262 39.0103 59.1327 39.6303 59.1327C40.2502 59.1327 40.7548 59.6262 40.7548 60.2327C40.7548 60.8391 40.2502 61.3326 39.6303 61.3326Z" fill="#FFCA13"/>
<path d="M43.0039 48.1327C44.6577 48.1327 46.0026 46.8171 46.0026 45.1994C46.0026 43.5817 44.6577 42.2661 43.0039 42.2661C41.3501 42.2661 40.0051 43.5817 40.0051 45.1994C40.0051 46.8171 41.3493 48.1327 43.0039 48.1327ZM43.0039 43.7328C43.8308 43.7328 44.5033 44.3906 44.5033 45.1994C44.5033 46.0083 43.8308 46.6661 43.0039 46.6661C42.177 46.6661 41.5045 46.0083 41.5045 45.1994C41.5045 44.3906 42.177 43.7328 43.0039 43.7328Z" fill="#FFCA13"/>
<path d="M25.0111 29.7997C25.203 29.7997 25.3949 29.7278 25.5411 29.5848L27.0405 28.1182C27.3336 27.8314 27.3336 27.368 27.0405 27.0813C26.7474 26.7945 26.2736 26.7945 25.9805 27.0813L24.4811 28.5479C24.1879 28.8346 24.1879 29.2981 24.4811 29.5848C24.6273 29.7278 24.8192 29.7997 25.0111 29.7997Z" fill="#FFCA13"/>
<path d="M52 42.8147C52 42.1694 51.7429 41.563 51.2766 41.1068L50.859 40.6984C51.5704 40.0824 51.9993 39.1914 51.9993 38.2329C51.9993 36.4136 50.4856 34.933 48.6257 34.933C48.4892 34.933 48.3543 34.9462 48.2208 34.9623C48.2373 34.831 48.2508 34.7005 48.2508 34.5663C48.2508 32.7469 46.7372 31.2664 44.8772 31.2664C44.7408 31.2664 44.6058 31.2796 44.4724 31.2957C44.4889 31.1644 44.5024 31.0339 44.5024 30.8997C44.5024 29.0803 42.9888 27.5997 41.1288 27.5997C40.9923 27.5997 40.8574 27.6129 40.724 27.6291C40.7404 27.4978 40.7539 27.3673 40.7539 27.2331C40.7539 25.4137 39.2403 23.9331 37.3804 23.9331C36.3998 23.9331 35.4896 24.3533 34.8599 25.0485L34.2647 24.4662L31.4436 21.7067C30.4802 20.7644 28.9134 20.7644 27.9515 21.7067L18.7214 30.7354C17.7595 31.6777 17.7595 33.2097 18.7214 34.152L21.5425 36.9115L25.2234 40.5121C24.2068 41.0812 23.5119 42.1408 23.5119 43.3662C23.5119 44.5124 24.1139 45.5229 25.024 46.1147C25.0697 46.1741 25.123 46.2328 25.1942 46.2922L33.2578 54.1497V55.4668H31.7584V65H45.2528H51.2503V55.4668H49.7509V53.2448C51.1851 52.0561 52 50.3467 52 48.4995C52 47.2235 51.5929 45.9842 50.8485 44.9414L51.2766 44.5227C51.7429 44.0665 52 43.4601 52 42.8147ZM50.5006 38.2329C50.5006 38.7961 50.2352 39.3175 49.7982 39.6607L47.166 37.086C47.5169 36.6585 48.0506 36.3989 48.6257 36.3989C49.6595 36.3996 50.5006 37.2217 50.5006 38.2329ZM46.7522 34.5663C46.7522 35.1295 46.4868 35.6509 46.0497 35.9941L43.4176 33.4194C43.7684 32.9919 44.3022 32.7323 44.8772 32.7323C45.911 32.733 46.7522 33.5551 46.7522 34.5663ZM43.0038 30.8997C43.0038 31.4629 42.7384 31.9843 42.3013 32.3275L39.6691 29.7528C40.02 29.3252 40.5538 29.0656 41.1288 29.0656C42.1626 29.0664 43.0038 29.8884 43.0038 30.8997ZM37.3811 25.3998C38.4149 25.3998 39.2553 26.2218 39.2553 27.2331C39.2553 27.7963 38.9899 28.3177 38.5529 28.6609L35.9207 26.0862C36.2716 25.6594 36.8053 25.3998 37.3811 25.3998ZM19.7814 33.1158C19.4036 32.7455 19.4036 32.1434 19.7814 31.7731L29.0116 22.7444C29.1053 22.6527 29.2148 22.5838 29.331 22.5376C29.3834 22.5163 29.4427 22.5171 29.4981 22.5053C29.6316 22.4775 29.7635 22.4775 29.897 22.5053C29.9525 22.5171 30.0117 22.5163 30.0642 22.5376C30.1804 22.5838 30.2891 22.6527 30.3835 22.7444L32.1445 24.467L21.5425 34.8376L19.7814 33.1158ZM33.2046 25.5039L34.0877 26.3677L37.8362 30.0344L38.2657 30.4546L41.5846 33.701L42.0142 34.1212L45.333 37.3676L45.7626 37.7878L49.511 41.4544L50.2157 42.1438C50.5943 42.5141 50.5943 43.1154 50.2157 43.4857L49.8881 43.8069L40.9863 52.5152C40.6093 52.8848 39.9923 52.8862 39.6137 52.5152L33.6349 46.6662H34.3816C36.2416 46.6662 37.7552 45.1856 37.7552 43.3662C37.7552 41.5468 36.2416 40.0662 34.3816 40.0662H26.887L22.6018 35.8746L33.2046 25.5039ZM26.4806 41.5784L26.7918 41.5439C26.8225 41.5395 26.8532 41.5329 26.8847 41.5329H34.3816C35.4154 41.5329 36.2558 42.3549 36.2558 43.3662C36.2558 44.3775 35.4154 45.1995 34.3816 45.1995H32.1355H30.0154H26.8847C25.8509 45.1995 25.0105 44.3775 25.0105 43.3662C25.0113 42.4913 25.6417 41.7602 26.4806 41.5784ZM33.2578 63.5326V56.9327H39.5747C41.8785 56.9327 43.7534 58.7667 43.7534 61.0203V63.5326H33.2578ZM49.7509 63.5326H45.2528V61.0203C45.2528 59.4025 44.5376 57.9491 43.4056 56.9327H49.7509V63.5326ZM49.7697 45.9974C50.245 46.7461 50.5006 47.6122 50.5006 48.4995C50.5006 50.0065 49.7899 51.3932 48.5499 52.3062L48.2516 52.5262V55.4661H39.5739H34.7564V53.4729L34.4918 53.2536C34.4581 53.225 34.4221 53.1986 34.3569 53.1509L27.7019 46.6654H31.514L38.5529 53.5513C39.0349 54.0221 39.6669 54.2575 40.2989 54.2575C40.9316 54.2575 41.5644 54.0221 42.0457 53.5513L49.7697 45.9974Z" fill="#FFCA13"/>
<path d="M70 1H0" stroke="#FFCA13" stroke-width="2"/>
</svg>
