<svg width="19" height="20" viewBox="0 0 19 20" fill="none" xmlns="http://www.w3.org/2000/svg">
<path d="M11.806 17.1278H1.8447V13.9449C1.84692 12.3946 3.08432 11.1387 4.61172 11.1364H8.23836H8.42283C11.4526 11.1492 13.9192 8.66688 13.9318 5.59147C13.9443 2.51602 11.4986 0.0131592 8.46859 5.16569e-05C5.43853 -0.0130559 2.97254 2.46995 2.95963 5.54502C2.9541 6.91518 3.44625 8.23926 4.34241 9.26413C1.90188 9.41095 -0.00222464 11.4637 1.95076e-06 13.9449V18.0639C1.95076e-06 18.5811 0.412849 19.0001 0.922331 19.0001H11.806C12.3155 19.0001 12.7283 18.581 12.7283 18.0639C12.7283 17.5468 12.3155 17.1278 11.806 17.1278ZM8.42283 1.92475C10.421 1.98279 11.9945 3.67347 11.9373 5.70152C11.8838 7.60754 10.4018 9.15517 8.52614 9.26413H8.23836C6.24351 9.13683 4.72791 7.39221 4.85334 5.36751C4.97217 3.44842 6.5287 1.94723 8.42283 1.92475Z" fill="#708090"/>
<path d="M18.0777 14.881H12.5436C12.0341 14.881 11.6213 14.462 11.6213 13.9449C11.6213 13.4278 12.0341 13.0087 12.5436 13.0087H18.0777C18.5872 13.0087 19 13.4278 19 13.9449C19 14.462 18.5872 14.881 18.0777 14.881Z" fill="#708090"/>
<path d="M15.3106 17.6894C14.8011 17.6894 14.3883 17.2704 14.3883 16.7533V11.1364C14.3883 10.6192 14.8011 10.2002 15.3106 10.2002C15.8201 10.2002 16.2329 10.6193 16.2329 11.1364V16.7532C16.2329 17.2704 15.8201 17.6894 15.3106 17.6894Z" fill="#708090"/>
</svg>
