<svg width="71" height="71" viewBox="0 0 71 71" fill="none" xmlns="http://www.w3.org/2000/svg">
<path fill-rule="evenodd" clip-rule="evenodd" d="M22.7974 21H49.2024C50.1953 21 51 21.8208 51 22.8335V58.2715C51 59.2842 50.1953 60.105 49.2024 60.105H32.7107V64.0835C32.7107 64.3511 32.5955 64.606 32.396 64.7803C32.0188 65.1089 31.4514 65.064 31.1289 64.6792L29.1516 62.3325L27.1743 64.6792C27.0659 64.8086 26.9258 64.9028 26.7705 64.9546C26.6814 64.9844 26.5872 65 26.4912 65C26.2607 65 26.0505 64.9116 25.8916 64.7661C25.8003 64.6826 25.7256 64.5801 25.6738 64.4648C25.6216 64.3491 25.5925 64.2197 25.5925 64.0835V60.105H22.7974C21.8047 60.105 21 59.2842 21 58.2715V22.8335C21 21.8208 21.8047 21 22.7974 21ZM28.5676 60.1963C28.9448 59.8672 29.512 59.9126 29.8347 60.2974L30.9131 61.5806V58.0972C29.7778 58.5332 28.5256 58.5332 27.3901 58.0972V61.5806L28.4685 60.2974C28.4812 60.2822 28.4941 60.2676 28.5078 60.2534C28.5269 60.2334 28.5469 60.2144 28.5676 60.1963ZM32.4141 53.2207C32.4143 55.0645 30.9592 56.5649 29.1516 56.585H29.1157C27.2942 56.585 25.8174 55.0786 25.8174 53.2207C25.8174 51.3628 27.2942 49.8564 29.1157 49.8564C30.9375 49.8564 32.4141 51.3628 32.4141 53.2207ZM32.7104 58.2627H49.1575L49.2024 22.8335H22.7974V58.2627H25.5925V56.9336L25.5044 56.8438C23.5388 54.7891 23.5784 51.4985 25.5925 49.4937C27.6067 47.4893 30.833 47.5293 32.7986 49.5835C34.7642 51.6382 34.7246 54.9287 32.7104 56.9336V58.2627Z" fill="#FFCA13"/>
<path d="M43.8099 28.251H28.1898C27.6934 28.251 27.291 28.6614 27.291 29.1676C27.291 29.6739 27.6934 30.0843 28.1898 30.0843H43.8099C44.3062 30.0843 44.7086 29.6739 44.7086 29.1676C44.7086 28.6614 44.3063 28.251 43.8099 28.251Z" fill="#FFCA13"/>
<path d="M43.8099 33.522H28.1898C27.6934 33.522 27.291 33.9324 27.291 34.4386C27.291 34.9449 27.6934 35.3553 28.1898 35.3553H43.8099C44.3062 35.3553 44.7086 34.9449 44.7086 34.4386C44.7086 33.9324 44.3063 33.522 43.8099 33.522Z" fill="#FFCA13"/>
<path d="M43.8099 38.793H28.1898C27.6934 38.793 27.291 39.2034 27.291 39.7096C27.291 40.2159 27.6934 40.6263 28.1898 40.6263H43.8099C44.3062 40.6263 44.7086 40.2159 44.7086 39.7096C44.7086 39.2034 44.3063 38.793 43.8099 38.793Z" fill="#FFCA13"/>
<path d="M43.8099 44.063H28.1898C27.6934 44.063 27.291 44.4734 27.291 44.9797C27.291 45.4859 27.6934 45.8963 28.1898 45.8963H43.8099C44.3062 45.8963 44.7086 45.4859 44.7086 44.9797C44.7086 44.4734 44.3063 44.063 43.8099 44.063Z" fill="#FFCA13"/>
<path d="M43.8101 49.334H36.6741C36.1778 49.334 35.7754 49.7444 35.7754 50.2507C35.7754 50.7569 36.1778 51.1673 36.6741 51.1673H43.8101C44.3065 51.1673 44.7089 50.7569 44.7089 50.2507C44.7089 49.7444 44.3066 49.334 43.8101 49.334Z" fill="#FFCA13"/>
<path d="M71 1H31C14.4315 1 1 14.4315 1 31V71" stroke="#FFCA13" stroke-width="2"/>
</svg>
