<?xml version="1.0" encoding="UTF-8"?>
<svg width="64px" height="51px" viewBox="0 0 64 51" version="1.1" xmlns="http://www.w3.org/2000/svg" xmlns:xlink="http://www.w3.org/1999/xlink">
    <!-- Generator: Sketch 54 (76480) - https://sketchapp.com -->
    <title>trading</title>
    <desc>Created with Sketch.</desc>
    <g id="Page-1" stroke="none" stroke-width="1" fill="none" fill-rule="evenodd">
        <path d="M60,49 L60,46 L62,46 L62,49 L63,49 C63.5522847,49 64,49.4477153 64,50 C64,50.5522847 63.5522847,51 63,51 L1,51 C0.44771525,51 6.76353751e-17,50.5522847 0,50 L0,2 C-6.76353751e-17,1.44771525 0.44771525,1 1,1 C1.55228475,1 2,1.44771525 2,2 L2,49 L4,49 L4,45 L6,45 L6,49 L8,49 L8,43 L10,43 L10,49 L12,49 L12,47 L14,47 L14,49 L16,49 L16,45 L18,45 L18,49 L20,49 L20,40 L22,40 L22,49 L24,49 L24,44 L26,44 L26,49 L28,49 L28,47 L30,47 L30,49 L32,49 L32,42 L34,42 L34,49 L36,49 L36,44 L38,44 L38,49 L40,49 L40,46 L42,46 L42,49 L44,49 L44,45 L46,45 L46,49 L48,49 L48,42 L50,42 L50,49 L52,49 L52,44 L54,44 L54,49 L56,49 L56,47 L58,47 L58,49 L60,49 Z M60,37 L60,41 L58,41 L58,37 C56.8954305,37 56,36.1045695 56,35 L56,6 C56,4.8954305 56.8954305,4 58,4 L58,0 L60,0 L60,4 C61.1045695,4 62,4.8954305 62,6 L62,35 C62,36.1045695 61.1045695,37 60,37 Z M58,35 L60,35 L60,6 L58,6 L58,35 Z M50,21 L50,27 L48,27 L48,21 C46.8954305,21 46,20.1045695 46,19 L46,13 C46,11.8954305 46.8954305,11 48,11 L48,5 L50,5 L50,11 C51.1045695,11 52,11.8954305 52,13 L52,19 C52,20.1045695 51.1045695,21 50,21 Z M40,32 L40,38 L38,38 L38,32 C36.8954305,32 36,31.1045695 36,30 L36,13 C36,11.8954305 36.8954305,11 38,11 L38,4 L40,4 L40,11 C41.1045695,11 42,11.8954305 42,13 L42,30 C42,31.1045695 41.1045695,32 40,32 Z M30,36 L30,41 L28,41 L28,36 C26.8954305,36 26,35.1045695 26,34 L26,26 C26,24.8954305 26.8954305,24 28,24 L28,18 L30,18 L30,24 C31.1045695,24 32,24.8954305 32,26 L32,34 C32,35.1045695 31.1045695,36 30,36 Z M20,23 L20,29 L18,29 L18,23 C16.8954305,23 16,22.1045695 16,21 L16,18 C16,16.8954305 16.8954305,16 18,16 L18,9 L20,9 L20,16 C21.1045695,16 22,16.8954305 22,18 L22,21 C22,22.1045695 21.1045695,23 20,23 Z M8,31 C6.8954305,31 6,30.1045695 6,29 L6,11 C6,9.8954305 6.8954305,9 8,9 L8,3 L10,3 L10,9 C11.1045695,9 12,9.8954305 12,11 L12,29 C12,30.1045695 11.1045695,31 10,31 L10,37 L8,37 L8,31 Z M8,11 L8,29 L10,29 L10,11 L8,11 Z M28,26 L28,34 L30,34 L30,26 L28,26 Z" id="trading" fill="#C6C9D5" fill-rule="nonzero"></path>
    </g>
</svg>