<svg width="71" height="70" viewBox="0 0 71 70" fill="none" xmlns="http://www.w3.org/2000/svg">
<path d="M33.9712 46.3605C34.9614 48.3887 36.5048 50.106 38.4291 51.3207C40.3535 52.5354 42.5829 53.1997 44.8686 53.2394H54.9706C54.9706 53.2394 51.9862 51.9011 54.3588 47.9732C55.4538 46.2918 56.0827 44.3577 56.183 42.3629C56.2832 40.3682 55.8514 38.3824 54.9302 36.6028C54.0091 34.8233 52.6309 33.3121 50.9325 32.2194C49.2342 31.1267 47.2748 30.4906 45.2493 30.3743C44.5004 30.333 43.7492 30.3621 43.0059 30.4613" stroke="#FFCA13" stroke-width="2" stroke-linecap="round" stroke-linejoin="round"/>
<path d="M22.5435 41.2816C21.5495 39.7559 20.9379 38.0195 20.7592 36.2156C20.5804 34.4116 20.8395 32.5917 21.5152 30.9056C22.1909 29.2195 23.2639 27.7156 24.6457 26.5176C26.0275 25.3197 27.6787 24.4619 29.4632 24.0151C31.2478 23.5683 33.1146 23.5452 34.91 23.9476C36.7054 24.35 38.378 25.1665 39.7901 26.3298C41.2021 27.4932 42.3132 28.97 43.0319 30.6388C43.7505 32.3076 44.0561 34.1205 43.9236 35.9283C43.5021 41.7968 37.9888 46.5478 32.0337 46.5478H21.9317C21.9317 46.5478 24.9161 45.2095 22.5435 41.2816Z" stroke="#FFCA13" stroke-width="2" stroke-linecap="round" stroke-linejoin="round"/>
<path d="M28.2541 33.8339H36.4118" stroke="#FFCA13" stroke-width="2" stroke-linecap="round" stroke-linejoin="round"/>
<path d="M28.2541 37.1797H36.4118" stroke="#FFCA13" stroke-width="2" stroke-linecap="round" stroke-linejoin="round"/>
<path d="M70 0.985916L30.5634 0.985909C14.2282 0.985906 0.985913 14.2282 0.98591 30.5634L0.985904 70" stroke="#FFCA13" stroke-width="2"/>
</svg>
