<svg width="14" height="14" viewBox="0 0 14 14" fill="none" xmlns="http://www.w3.org/2000/svg">
<path d="M13.4167 1.75H11.6667V0.583333C11.6667 0.261332 11.4053 0 11.0833 0C10.7613 0 10.5 0.261332 10.5 0.583333V1.75H3.5V0.583333C3.5 0.261332 3.23867 0 2.91667 0C2.59467 0 2.33333 0.261332 2.33333 0.583333V1.75H0.583333C0.261332 1.75 0 2.01133 0 2.33333V13.4167C0 13.7387 0.261332 14 0.583333 14H13.4167C13.7387 14 14 13.7387 14 13.4167V2.33333C14 2.01133 13.7387 1.75 13.4167 1.75ZM1.16667 12.8333V6.41667H9.33333C9.65533 6.41667 9.91667 6.15533 9.91667 5.83333C9.91667 5.51133 9.65533 5.25 9.33333 5.25H1.16667V2.91667H2.33333V3.5C2.33333 3.822 2.59467 4.08333 2.91667 4.08333C3.23867 4.08333 3.5 3.822 3.5 3.5V2.91667H10.5V3.5C10.5 3.822 10.7613 4.08333 11.0833 4.08333C11.4053 4.08333 11.6667 3.822 11.6667 3.5V2.91667H12.8333V5.25H11.6667C11.3447 5.25 11.0833 5.51133 11.0833 5.83333C11.0833 6.15533 11.3447 6.41667 11.6667 6.41667H12.8333V12.8333H1.16667Z" fill="#C4C7D6"/>
<path d="M3.49992 7.5835H2.91659C2.59458 7.5835 2.33325 7.84483 2.33325 8.16683C2.33325 8.48883 2.59458 8.75016 2.91659 8.75016H3.49992C3.82192 8.75016 4.08325 8.48883 4.08325 8.16683C4.08325 7.84483 3.82192 7.5835 3.49992 7.5835Z" fill="#C4C7D6"/>
<path d="M6.12492 7.5835H5.54159C5.21958 7.5835 4.95825 7.84483 4.95825 8.16683C4.95825 8.48883 5.21958 8.75016 5.54159 8.75016H6.12492C6.44692 8.75016 6.70825 8.48883 6.70825 8.16683C6.70825 7.84483 6.44692 7.5835 6.12492 7.5835Z" fill="#C4C7D6"/>
<path d="M8.45841 7.5835H7.87508C7.55308 7.5835 7.29175 7.84483 7.29175 8.16683C7.29175 8.48883 7.55308 8.75016 7.87508 8.75016H8.45841C8.78042 8.75016 9.04175 8.48883 9.04175 8.16683C9.04175 7.84483 8.78042 7.5835 8.45841 7.5835Z" fill="#C4C7D6"/>
<path d="M11.0834 7.5835H10.5001C10.1781 7.5835 9.91675 7.84483 9.91675 8.16683C9.91675 8.48883 10.1781 8.75016 10.5001 8.75016H11.0834C11.4054 8.75016 11.6667 8.48883 11.6667 8.16683C11.6667 7.84483 11.4054 7.5835 11.0834 7.5835Z" fill="#C4C7D6"/>
<path d="M3.49992 9.9165H2.91659C2.59458 9.9165 2.33325 10.1778 2.33325 10.4998C2.33325 10.8218 2.59458 11.0832 2.91659 11.0832H3.49992C3.82192 11.0832 4.08325 10.8218 4.08325 10.4998C4.08325 10.1778 3.82192 9.9165 3.49992 9.9165Z" fill="#C4C7D6"/>
<path d="M6.12492 9.9165H5.54159C5.21958 9.9165 4.95825 10.1778 4.95825 10.4998C4.95825 10.8218 5.21958 11.0832 5.54159 11.0832H6.12492C6.44692 11.0832 6.70825 10.8218 6.70825 10.4998C6.70825 10.1778 6.44692 9.9165 6.12492 9.9165Z" fill="#C4C7D6"/>
<path d="M8.45841 9.9165H7.87508C7.55308 9.9165 7.29175 10.1778 7.29175 10.4998C7.29175 10.8218 7.55308 11.0832 7.87508 11.0832H8.45841C8.78042 11.0832 9.04175 10.8218 9.04175 10.4998C9.04175 10.1778 8.78042 9.9165 8.45841 9.9165Z" fill="#C4C7D6"/>
<path d="M11.0834 9.9165H10.5001C10.1781 9.9165 9.91675 10.1778 9.91675 10.4998C9.91675 10.8218 10.1781 11.0832 10.5001 11.0832H11.0834C11.4054 11.0832 11.6667 10.8218 11.6667 10.4998C11.6667 10.1778 11.4054 9.9165 11.0834 9.9165Z" fill="#C4C7D6"/>
</svg>
