<svg width="59" height="60" viewBox="0 0 59 60" fill="none" xmlns="http://www.w3.org/2000/svg">
<path d="M39.3335 19.6662V22.1245C48.8372 22.1245 56.5416 29.8291 56.5416 39.3331C56.5416 48.8371 48.8372 56.5417 39.3335 56.5417C29.8297 56.5417 22.1253 48.8371 22.1253 39.3331H19.6669C19.6798 50.1896 28.4772 58.9873 39.3335 59.0002C50.195 59.0002 59 50.195 59 39.3331C59 28.4713 50.195 19.6662 39.3335 19.6662Z" fill="#FFCA13"/>
<path d="M26.1642 1.10797C15.9116 -2.47784 4.6935 2.92698 1.1079 13.1798C-2.4777 23.4326 2.92686 34.651 13.1794 38.2368L13.9906 35.9173C8.28279 33.9205 4.04185 29.0741 2.81969 23.1517C0.899094 13.8437 6.88754 4.74103 16.1952 2.82038C25.5029 0.899739 34.6053 6.88823 36.5259 16.1962L38.9338 15.7045C37.5389 8.93252 32.6906 3.39046 26.1642 1.10797Z" fill="#FFCA13"/>
<path d="M22.1254 18.4369H17.2087C15.851 18.4369 14.7504 17.3363 14.7504 15.9786C14.7504 14.6209 15.851 13.5202 17.2087 13.5202H22.1254C23.483 13.5202 24.5836 14.6209 24.5836 15.9786H27.0419C27.0419 13.2632 24.8406 11.0618 22.1252 11.0618H17.2086C14.4932 11.0618 12.2919 13.2632 12.2919 15.9786C12.2919 18.694 14.4931 20.8954 17.2086 20.8954H22.1252C23.4829 20.8954 24.5835 21.996 24.5835 23.3537C24.5835 24.7114 23.4829 25.812 22.1252 25.812H17.2086C15.8509 25.812 14.7503 24.7114 14.7503 23.3537H12.292C12.292 26.0691 14.4932 28.2705 17.2087 28.2705H22.1254C24.8407 28.2705 27.042 26.0693 27.042 23.3537C27.042 20.6382 24.8407 18.4369 22.1254 18.4369Z" fill="#FFCA13"/>
<path d="M20.896 8.6037H18.4378V12.2913H20.896V8.6037Z" fill="#FFCA13"/>
<path d="M20.896 27.0412H18.4378V30.7288H20.896V27.0412Z" fill="#FFCA13"/>
<path d="M29.5002 28.2704H27.0419V30.7287H29.5002V28.2704Z" fill="#FFCA13"/>
<path d="M34.4164 22.1245H31.9581V24.5829H34.4164V22.1245Z" fill="#FFCA13"/>
<path d="M24.5835 33.1873H22.1253V35.6456H24.5835V33.1873Z" fill="#FFCA13"/>
<path d="M47.9377 2.45778H36.8753V4.91612H47.9377C48.0375 4.90967 48.1376 4.90967 48.2375 4.91612C49.5125 4.99886 50.4788 6.0996 50.3961 7.37446V17.2079H52.8544V7.37446C52.8571 7.28135 52.8571 7.18812 52.8544 7.09501C52.7771 4.45679 50.5758 2.38057 47.9377 2.45778Z" fill="#FFCA13"/>
<path d="M55.6728 11.4221L51.6252 15.4698L47.5776 11.4221L45.8396 13.1603L50.7562 18.077C50.9867 18.3075 51.2993 18.4372 51.6252 18.4372C51.9512 18.437 52.2637 18.3075 52.4942 18.077L57.4108 13.1603L55.6728 11.4221Z" fill="#FFCA13"/>
<path d="M11.0631 54.0835C10.9633 54.09 10.8632 54.09 10.7633 54.0835C9.48836 54.0007 8.52201 52.9 8.60475 51.6252V41.7917H6.14647V51.6252C6.14371 51.7183 6.14371 51.8115 6.14647 51.9046C6.22368 54.543 8.42487 56.6191 11.0631 56.542H22.1255V54.0836H11.0631V54.0835Z" fill="#FFCA13"/>
<path d="M8.24437 40.9227C7.76442 40.4428 6.98636 40.4428 6.5063 40.9227L1.58976 45.8394L3.32782 47.5775L7.37539 43.5298L11.423 47.5775L13.161 45.8394L8.24437 40.9227Z" fill="#FFCA13"/>
<path d="M40.9723 45.0149C38.7827 45.0149 36.8816 43.7737 35.9332 41.9556H40.9723V40.2074H35.3651C35.3214 39.9234 35.2908 39.6306 35.2908 39.3334C35.2908 39.0362 35.3214 38.7434 35.3651 38.4593H40.9723V36.7112H35.9332C36.8816 34.8931 38.7783 33.6519 40.9723 33.6519C42.3839 33.6519 43.6732 34.1676 44.6652 35.0198L46.2167 33.4771C44.8269 32.2315 42.987 31.4667 40.9723 31.4667C37.5503 31.4667 34.644 33.6563 33.5645 36.7112H30.4834V38.4593H33.158C33.1231 38.7478 33.1056 39.0362 33.1056 39.3334C33.1056 39.6306 33.1231 39.919 33.158 40.2074H30.4834V41.9556H33.5645C34.644 45.0105 37.5503 47.2001 40.9723 47.2001C42.987 47.2001 44.8269 46.4352 46.2167 45.1897L44.6652 43.6426C43.6732 44.4948 42.3839 45.0149 40.9723 45.0149Z" fill="#FFCA13"/>
</svg>
