<svg width="22" height="22" viewBox="0 0 22 22" fill="none" xmlns="http://www.w3.org/2000/svg">
<path d="M19.1133 5.63302L19.1133 5.63302L20.8026 6.49306C21.7895 6.9955 22.1822 8.14772 21.689 9.11595L20.8491 10.7645C20.7728 10.9143 20.7728 11.0852 20.8491 11.235L21.689 12.8836C22.1822 13.8518 21.7895 15.0041 20.8026 15.5065L19.1133 16.3666C18.9574 16.446 18.8525 16.5858 18.8225 16.7495L18.4921 18.5568C18.2981 19.618 17.2773 20.3256 16.1741 20.1759L14.2808 19.9189C14.1048 19.8952 13.9322 19.9494 13.806 20.0665L12.4315 21.3423C12.0299 21.7152 11.5145 21.9013 11 21.9013C10.4853 21.9014 9.97022 21.7152 9.56848 21.3423L8.19407 20.0665C8.06774 19.9493 7.89504 19.895 7.71941 19.9189L7.71937 19.9189L5.8259 20.1759C5.72699 20.1893 5.62855 20.1959 5.53149 20.1959C4.54651 20.196 3.68447 19.5228 3.50788 18.5569L3.60449 18.5392L3.50788 18.5569L3.17751 16.7495C3.14755 16.5858 3.04265 16.4459 2.8867 16.3666L2.93125 16.279L2.88669 16.3666L1.19742 15.5065C0.210534 15.0041 -0.182218 13.8519 0.311018 12.8836L0.398529 12.9282L0.311019 12.8836L1.15086 11.2351L1.23609 11.2785L1.15086 11.2351C1.22719 11.0853 1.22719 10.9145 1.15086 10.7646L0.311062 9.11608C-0.182172 8.14785 0.210573 6.99554 1.19746 6.49315C1.19746 6.49315 1.19746 6.49315 1.19747 6.49315L2.88672 5.63312C3.04265 5.5537 3.14755 5.4139 3.17751 5.25015L3.50788 3.44285C3.70189 2.38163 4.7228 1.67399 5.82585 1.82377C5.82585 1.82377 5.82586 1.82377 5.82586 1.82377L7.71926 2.08076L19.1133 5.63302ZM19.1133 5.63302C18.9573 5.55365 18.8524 5.41382 18.8225 5.2501M19.1133 5.63302L18.8225 5.2501M18.46 15.1782L18.4155 15.0906L20.1047 14.2306L20.1493 14.3181L20.1047 14.2306C20.3766 14.0922 20.4797 13.7802 20.3471 13.5199L19.5073 11.8714L19.5948 11.8268L19.5073 11.8714C19.2253 11.3178 19.2253 10.6817 19.5073 10.128L19.5948 10.1726L19.5073 10.128L20.3471 8.47954C20.4797 8.21932 20.3766 7.90737 20.1047 7.76895L20.1492 7.68142L20.1047 7.76894L18.4154 6.90891C17.8505 6.62135 17.4611 6.10831 17.35 5.50079L17.0196 3.6934C16.9674 3.40787 16.6903 3.21042 16.3824 3.25222L16.3692 3.1549L16.3824 3.25222L14.4889 3.50922C14.4889 3.50922 14.4889 3.50922 14.4889 3.50922C13.8567 3.59508 13.2295 3.39995 12.7693 2.97271L11.3948 1.69693C11.3948 1.69692 11.3948 1.69692 11.3948 1.69691C11.1735 1.49159 10.8262 1.49161 10.605 1.69692L9.23056 2.97271L9.16374 2.90073L9.23055 2.97271C8.77029 3.3999 8.14303 3.59508 7.51091 3.50922L18.46 15.1782ZM18.46 15.1782L18.4154 15.0906C17.8506 15.3783 17.4611 15.8913 17.3501 16.4988L17.0197 18.3061C16.9675 18.5917 16.6907 18.7891 16.3824 18.7473L14.489 18.4903C13.8566 18.4044 13.2296 18.5996 12.7693 19.0268L11.3949 20.3026C11.1737 20.5079 10.8264 20.5079 10.6051 20.3026C10.6051 20.3026 10.6051 20.3026 10.6051 20.3026L9.23065 19.0268L9.16383 19.0988L9.23064 19.0268C8.84171 18.6658 8.33349 18.4704 7.8037 18.4704C7.70667 18.4704 7.60888 18.477 7.51099 18.4903L5.61753 18.7473C5.30963 18.789 5.03249 18.5916 4.98026 18.3061L4.64984 16.4987C4.53876 15.8912 4.14935 15.3781 3.58444 15.0906L1.89518 14.2306L1.85062 14.3181L1.89517 14.2306C1.62326 14.0921 1.52019 13.7802 1.65274 13.52L2.49258 11.8714L2.40507 11.8268L2.49259 11.8714C2.7746 11.3178 2.7746 10.6817 2.49259 10.1281L2.40507 10.1727L2.49258 10.1281L1.65274 8.47954C1.52019 8.21932 1.62326 7.90737 1.89517 7.76895L1.89518 7.76894L3.58445 6.9089L3.58445 6.9089C4.1493 6.62127 4.53876 6.10827 4.6498 5.50075L4.98017 3.69341C5.0324 3.40787 5.30925 3.21046 5.61744 3.25222C5.61745 3.25222 5.61746 3.25222 5.61746 3.25222L7.5109 3.50922L18.46 15.1782ZM18.8225 5.2501L18.4921 3.44273M18.8225 5.2501L18.4921 3.44273M18.4921 3.44273C18.2981 2.38148 17.2768 1.67395 16.1741 1.82365M18.4921 3.44273L16.1741 1.82365M16.1741 1.82365L14.2807 2.08064M16.1741 1.82365L14.2807 2.08064M14.2807 2.08064C14.2807 2.08064 14.2807 2.08065 14.2807 2.08065M14.2807 2.08064L14.2807 2.08065M14.2807 2.08065C14.1048 2.10446 13.9322 2.05019 13.806 1.93301M14.2807 2.08065L13.806 1.93301M13.806 1.93301L12.4316 0.65721M13.806 1.93301L12.4316 0.65721M12.4316 0.65721C11.6286 -0.0881598 10.3714 -0.08821 9.56847 0.657215M12.4316 0.65721L9.56847 0.657215M9.56847 0.657215L8.19401 1.93314M9.56847 0.657215L8.19401 1.93314M8.19401 1.93314C8.06776 2.05033 7.89522 2.10451 7.71932 2.08077L8.19401 1.93314Z" fill="#708090" stroke="#708090" stroke-width="0.2"/>
<path d="M14.7583 6.37615C15.0499 6.09637 15.5211 6.09636 15.8127 6.37615C15.8127 6.37616 15.8127 6.37616 15.8127 6.37616L15.7447 6.44702C15.9983 6.69039 15.9983 7.08488 15.7446 7.32824L14.7583 6.37615ZM14.7583 6.37615L6.1871 14.6006C5.89323 14.8825 5.89323 15.3415 6.1871 15.6235C6.33331 15.7638 6.52436 15.8333 6.71425 15.8333C6.90411 15.8333 7.09521 15.7638 7.2414 15.6235C7.24141 15.6235 7.24142 15.6234 7.24143 15.6234L15.8126 7.39912L14.7583 6.37615Z" fill="#708090" stroke="#708090" stroke-width="0.2"/>
<path d="M7.41826 7.67649C7.41826 8.19113 7.85592 8.61678 8.4023 8.61678C8.94868 8.61678 9.38635 8.19113 9.38639 7.67649H7.41826ZM7.41826 7.67649C7.41826 7.1619 7.85592 6.73624 8.4023 6.73624M7.41826 7.67649L8.4023 6.73624M8.4023 6.73624C8.94869 6.73624 9.38639 7.1619 9.38639 7.67648L8.4023 6.73624ZM8.4023 5.29364C7.03903 5.29364 5.92306 6.35875 5.92306 7.67653C5.92306 8.99432 7.03903 10.0594 8.4023 10.0594C9.76557 10.0594 10.8815 8.99432 10.8815 7.67653C10.8815 6.35875 9.76557 5.29364 8.4023 5.29364Z" fill="#708090" stroke="#708090" stroke-width="0.2"/>
<path d="M13.5973 11.94C12.234 11.94 11.1181 13.0051 11.1181 14.3229C11.1181 15.6407 12.234 16.7058 13.5973 16.7058C14.9606 16.7058 16.0766 15.6407 16.0766 14.3229C16.0766 13.0051 14.9606 11.94 13.5973 11.94ZM13.5973 15.2632C13.0509 15.2632 12.6132 14.8375 12.6132 14.3229C12.6132 13.8083 13.0509 13.3827 13.5973 13.3827C14.1437 13.3827 14.5814 13.8083 14.5814 14.3229C14.5814 14.8375 14.1437 15.2632 13.5973 15.2632Z" fill="#708090" stroke="#708090" stroke-width="0.2"/>
</svg>
