<svg width="50" height="50" viewBox="0 0 50 50" fill="none" xmlns="http://www.w3.org/2000/svg">
<path d="M37.8578 45.314C37.5873 44.8478 36.9899 44.689 36.5231 44.9595L36.4855 44.9812C36.0191 45.2518 35.8604 45.8493 36.1309 46.3158C36.3121 46.6281 36.6397 46.8025 36.9764 46.8025C37.1426 46.8025 37.3114 46.7598 37.4656 46.6703L37.5032 46.6487C37.9696 46.3781 38.1283 45.7805 37.8578 45.314Z" fill="#F2C119"/>
<path fill-rule="evenodd" clip-rule="evenodd" d="M31.4732 0.862378C37.9218 2.5904 43.3116 6.72614 46.6497 12.5079C49.6762 17.7496 50.6982 23.9034 49.5277 29.835C48.368 35.71 45.1483 40.9712 40.4615 44.6494C40.0371 44.9829 39.4234 44.9087 39.0905 44.4844C38.7574 44.0601 38.8315 43.4463 39.2558 43.1133C45.7474 38.0181 48.8186 29.916 47.8413 22.0835C47.7095 22.6451 47.434 23.1514 47.0339 23.5518L46.4019 24.1836C46.2783 24.3077 46.1257 24.3936 45.9616 24.437C45.8804 24.4585 45.7963 24.4698 45.7115 24.4698C45.6411 24.4698 45.5704 24.462 45.5001 24.4463C45.1744 24.3741 44.908 24.1407 44.794 23.8267L43.4664 20.1763C43.4615 20.1626 43.456 20.1499 43.45 20.1373L43.4398 20.1158C43.4224 20.0826 43.4014 20.0518 43.377 20.023L42.174 18.6148C42.0793 18.5035 41.9414 18.44 41.7955 18.44H41.3292L41.3812 18.5181C41.6395 18.9053 41.5883 19.4209 41.2592 19.75C39.9709 21.0381 38.3864 22.0523 36.677 22.6831L35.9411 22.9541C35.4808 23.1246 34.9649 22.9253 34.7378 22.4898L32.2107 17.6495C32.1378 17.5098 32.0997 17.355 32.0997 17.1973V16.5132L30.7363 15.2115L29.2984 14.7061C28.7897 14.5274 28.5221 13.9703 28.7009 13.4615C28.8796 12.9527 29.4369 12.6846 29.9459 12.8638L31.5821 13.439C31.7129 13.4849 31.8325 13.5582 31.9327 13.6539L33.7505 15.3892C33.9435 15.5733 34.0527 15.8287 34.0527 16.0953V16.9581L36.0713 20.8243C37.2431 20.3829 38.3437 19.7281 39.2953 18.9097L39.1462 18.6861C38.8563 18.251 38.8293 17.6949 39.0759 17.2339C39.3225 16.7735 39.8003 16.4869 40.323 16.4869H41.7955C42.5134 16.4869 43.1925 16.7999 43.6589 17.3462L44.8619 18.7544C44.958 18.8667 45.043 18.9864 45.1167 19.1133C45.1898 19.2388 45.2517 19.3711 45.3017 19.5088L45.9762 21.3633L45.9766 21.3399C45.9887 20.6163 46.3054 19.9248 46.8458 19.4424L47.2597 19.0733C46.7525 17.1504 45.9897 15.2701 44.9586 13.4839C41.0874 6.77887 34.3315 2.75495 27.1544 2.07185L24.3454 5.59528C24.2309 5.73884 24.0781 5.84723 23.9049 5.90827L17.5863 8.1236L16.1533 11.5967L17.6099 13.6373C18.4086 12.3482 19.8336 11.5289 21.3899 11.5289H21.9451C22.4842 11.5289 22.9215 11.9664 22.9215 12.5054C22.9215 13.0445 22.4842 13.482 21.9451 13.482H21.3899C20.3417 13.482 19.3994 14.1451 19.0454 15.1314L19.0214 15.1983C19.1947 15.1788 19.3686 15.1641 19.5408 15.1529C19.8319 15.1334 20.1178 15.1231 20.3859 15.1138C20.6575 15.1045 20.9142 15.0953 21.1172 15.0782C21.4744 15.0479 23.2851 14.9576 23.8307 16.1114C23.9274 16.316 24.0196 16.6436 23.9177 17.0513L23.9366 17.064L23.9518 17.0743C24.1352 17.1958 24.3833 17.3614 24.6285 17.5103C24.7894 17.608 24.949 17.6983 25.0882 17.7652C25.1941 17.5069 25.3749 17.3462 25.4359 17.2974C25.667 17.1119 25.978 16.9834 26.4768 16.8663C26.6629 16.8228 26.858 16.8345 27.0378 16.9009C27.1903 16.9571 27.3984 17.0181 27.6299 17.0821L27.732 17.1104L27.9223 17.1617C28.947 17.439 30.1084 17.7535 30.7246 18.4063C31.41 19.1329 31.8126 20.1753 32.1679 21.0948C32.3022 21.4424 32.4291 21.7705 32.556 22.0415C32.6272 22.1939 32.6974 22.3506 32.7687 22.5093C33.1261 23.3067 33.4957 24.1309 34.1 24.5259C34.2369 24.6153 34.6675 24.6817 34.9522 24.7251C35.6736 24.836 36.5713 24.9737 36.9245 25.793C37.2849 26.6285 36.7026 27.4717 36.5112 27.7486C36.0737 28.3819 35.5079 28.9087 34.9607 29.4185C33.6982 30.5943 33.176 31.21 33.4746 32.1734C33.8293 33.3179 34.1643 34.3994 32.8636 35.8145C32.7867 35.898 32.7152 35.9746 32.648 36.0459C32.41 36.2993 32.2745 36.4434 32.1679 36.6353C32.1018 36.7544 32.0467 36.8921 31.9853 37.086C31.7743 37.7505 31.4483 38.1177 31.1866 38.4121C31.1427 38.4619 31.1018 38.5078 31.0636 38.5528C31.0407 38.5796 31.019 38.606 30.998 38.6328C30.972 38.666 30.9474 38.6992 30.9238 38.7334C30.9039 38.7627 30.8847 38.7925 30.8663 38.8242C30.8092 38.9219 30.7793 39.0713 30.7413 39.2608C30.6651 39.6411 30.5608 40.1621 30.1369 40.6826C29.4621 41.5112 27.9933 42.8179 26.5856 42.8184C26.4645 42.8184 26.3439 42.8086 26.2242 42.7881C26.1058 42.7681 25.9883 42.7368 25.8723 42.6943C25.8257 42.6773 25.7793 42.6582 25.7333 42.6372C25.2051 42.397 24.5469 41.8003 23.6688 39.1948C23.6053 39.0069 23.5226 38.8037 23.4297 38.5908C23.3669 38.4468 23.2994 38.2984 23.2305 38.146L23.2169 38.1162C22.6739 36.9199 22.0585 35.5645 22.5 34.1978L22.5758 33.9654C22.8663 33.0796 22.999 32.6753 22.6944 31.9453C22.6717 31.8911 22.6249 31.8242 22.5658 31.751C22.5002 31.6695 22.4195 31.5806 22.3403 31.4937C22.0376 31.1607 21.6606 30.7456 21.5149 30.1455C21.4238 29.7705 21.4259 29.4419 21.4278 29.1783C21.4304 28.7632 21.4184 28.7398 21.2877 28.6177C21.0192 28.3662 20.7539 28.3867 19.9167 28.5943C19.6132 28.6695 19.2993 28.7471 18.9629 28.7862C16.8972 29.0293 14.9619 28.1993 13.788 26.566C12.5739 24.8765 12.3888 22.6226 13.3051 20.6831C13.5474 20.1705 13.847 19.7325 14.1671 19.3306C14.3973 19.0411 14.6381 18.7701 14.8755 18.503C14.9839 18.3814 15.0933 18.2583 15.2026 18.1324C15.3282 17.9874 15.5101 17.7295 15.7026 17.4561C16.1418 16.8331 16.5095 16.3311 16.8873 15.9864L14.2498 12.2916C14.1303 12.1246 14.0686 11.9268 14.0681 11.7271C14.0679 11.6602 14.0746 11.5928 14.0883 11.5269C14.1005 11.4678 14.1183 11.4092 14.1418 11.3521L15.9478 6.97419C16.0537 6.71686 16.2646 6.51715 16.5273 6.42536L22.9936 4.15827L24.7374 1.97077C20.9054 2.00886 17.0327 3.00202 13.4841 5.05085C12.517 5.60895 11.6069 6.22858 10.7534 6.89948C11.5415 7.39069 12.1715 8.1192 12.5322 8.99469C13.1438 10.4786 12.8313 12.1959 11.7363 13.3692L10.6647 14.5176L8.00624 19.1587C7.97145 19.2193 7.93031 19.2759 7.88368 19.3277C7.83668 19.3799 7.78419 19.4268 7.72682 19.4678L6.01173 20.6939L7.20912 22.4502C7.39674 22.7256 7.43117 23.0772 7.30055 23.3833C7.16994 23.6895 6.89223 23.9082 6.56386 23.9634L6.31337 24.0049C6.00685 24.0547 5.46059 24.1426 4.91237 24.2237C4.04372 24.3521 3.5176 24.4229 3.16225 24.4229C2.93764 24.4229 2.78139 24.3946 2.65005 24.3345C2.60476 24.314 2.5624 24.2896 2.52126 24.2613C2.47622 24.23 2.43264 24.1944 2.38808 24.1538C2.3174 24.0894 2.25698 24.0147 2.20827 23.9336C2.16897 23.8926 2.105 23.8306 2.00674 23.7393C1.95657 24.6245 1.9573 25.5147 2.01015 26.4053L4.50002 25.5967C4.80446 25.4976 5.13796 25.5542 5.39272 25.7481L9.64552 28.9815L11.8496 29.4121C12.7041 29.5791 13.4468 30.106 13.8873 30.857C14.3279 31.6079 14.4248 32.5132 14.1534 33.3408C14.0813 33.5606 14.0809 33.7935 14.1525 34.0142L14.4619 34.9658C14.9792 36.5591 14.1043 38.2764 12.5112 38.794L12.0896 38.9307L11.2147 43.4976C17.3771 48.1235 25.6254 49.4541 33.2445 46.5254C33.7477 46.3315 34.3127 46.583 34.5063 47.0864C34.6998 47.5898 34.4487 48.1548 33.9453 48.3481C31.0829 49.4482 28.0547 50 25.021 50C22.2308 50 19.4364 49.5337 16.7595 48.5996C11.1124 46.6294 6.35353 42.6875 3.35927 37.5015C0.0212653 31.7198 -0.865452 24.9844 0.862328 18.5357C2.59023 12.087 6.72597 6.69733 12.5076 3.35944C18.2893 0.021559 25.0249 -0.865647 31.4732 0.862378ZM8.64405 30.6734L4.61733 27.6118L2.21364 28.3926C2.62478 31.1817 3.55764 33.9395 5.05055 36.5249C6.27431 38.6445 7.78187 40.502 9.49903 42.0737L10.28 37.9966C10.3469 37.647 10.5986 37.3618 10.9373 37.2515L11.9077 36.9365C12.4766 36.7515 12.7892 36.1382 12.6044 35.5694L12.2949 34.6172C12.0945 34.0005 12.0955 33.3482 12.2976 32.732C12.3959 32.4317 12.3623 32.1167 12.2026 31.8448C12.043 31.5723 11.7846 31.3892 11.4747 31.3286L9.04786 30.8545C8.97523 30.8404 8.90467 30.8179 8.83754 30.7881C8.76905 30.7578 8.70411 30.7193 8.64405 30.6734ZM10.3085 12.0372L9.1598 13.2676C9.10853 13.3228 9.06361 13.3834 9.02626 13.4488L6.41762 18.003L4.09926 19.6607C3.66738 19.9698 3.5613 20.5664 3.86037 21.0054L4.72744 22.2769C4.22768 22.3516 3.77907 22.4126 3.48085 22.4454C3.42421 22.3907 3.36501 22.3355 3.3041 22.2798L3.30153 22.2769C3.17971 22.1641 3.03298 22.0308 2.85158 21.8692C2.68728 21.7227 2.49453 21.5528 2.26601 21.3526C3.0591 16.4439 5.42433 11.8199 9.14418 8.2901C9.85658 8.51422 10.441 9.04596 10.7267 9.73883C11.048 10.5181 10.8837 11.4205 10.3085 12.0372ZM20.4549 17.066C19.7169 17.0918 18.7059 17.128 18.2704 17.3731C18.0565 17.5059 17.564 18.2051 17.2994 18.5806C17.0779 18.8956 16.8683 19.1924 16.6779 19.4122L16.4882 19.6285L16.3356 19.8003C15.8164 20.3843 15.368 20.8887 15.0713 21.5171C14.4583 22.815 14.5743 24.3125 15.3743 25.4253C16.1389 26.4898 17.3636 27.0074 18.7356 26.8462C18.9501 26.8213 19.192 26.7613 19.4481 26.6978C20.2821 26.4917 21.5424 26.1802 22.6229 27.1914C23.3895 27.9092 23.3844 28.6802 23.3811 29.1905C23.3797 29.3799 23.3788 29.543 23.4131 29.6846C23.4413 29.8008 23.6244 30.0025 23.786 30.1802C24.0358 30.4551 24.3191 30.7666 24.4969 31.1934C25.0814 32.5938 24.766 33.5552 24.4318 34.5738L24.3586 34.7979C24.1494 35.4453 24.5795 36.3926 24.9953 37.3086L24.9972 37.313C25.1852 37.7271 25.3796 38.1553 25.5198 38.5713C26.0901 40.2642 26.4675 40.7529 26.5716 40.8648C26.6246 40.8677 26.737 40.856 26.9117 40.7886C27.0382 40.7398 27.1972 40.6616 27.39 40.5391C27.8838 40.2251 28.3648 39.7656 28.6228 39.4487C28.7361 39.3101 28.7689 39.1651 28.8268 38.8765C28.8855 38.583 28.9587 38.2183 29.1802 37.8389C29.3651 37.5225 29.5655 37.2969 29.7264 37.1157C29.9277 36.8892 30.0386 36.7642 30.1241 36.4946C30.4187 35.5669 30.7744 35.1885 31.2248 34.709L31.349 34.5762L31.4259 34.4932C31.9518 33.9209 31.9365 33.8072 31.6095 32.7515C30.9166 30.5161 32.4211 29.1153 33.63 27.9893L33.6325 27.9864C34.1062 27.5454 34.5542 27.1285 34.869 26.6895C34.7943 26.6768 34.7206 26.6656 34.6563 26.6558C34.1249 26.5743 33.5227 26.482 33.0313 26.1607C31.9479 25.4527 31.4371 24.3135 30.9865 23.3081L30.98 23.2935C30.9154 23.1495 30.8518 23.0074 30.7872 22.8697C30.6317 22.5371 30.493 22.1788 30.3462 21.7989C30.0556 21.0469 29.7264 20.1944 29.3041 19.7466C29.0663 19.4947 27.9901 19.2037 27.4118 19.0469C27.2436 19.0015 27.0796 18.9571 26.9234 18.9122C26.8544 19.043 26.7613 19.1514 26.6621 19.2325C26.6481 19.2452 26.6347 19.2593 26.6207 19.274C26.4446 19.4532 26.0333 19.8746 25.2943 19.8262C24.4816 19.7745 23.6164 19.1978 22.8533 18.689C22.5834 18.5093 22.3284 18.3394 22.1451 18.2413C21.8749 18.0967 21.688 17.8335 21.641 17.5303C21.6272 17.4419 21.6258 17.3531 21.6361 17.2662C21.6459 17.1841 21.666 17.1036 21.6959 17.0264C21.558 17.0157 21.4116 17.0132 21.2799 17.0245C21.0377 17.045 20.7674 17.0542 20.4813 17.0645L20.4549 17.066Z" fill="#F2C119"/>
<path fill-rule="evenodd" clip-rule="evenodd" d="M39.5714 31.8495L40.0412 33.6205C40.0693 33.726 40.0793 33.8353 40.0712 33.9433C40.066 34.0126 40.0534 34.0814 40.0334 34.1488L38.8848 38.0204C38.2729 40.0824 37.5241 41.1185 36.528 41.2811C36.4472 41.2943 36.3599 41.3026 36.2677 41.3021C35.7949 41.3021 35.1865 41.0902 34.6079 40.2665C33.797 39.1122 34.3752 37.7543 34.6861 37.0248L34.6959 37.0023C34.7739 36.8187 34.7639 36.7181 34.7209 36.4266C34.6711 36.0907 34.6029 35.6307 34.7855 35.0487C35.0797 34.1112 35.8497 33.7396 36.4118 33.4682C36.647 33.3549 36.8903 33.2372 36.9851 33.1283C37.1538 32.9345 37.3159 32.5829 37.4726 32.2431C37.5197 32.141 37.5676 32.037 37.6174 31.934C37.666 31.8329 37.7163 31.7323 37.7692 31.6347C37.9602 31.2831 38.3458 31.0839 38.7434 31.1308C39.1406 31.1781 39.4687 31.4628 39.5714 31.8495ZM36.2656 39.2245C36.4248 39.0067 36.7008 38.516 37.0126 37.4647L37.7517 34.974C37.5819 35.0722 37.4135 35.1532 37.2607 35.2274C36.916 35.3934 36.6872 35.5116 36.6489 35.6337C36.6024 35.7816 36.6157 35.8895 36.6528 36.1405C36.7108 36.5321 36.7904 37.0687 36.4926 37.7675L36.4829 37.7904C36.2983 38.2235 36.0194 38.8783 36.206 39.1439C36.2272 39.1742 36.2471 39.2011 36.2656 39.2245Z" fill="#F2C119"/>
<path d="M26.3701 11.6075L26.3042 11.5844C25.7957 11.4063 25.2381 11.6738 25.0595 12.1827C24.881 12.6917 25.1489 13.2488 25.6578 13.4273L25.7236 13.4504C25.8305 13.4879 25.9395 13.5056 26.0468 13.5056C26.45 13.5056 26.8273 13.254 26.9683 12.8521C27.1468 12.3431 26.879 11.7859 26.3701 11.6075Z" fill="#F2C119"/>
</svg>
