<svg width="22" height="18" viewBox="0 0 22 18" fill="none" xmlns="http://www.w3.org/2000/svg">
<path d="M4.80328 9.87432V17.2015C4.80328 17.6383 5.16622 17.9911 5.61512 17.9911C6.06325 17.9911 6.42695 17.6383 6.42695 17.2015V9.87432C6.42695 9.43835 6.06325 9.08479 5.61512 9.08479C5.16622 9.08479 4.80328 9.43798 4.80328 9.87432Z" fill="rgba(255,255,255,.3)"/>
<path d="M2.25491 18H4.04247V9.3007C4.04737 9.25901 4.05518 9.21739 4.05518 9.17466C4.05518 5.42156 7.17007 2.36858 10.9983 2.36858C14.826 2.36858 17.9409 5.42156 17.9409 9.17466C17.9409 9.23206 17.9496 9.28767 17.9584 9.34313V18H19.7462C20.9904 18 22 16.9845 22 15.7316V11.195C22 10.1618 21.3119 9.29139 20.3724 9.0175C20.286 4.03161 16.1155 0 10.9987 0C5.8804 0 1.70933 4.03198 1.62374 9.01943C0.685598 9.2937 0 10.1634 0 11.1958V15.7316C0 16.9838 1.00949 18 2.25491 18Z" fill="rgba(255,255,255,.3)"/>
<path d="M15.5741 9.87432V17.2015C15.5741 17.6383 15.9376 17.9911 16.3859 17.9911C16.8341 17.9911 17.1976 17.6383 17.1976 17.2015V9.87432C17.1976 9.43835 16.8341 9.08479 16.3859 9.08479C15.9367 9.08479 15.5741 9.43798 15.5741 9.87432Z" fill="rgba(255,255,255,.3)"/>
</svg>
