<svg width="14" height="18" viewBox="0 0 14 18" fill="none" xmlns="http://www.w3.org/2000/svg">
<path fill-rule="evenodd" clip-rule="evenodd" d="M13.0061 7.26913H12.6512V5.6276C12.6512 2.59147 10.2133 0.0552144 7.16607 0.00107568C7.13177 0.000465365 7.08344 0.000106805 7.03266 0L6.91816 0.000186909C6.88582 0.000370003 6.85628 0.000667532 6.83321 0.00107568C3.78591 0.0552144 1.34794 2.59147 1.34794 5.6276V7.26913H0.993105C0.44614 7.26913 0 7.82688 0 8.51573V16.749C0 17.437 0.44614 18 0.993105 18H13.0061C13.553 18 13.9992 17.437 13.9992 16.749V8.51573C13.9992 7.82692 13.553 7.26913 13.0061 7.26913ZM8.125 12.624V15.1118C8.125 15.3966 7.88368 15.6377 7.59525 15.6377H6.40391C6.11548 15.6377 5.87416 15.3966 5.87416 15.1118V12.624C5.59427 12.3518 5.43144 11.9755 5.43144 11.5591C5.43144 10.7702 6.04859 10.0922 6.83321 10.0609C6.87971 10.059 6.9521 10.0582 7.02155 10.0584C7.07636 10.0586 7.12933 10.0594 7.16607 10.0609C7.9507 10.0922 8.56772 10.7702 8.56772 11.5591C8.56772 11.9755 8.40477 12.3518 8.125 12.624ZM7.1662 7.26914H10.3122V5.62762C10.3122 3.81905 8.82503 2.32363 6.99982 2.32363C5.17462 2.32363 3.6874 3.81905 3.6874 5.62762V7.26914H6.83345H7.1662Z" fill="#C4C7D6"/>
</svg>
