<svg width="120" height="94" viewBox="0 0 120 94" fill="none" xmlns="http://www.w3.org/2000/svg">
<g opacity="0.1">
<path d="M52.5 41.36V74C52.5 85.0457 43.5457 94 32.5 94H0V40.608C0 4.512 33.75 0 33.75 0L38.25 10.528C38.25 10.528 23.25 12.784 20.25 24.816C17.25 33.84 23.25 41.36 23.25 41.36H52.5Z" fill="#25313E"/>
<path d="M120 41.36V74C120 85.0457 111.046 94 100 94H67.5V40.608C67.5 4.512 101.25 0 101.25 0L105.75 10.528C105.75 10.528 90.75 12.784 87.75 24.816C84.75 33.84 90.75 41.36 90.75 41.36H120Z" fill="#25313E"/>
</g>
</svg>
