<svg width="24" height="24" viewBox="0 0 24 24" fill="none" xmlns="http://www.w3.org/2000/svg">
<circle cx="12" cy="12" r="11" stroke="#708090" stroke-width="2"/>
<path d="M16.3595 10.2045C16.4054 9.94961 16.4307 9.68741 16.4307 9.41935C16.4307 6.98262 14.4431 5 12 5C9.55679 5 7.56904 6.98262 7.56904 9.41935C7.56904 9.68741 7.59449 9.9494 7.64054 10.2045C7.25583 10.4425 7 10.8586 7 11.3338V16.6601C7 17.4002 7.6194 18 8.38323 18H15.6167C16.3803 18 16.9996 17.4002 16.9996 16.6601L17 11.3338C17 10.8587 16.7444 10.4425 16.3595 10.2045ZM12.6103 13.9821V14.9223C12.6103 15.2491 12.337 15.5138 11.9998 15.5138C11.6625 15.5138 11.3892 15.2491 11.3892 14.9223V13.9817C10.9976 13.7727 10.732 13.3694 10.732 12.9055C10.732 12.2273 11.2996 11.6774 12 11.6774C12.7004 11.6774 13.2681 12.2273 13.2681 12.9055C13.2681 13.3696 13.0023 13.7732 12.6103 13.9821ZM14.7449 9.9938H9.25501C9.21737 9.80838 9.19731 9.61606 9.19731 9.41935C9.19731 7.85208 10.4546 6.57709 12 6.57709C13.5453 6.57709 14.8025 7.85197 14.8025 9.41935C14.8025 9.61606 14.7826 9.80838 14.7449 9.9938Z" fill="#708090"/>
</svg>
