<svg width="24" height="24" viewBox="0 0 24 24" fill="none" xmlns="http://www.w3.org/2000/svg">
<circle cx="12" cy="12" r="11" stroke="#708090" stroke-width="2"/>
<path d="M17.9402 7H6.0598C5.47479 7 5 7.47538 5 8.06112V15.9389C5 16.5246 5.47479 17 6.0598 17H17.9402C18.5252 17 19 16.5246 19 15.9389V8.06112C19 7.47538 18.5252 7 17.9402 7ZM16.9652 14.2183C16.9652 14.804 16.4904 15.2794 15.9054 15.2794H7.77615C7.19114 15.2794 6.71635 14.804 6.71635 14.2183V9.9218C6.71635 9.9218 6.72324 9.55093 7.39463 9.9218C7.40257 9.92604 7.40681 9.92763 7.41423 9.93135C8.49947 10.5521 9.72566 11.14 11.4855 11.8769C11.6047 11.9172 11.8537 11.9645 12.2151 11.8727C13.9622 11.3559 15.4364 10.6598 16.5598 10.0221L16.5603 10.0226C16.5603 10.0226 16.9652 9.77748 16.9652 10.0226V14.2183Z" fill="#708090"/>
</svg>
