<svg width="14" height="13" viewBox="0 0 14 13" fill="none" xmlns="http://www.w3.org/2000/svg">
<path d="M13.0637 6.94733V12.1505H2.90281V6.94733H13.0637ZM13.9285 6.09784H2.03805V13H13.9285V6.09784Z" fill="#C4C7D6"/>
<path d="M10.6858 6.09784L11.903 7.2935C11.8938 7.33757 11.876 7.37845 11.876 7.42517C11.876 7.80585 12.19 8.1138 12.5775 8.1138C12.6251 8.1138 12.6661 8.09627 12.711 8.08778L13.9287 9.28344V6.09784H10.6858Z" fill="#C4C7D6"/>
<path d="M11.4964 10.2383C11.8839 10.2383 12.198 9.92974 12.198 9.54914C12.198 9.16853 11.8839 8.85998 11.4964 8.85998C11.109 8.85998 10.7949 9.16853 10.7949 9.54914C10.7949 9.92974 11.109 10.2383 11.4964 10.2383Z" fill="#C4C7D6"/>
<path d="M7.98329 11.3612C9.15519 11.3612 10.1052 10.5497 10.1052 9.5486C10.1052 8.54752 9.15519 7.73599 7.98329 7.73599C6.8114 7.73599 5.86139 8.54752 5.86139 9.5486C5.86139 10.5497 6.8114 11.3612 7.98329 11.3612Z" fill="#C4C7D6"/>
<path d="M4.47015 10.2377C4.8573 10.2377 5.17114 9.92937 5.17114 9.54906C5.17114 9.16874 4.8573 8.86044 4.47015 8.86044C4.083 8.86044 3.76915 9.16874 3.76915 9.54906C3.76915 9.92937 4.083 10.2377 4.47015 10.2377Z" fill="#C4C7D6"/>
<path d="M2.03805 9.28389L3.2552 8.08823C3.30006 8.09726 3.34168 8.11478 3.38924 8.11478C3.77676 8.11478 4.09024 7.80631 4.09024 7.42563C4.09024 7.37891 4.0724 7.33855 4.06321 7.29449L5.2809 6.09829H2.03805V9.28389Z" fill="#C4C7D6"/>
<path d="M4.09078 11.6727C4.09078 11.292 3.77676 10.984 3.38924 10.984C3.34168 10.984 3.3006 11.0016 3.25574 11.0101L2.03805 9.8144V13H5.2809L4.06375 11.8043C4.07294 11.7603 4.09078 11.7189 4.09078 11.6727Z" fill="#C4C7D6"/>
<path d="M12.5775 10.9835C12.19 10.9835 11.8765 11.292 11.8765 11.6727C11.8765 11.7194 11.8943 11.7597 11.9035 11.8038L10.6858 13H13.9287V9.8144L12.7115 11.0101C12.6667 11.001 12.6251 10.9835 12.5775 10.9835Z" fill="#C4C7D6"/>
<path d="M9.98423 4.86302C10.3714 4.86302 10.6852 4.55471 10.6852 4.1744C10.6852 3.79408 10.3714 3.48578 9.98423 3.48578C9.59708 3.48578 9.28324 3.79408 9.28324 4.1744C9.28324 4.55471 9.59708 4.86302 9.98423 4.86302Z" fill="#C4C7D6"/>
<path d="M1.22742 6.09777C1.22742 5.65816 1.59062 5.30137 2.03813 5.30137H2.48132L2.50131 5.23341L8.75838 1.86729L9.2367 2.00427C9.25022 2.04675 9.25508 2.09135 9.27832 2.13223C9.46424 2.46672 9.89014 2.5883 10.2306 2.40566C10.2717 2.38336 10.2998 2.34885 10.3339 2.31965L10.8133 2.45769L11.9034 4.41259L11.7634 4.88299C11.7207 4.89574 11.6753 4.90051 11.6337 4.92281C11.4753 5.00776 11.37 5.14687 11.3143 5.30137H13.3848L11.9872 2.79377H11.9877L10.4295 0L7.58447 1.53015H7.58502L2.84452 4.08022L0 5.61037L1.22742 7.81215V6.09777Z" fill="#C4C7D6"/>
<path d="M6.01612 4.2428C5.54537 4.49552 5.20649 4.87885 5.01624 5.30148H8.92549C8.89415 5.13954 8.84713 4.98079 8.76389 4.8316C8.27368 3.95344 7.0441 3.69009 6.01612 4.2428Z" fill="#C4C7D6"/>
</svg>
