<svg width="14" height="11" viewBox="0 0 14 11" fill="none" xmlns="http://www.w3.org/2000/svg">
<path d="M12.7492 11C13.0639 11 13.3366 10.8961 13.5684 10.6909L9.60216 6.72439C9.507 6.79254 9.41477 6.8588 9.32764 6.92181C9.03082 7.1405 8.78992 7.31116 8.60494 7.43344C8.41999 7.556 8.1739 7.68093 7.86672 7.80847C7.55933 7.93617 7.27296 7.99982 7.00731 7.99982H6.99953H6.99175C6.72607 7.99982 6.4397 7.9362 6.13234 7.80847C5.82498 7.68093 5.57889 7.556 5.39411 7.43344C5.20916 7.31116 4.96839 7.14053 4.67142 6.92181C4.58866 6.86114 4.49688 6.79457 4.39766 6.72332L0.43066 10.6909C0.662434 10.8961 0.935281 11 1.24994 11H12.7492Z" fill="#C4C7D6"/>
<path d="M0.789109 4.22636C0.492319 4.02849 0.229131 3.80186 0 3.5466V9.58135L3.49582 6.0854C2.79646 5.59713 1.89537 4.97816 0.789109 4.22636Z" fill="#C4C7D6"/>
<path d="M13.2182 4.22636C12.1542 4.94659 11.2498 5.56663 10.505 6.0868L13.9995 9.58151V3.5466C13.7754 3.79673 13.515 4.0232 13.2182 4.22636Z" fill="#C4C7D6"/>
<path d="M12.7499 0H1.25059C0.849418 0 0.540987 0.135475 0.324921 0.406147C0.108677 0.676945 0.000732415 1.01561 0.000732415 1.42175C0.000732415 1.74982 0.14398 2.10528 0.430349 2.48825C0.716718 2.87106 1.02144 3.17175 1.34436 3.39047C1.52138 3.51555 2.05523 3.8867 2.94591 4.50378C3.42671 4.83698 3.84484 5.1274 4.20415 5.37802C4.51042 5.59142 4.77455 5.77623 4.99263 5.9296C5.01766 5.94717 5.05703 5.97533 5.10929 6.01269C5.16559 6.05313 5.23683 6.10445 5.32472 6.16792C5.49397 6.29033 5.63457 6.38928 5.74656 6.46487C5.85839 6.54049 5.99389 6.62495 6.15284 6.71874C6.31167 6.81241 6.46148 6.88284 6.60208 6.92968C6.74271 6.9765 6.8729 6.99999 6.99266 6.99999H7.00044H7.00821C7.12795 6.99999 7.25816 6.9765 7.39882 6.92968C7.5394 6.88284 7.68907 6.81256 7.84803 6.71874C8.00683 6.62495 8.14215 6.54031 8.25434 6.46487C8.36632 6.38928 8.50693 6.29035 8.6762 6.16792C8.76392 6.10445 8.83516 6.05311 8.89146 6.01282C8.94374 5.9753 8.98308 5.94732 9.00827 5.9296C9.17816 5.81139 9.44289 5.62734 9.79883 5.38018C10.4465 4.93016 11.4003 4.26781 12.6643 3.39047C13.0445 3.12493 13.3621 2.80449 13.6174 2.42961C13.8722 2.05473 13.9999 1.66149 13.9999 1.25003C13.9999 0.906262 13.8761 0.612105 13.6289 0.367105C13.3814 0.122411 13.0884 0 12.7499 0Z" fill="#C4C7D6"/>
</svg>
