<svg width="56" height="60" viewBox="0 0 56 60" fill="none" xmlns="http://www.w3.org/2000/svg">
<path fill-rule="evenodd" clip-rule="evenodd" d="M37.2695 37.7778L32.3021 42.184L32.5247 42.1828L32.48 42.2222H24.9121L28.7127 42.2026L23.6342 42.1785L18.6069 37.7778H37.2695ZM39.7747 35.5556L47.04 29.1111V11.1303C47.04 9.89239 46.0215 8.88889 44.8001 8.88889H11.1999C9.96284 8.88889 8.96 9.87497 8.96 11.1157V29.3334L16.0682 35.5556H39.7747ZM20.3636 6.66667L28 0L35.6364 6.66667H44.8058C47.2843 6.66667 49.28 8.65613 49.28 11.1103V18.5778L56 24.4444V55.5688C56 58.0122 53.9906 60 51.5119 60H4.48805C1.99307 60 0 58.0161 0 55.5688V24.4444L6.72 18.5778V11.1103C6.72 8.63874 8.72318 6.66667 11.1942 6.66667H20.3636ZM32.3183 6.66667L28 2.88889L23.6816 6.66667H32.3183ZM49.28 21.5051L52.64 24.4444L49.28 27.4074V21.5051ZM6.72 27.4074L3.36 24.4444L6.72 21.5051V27.4074ZM21.28 44.4444L5.6 57.7778H50.4L34.72 44.4444H21.28ZM53.0547 57.167L35.84 42.2602L53.76 26.6667V41.1112V55.5556C53.76 56.1848 53.4889 56.7597 53.0547 57.167ZM2.94529 57.167L20.16 42.2602L2.24 26.6667V41.1112V55.5556C2.24 56.1848 2.51105 56.7597 2.94529 57.167ZM13.44 15.5556V17.7778H42.56V15.5556H13.44ZM13.44 22.2222V24.4444H42.56V22.2222H13.44ZM13.44 28.8889V31.1111H42.56V28.8889H13.44Z" fill="white"/>
</svg>
