<svg width="50" height="50" viewBox="0 0 50 50" fill="none" xmlns="http://www.w3.org/2000/svg">
<path fill-rule="evenodd" clip-rule="evenodd" d="M49.0234 10.5332H29.4534V2.62695C29.4534 1.17871 28.2749 0 26.8264 0H2.62695C1.17847 0 0 1.17871 0 2.62695V47.373C0 48.8218 1.17847 50 2.62695 50H26.8264C28.2749 50 29.4534 48.8218 29.4534 47.373V36.3638H49.0234C49.5627 36.3638 50 35.9263 50 35.3872V11.5098C50 10.9707 49.5627 10.5332 49.0234 10.5332ZM27.5002 47.373C27.5002 47.6396 27.3448 47.8706 27.1199 47.9795C27.0311 48.0225 26.9315 48.0469 26.8264 48.0469H2.62695C2.25537 48.0469 1.95312 47.7446 1.95312 47.373V42.0532H27.5002V47.373ZM1.95312 40.1001H27.5002V8.53271H1.95312V40.1001ZM27.5002 6.57959H1.95312V2.62695C1.95312 2.25537 2.25549 1.95312 2.62695 1.95312H26.8264C27.198 1.95312 27.5002 2.25537 27.5002 2.62695V6.57959ZM29.4534 34.4102H48.0469V21.0566H29.4534V34.4102ZM48.0469 19.104H29.4534V16.3677H48.0469V19.104ZM29.4534 14.4146H48.0469V12.4863H29.4534V14.4146Z" fill="#F2C119"/>
<path fill-rule="evenodd" clip-rule="evenodd" d="M41.6566 22.8496C40.7272 22.8496 39.856 23.103 39.108 23.5444C38.3381 23.0879 37.467 22.8496 36.5547 22.8496C33.7809 22.8496 31.5242 25.1064 31.5242 27.8799C31.5242 30.6538 33.7808 32.9106 36.5547 32.9106C37.467 32.9106 38.3381 32.6719 39.108 32.2158C39.856 32.6572 40.7272 32.9106 41.6566 32.9106C44.4303 32.9106 46.687 30.6538 46.687 27.8799C46.6869 25.1064 44.4303 22.8496 41.6566 22.8496ZM37.5566 30.792C37.4462 30.8301 37.3335 30.8618 37.2189 30.8867C37.0033 30.9336 36.7811 30.9575 36.5547 30.9575C34.8577 30.9575 33.4773 29.5771 33.4773 27.8799C33.4773 26.1831 34.8578 24.8027 36.5547 24.8027C36.7516 24.8027 36.9454 24.8208 37.1344 24.8564C37.2781 24.8838 37.4191 24.9209 37.5566 24.9683C36.9709 25.7905 36.6261 26.7959 36.6261 27.8799C36.6261 28.9644 36.9709 29.9692 37.5566 30.792ZM38.5792 27.8799C38.5792 29.5771 39.9597 30.9575 41.6566 30.9575C43.3534 30.9575 44.7338 29.5771 44.7338 27.8799C44.7338 26.1831 43.3534 24.8027 41.6566 24.8027C39.9597 24.8027 38.5792 26.1831 38.5792 27.8799Z" fill="#F2C119"/>
<path fill-rule="evenodd" clip-rule="evenodd" d="M22.1639 16.9087C22.4663 16.7695 22.8184 16.7944 23.0985 16.9741C23.3784 17.1538 23.5479 17.4634 23.5479 17.7964V27.4561C23.5479 29.4419 22.0813 31.4219 19.1888 33.3413C17.1713 34.6807 15.1823 35.5059 15.0985 35.54C15.0417 35.5635 14.9833 35.5815 14.9238 35.5938C14.8589 35.6069 14.7928 35.6138 14.7268 35.6138C14.6003 35.6138 14.474 35.5894 14.3549 35.54C14.2711 35.5059 12.282 34.6807 10.2644 33.3413C7.37195 31.4219 5.9054 29.4419 5.9054 27.4561V17.7964C5.9054 17.4634 6.07471 17.1538 6.35474 16.9741C6.63477 16.7949 6.98706 16.77 7.28931 16.9087C7.82202 17.1533 8.39185 17.2773 8.98315 17.2773C10.5465 17.2773 11.9896 16.3628 12.6597 14.9478C12.8212 14.6069 13.1649 14.3892 13.5424 14.3892H15.9109C16.2883 14.3892 16.632 14.6064 16.7935 14.9478C17.4635 16.3628 18.9067 17.2773 20.4701 17.2773C21.0613 17.2773 21.6312 17.1533 22.1639 16.9087ZM14.7268 33.5737C16.8544 32.6226 21.595 29.98 21.595 27.4561V19.1255C21.2271 19.1953 20.8516 19.23 20.4702 19.23C18.3688 19.23 16.4146 18.1147 15.3304 16.3423H14.123C13.0391 18.1147 11.0847 19.23 8.98328 19.23C8.75671 19.23 8.5321 19.2178 8.30994 19.1929C8.15833 19.1763 8.00781 19.1538 7.85864 19.1255V27.4561C7.85864 29.98 12.5989 32.6221 14.7268 33.5737Z" fill="#F2C119"/>
<path d="M18.6404 22.4935C18.2589 22.1122 17.6407 22.1122 17.2593 22.4935L13.9345 25.8183L12.1941 24.0779C11.8126 23.6967 11.1944 23.6967 10.813 24.0779C10.4316 24.4594 10.4316 25.0777 10.813 25.4591L13.2439 27.89C13.4347 28.0807 13.6845 28.1761 13.9345 28.1761C14.1845 28.1761 14.4344 28.0808 14.6251 27.8899L18.6404 23.8746C19.0218 23.4932 19.0218 22.8748 18.6404 22.4935Z" fill="#F2C119"/>
</svg>
