<svg width="50" height="50" viewBox="0 0 50 50" fill="none" xmlns="http://www.w3.org/2000/svg">
<path d="M38.5417 0H3.125C1.39912 0 0 1.40102 0 3.12925V28.1633C0 29.8915 1.39912 31.2925 3.125 31.2925H16.6667V29.2064H3.125C2.54971 29.2064 2.0833 28.7393 2.0833 28.1633V3.12925C2.0833 2.55318 2.54971 2.08614 3.125 2.08614H38.5417C39.117 2.08614 39.5834 2.55318 39.5834 3.12925V21.9048H41.6667V3.12925C41.6667 1.40102 40.2675 0 38.5417 0Z" fill="#F2C119"/>
<rect x="12.585" y="30.272" width="2.04082" height="6.29252" fill="#F2C119"/>
<path d="M7.41499 25.1022C6.83265 25.1022 6.36053 24.6301 6.36053 24.0478V21.939H4.25171V24.0478C4.25171 25.7948 5.66797 27.2111 7.41499 27.2111H9.52382V25.1022H7.41499Z" fill="#F2C119"/>
<rect x="4.25171" y="17.687" width="2.04082" height="2.04082" fill="#F2C119"/>
<path fill-rule="evenodd" clip-rule="evenodd" d="M30.0166 18.7075C33.0166 18.7075 35.8937 19.8994 38.0148 22.0205C42.431 26.438 42.4304 33.5986 38.0133 38.0146C35.8925 40.1353 33.0165 41.3267 30.0175 41.3267C23.7714 41.3267 18.7078 36.2637 18.7075 30.0176C18.7073 23.7715 23.7705 18.708 30.0166 18.7075ZM20.7867 30.0151C20.7849 35.1113 24.9149 39.2441 30.0112 39.2461C35.1075 39.2476 39.2403 35.1177 39.242 30.0215C39.2428 27.5747 38.2719 25.228 36.5429 23.4971C34.8171 21.7588 32.4669 20.7837 30.0175 20.7905C24.9212 20.7886 20.7884 24.9189 20.7867 30.0151Z" fill="#F2C119"/>
<path fill-rule="evenodd" clip-rule="evenodd" d="M43.1345 38.7417L49.694 45.2983C50.102 45.7061 50.102 46.3677 49.694 46.7759L46.7784 49.6909C46.5831 49.8882 46.3172 49.9995 46.0397 50C45.7626 50 45.4968 49.8901 45.3009 49.6938L38.7413 43.1343C38.3334 42.7261 38.3334 42.0649 38.7413 41.6567L41.6569 38.7417C41.8528 38.5459 42.1185 38.4355 42.3957 38.4355C42.6728 38.4355 42.9385 38.5459 43.1345 38.7417ZM40.9577 42.3955L46.0396 47.478L47.4775 46.0405L42.3956 40.958L40.9577 42.3955Z" fill="#F2C119"/>
<rect x="36.5903" y="38.0332" width="2.04082" height="5.10204" transform="rotate(-45 36.5903 38.0332)" fill="#F2C119"/>
<path d="M30.2721 22.959V25.0484C33.1556 25.0518 35.4922 27.3885 35.4956 30.2719H37.585C37.5805 26.235 34.3091 22.9636 30.2721 22.959Z" fill="#F2C119"/>
<rect x="10.3741" y="35.374" width="8.33333" height="2.04082" fill="#F2C119"/>
<path fill-rule="evenodd" clip-rule="evenodd" d="M12.585 7.39795C12.585 5.66016 13.9937 4.25146 15.7313 4.25146C17.4689 4.25146 18.8775 5.66016 18.8775 7.39795C18.8775 9.13525 17.4689 10.5439 15.7313 10.5439C13.9937 10.5439 12.585 9.13525 12.585 7.39795ZM14.6825 7.39746C14.6825 7.97656 15.1521 8.44629 15.7313 8.44629C16.3105 8.44629 16.7801 7.97656 16.7801 7.39746C16.7801 6.81836 16.3105 6.34863 15.7313 6.34863C15.1521 6.34863 14.6825 6.81836 14.6825 7.39746Z" fill="#F2C119"/>
<path fill-rule="evenodd" clip-rule="evenodd" d="M19.7279 14.541C19.7279 12.8032 21.1365 11.3945 22.8742 11.3945C24.6118 11.3945 26.0204 12.8032 26.0204 14.541C26.0204 16.2783 24.6118 17.687 22.8742 17.687C21.1365 17.687 19.7279 16.2783 19.7279 14.541ZM21.8254 14.541C21.8254 15.1201 22.295 15.5898 22.8742 15.5898C23.4534 15.5898 23.9229 15.1201 23.9229 14.541C23.9229 13.9619 23.4534 13.4922 22.8742 13.4922C22.295 13.4922 21.8254 13.9619 21.8254 14.541Z" fill="#F2C119"/>
<rect x="8.68274" y="12.7485" width="7.31293" height="2.04082" transform="rotate(-45 8.68274 12.7485)" fill="#F2C119"/>
<rect x="15.9106" y="9.10547" width="2.04082" height="7.31293" transform="rotate(-45 15.9106 9.10547)" fill="#F2C119"/>
<path fill-rule="evenodd" clip-rule="evenodd" d="M27.0408 7.39795C27.0408 5.66016 28.4495 4.25146 30.1871 4.25146C31.9248 4.25146 33.3334 5.66016 33.3333 7.39795C33.3333 9.13525 31.9247 10.5439 30.1871 10.5439C28.4495 10.5439 27.0408 9.13525 27.0408 7.39795ZM29.1383 7.39746C29.1383 7.97656 29.6079 8.44629 30.1871 8.44629C30.7663 8.44629 31.2359 7.97656 31.2359 7.39746C31.2359 6.81836 30.7663 6.34863 30.1871 6.34863C29.6079 6.34863 29.1383 6.81836 29.1383 7.39746Z" fill="#F2C119"/>
<rect x="23.3086" y="12.7485" width="7.31293" height="2.04082" transform="rotate(-45 23.3086 12.7485)" fill="#F2C119"/>
</svg>
