<svg width="50" height="50" viewBox="0 0 50 50" fill="none" xmlns="http://www.w3.org/2000/svg">
<path fill-rule="evenodd" clip-rule="evenodd" d="M46.875 21.875V23.4521C48.7683 24.8794 50 27.1391 50 29.6875C50 32.6792 48.3085 35.2797 45.8333 36.5918V43.7499C45.8333 46.0473 43.9641 47.9164 41.6666 47.9164H30.0164C29.585 49.1264 28.4395 49.9999 27.0833 49.9999H23.9583C22.2351 49.9999 20.8333 48.5981 20.8333 46.8749C20.8333 45.1518 22.2351 43.7499 23.9583 43.7499H27.0833C28.4395 43.7499 29.5849 44.6235 30.0164 45.8334H41.6666C42.8156 45.8334 43.75 44.8989 43.75 43.7499V37.3427C43.245 37.4453 42.7225 37.5 42.1875 37.5H40.625V21.875H42.1875C43.1016 21.875 43.9757 22.041 44.7916 22.3305V21.875C44.7916 10.9619 35.9131 2.08349 25 2.08349C14.0869 2.08349 5.20831 10.9619 5.20831 21.875V22.3305C6.02428 22.041 6.89837 21.875 7.81249 21.875H9.37499V37.5H7.81249C3.50445 37.5 0 33.9956 0 29.6875C0 27.1391 1.23169 24.8794 3.125 23.4521V21.875C3.125 9.81298 12.9379 0 25 0C37.0621 0 46.875 9.81298 46.875 21.875ZM2.08307 29.6875C2.08307 32.6713 4.37542 35.1294 7.29137 35.3935V23.9819C4.37542 24.2461 2.08307 26.7041 2.08307 29.6875ZM27.0836 47.9169H23.9586C23.3843 47.9169 22.9169 47.4492 22.9169 46.8749C22.9169 46.3007 23.3843 45.8334 23.9586 45.8334H27.0836C27.6578 45.8334 28.1252 46.3007 28.1252 46.8749C28.1252 47.4492 27.6578 47.9169 27.0836 47.9169ZM47.9169 29.6875C47.9169 26.7041 45.6246 24.2461 42.7086 23.9819V35.3935C45.6246 35.1294 47.9169 32.6713 47.9169 29.6875Z" fill="#F2C119"/>
<path fill-rule="evenodd" clip-rule="evenodd" d="M38.5418 17.2788V22.3051L35.3847 22.831C35.1665 23.5771 34.8675 24.2973 34.4906 24.9839L36.3526 27.5903L32.7993 31.144L30.1922 29.2822C29.506 29.6591 28.7858 29.958 28.0392 30.1767L27.5132 33.3339H22.4875L21.9616 30.1767C21.2149 29.958 20.4947 29.6591 19.8085 29.2822L17.2013 31.144L13.6481 27.5903L15.5101 24.9839C15.1332 24.2973 14.8341 23.5776 14.6155 22.831L11.4584 22.3051V17.2788L14.6155 16.7529C14.8341 16.0063 15.1332 15.2861 15.5101 14.6006L13.6481 11.9941L17.2013 8.43944L19.8091 10.3022C20.4947 9.92528 21.2149 9.62645 21.9616 9.4077L22.4875 6.25048H27.5132L28.0392 9.4077C28.4369 9.5244 28.8272 9.66356 29.2087 9.82518C29.5433 9.96678 29.8712 10.126 30.1916 10.3022L32.7993 8.43944L36.3526 11.9941L34.4906 14.6006C34.8675 15.2861 35.1665 16.0063 35.3847 16.7529L38.5418 17.2788ZM33.5279 21.6904L33.68 21.0034L36.4586 20.5405V19.0439L33.68 18.581L33.5279 17.894C33.3097 16.9072 32.9206 15.9702 32.3703 15.1074L31.9924 14.5141L33.6317 12.2187L32.5738 11.1611L30.2793 12.8003L29.6863 12.4223C28.8231 11.8725 27.8847 11.4829 26.898 11.2646L26.2113 11.1123L25.7485 8.33397H24.2526L23.7898 11.1123L23.1031 11.2646C22.1164 11.4829 21.178 11.8725 20.3149 12.4223L19.7218 12.8003L17.4273 11.1611L16.3694 12.2187L18.0087 14.5141L17.6308 15.1074C17.081 15.9697 16.6914 16.9072 16.4727 17.8945L16.3201 18.581L13.542 19.0439V20.5405L16.3201 21.0034L16.4727 21.6899C16.6909 22.6767 17.081 23.6147 17.6308 24.477L18.0087 25.0703L16.3694 27.3657L17.4273 28.4233L19.7218 26.7841L20.3149 27.1621C21.178 27.7119 22.1164 28.1015 23.1031 28.3198L23.7898 28.4726L24.2526 31.2505H25.7485L26.2113 28.4726L26.898 28.3198C27.8847 28.1015 28.8231 27.7119 29.6863 27.1621L30.2793 26.7841L32.5738 28.4233L33.6317 27.3657L31.9924 25.0703L32.3703 24.477C32.9206 23.6142 33.3103 22.6762 33.5279 21.6904Z" fill="#DCB321"/>
<path fill-rule="evenodd" clip-rule="evenodd" d="M19.0674 19.792C19.0674 16.5205 21.7286 13.8589 25 13.8589C28.2715 13.8589 30.9332 16.5205 30.9332 19.792C30.9332 23.0634 28.2715 25.7251 25 25.7251C21.7286 25.7251 19.0674 23.0634 19.0674 19.792ZM21.1505 19.792C21.1505 21.915 22.8774 23.6421 24.9998 23.6421C27.1228 23.6421 28.8496 21.915 28.8496 19.792C28.8496 17.6689 27.1228 15.9424 24.9998 15.9424C22.8774 15.9424 21.1505 17.6689 21.1505 19.792Z" fill="#DCB321"/>
</svg>
