<svg width="24" height="24" viewBox="0 0 24 24" fill="none" xmlns="http://www.w3.org/2000/svg">
<mask id="path-1-outside-1" maskUnits="userSpaceOnUse" x="-0.892465" y="-0.892586" width="25.7851" height="25.7851" fill="black">
<rect fill="white" x="-0.892465" y="-0.892586" width="25.7851" height="25.7851"/>
<path d="M23.15 9.25485H21.5707C21.3632 8.53018 21.0745 7.8339 20.7079 7.17433L21.8254 6.05684C22.1186 5.76366 22.1186 5.28818 21.8254 4.99492L19.0051 2.17464C18.8643 2.03387 18.6733 1.95474 18.4742 1.95474C18.2751 1.95474 18.0841 2.03387 17.9433 2.17464L16.8257 3.29227C16.1663 2.92566 15.4701 2.63698 14.7453 2.42946V0.850018C14.7453 0.43543 14.4091 0.0991493 13.9944 0.0991493H10.0058C9.59121 0.0991493 9.25492 0.435355 9.25492 0.850018V2.42608C8.52875 2.63308 7.83111 2.92153 7.17034 3.28807L6.05691 2.17457C5.91606 2.03379 5.72513 1.95466 5.52602 1.95466C5.32691 1.95466 5.13591 2.03379 4.99513 2.17457L2.17485 4.99507C1.88166 5.28826 1.88166 5.76373 2.17485 6.05699L3.2849 7.16697C2.91648 7.82872 2.62637 8.5274 2.41803 9.255H0.850141C0.435477 9.25492 0.0992704 9.59121 0.0992704 10.0058V13.9943C0.0992704 14.4089 0.435477 14.7452 0.850141 14.7452H2.41472C2.62254 15.4742 2.91235 16.1743 3.28084 16.8372L2.17485 17.9431C1.88166 18.2363 1.88166 18.7118 2.17485 19.005L4.99521 21.8253C5.13598 21.9661 5.32699 22.0452 5.5261 22.0452C5.72521 22.0452 5.91614 21.9661 6.05698 21.8253L7.16298 20.7193C7.82593 21.0877 8.5259 21.3776 9.25492 21.5854V23.1499C9.25492 23.5645 9.59113 23.9008 10.0058 23.9008H13.9944C14.409 23.9008 14.7453 23.5646 14.7453 23.1499V21.5821C15.4729 21.3739 16.1716 21.0837 16.8332 20.7153L17.9433 21.8253C18.0841 21.9661 18.2751 22.0452 18.4742 22.0452C18.6733 22.0452 18.8643 21.9661 19.0051 21.8253L21.8254 19.005C22.1186 18.7118 22.1186 18.2363 21.8254 17.943L20.7119 16.8296C21.0785 16.1686 21.367 15.4711 21.5739 14.745H23.1501C23.5646 14.745 23.9009 14.4088 23.9009 13.9942V10.0056C23.9008 9.59113 23.5646 9.25485 23.15 9.25485ZM22.3992 13.2434H20.9893C20.6368 13.2434 20.3317 13.4886 20.256 13.8329C20.0438 14.7975 19.6666 15.7097 19.1349 16.5442C18.9457 16.8412 18.9883 17.2297 19.2372 17.4786L20.2326 18.4739L18.4741 20.2324L17.4814 19.2397C17.2321 18.9905 16.8428 18.9483 16.5458 19.1381C15.7114 19.672 14.7983 20.0511 13.832 20.2651C13.4882 20.3412 13.2435 20.646 13.2435 20.9982V22.3991H10.7566V21.0007C10.7566 20.6483 10.5114 20.3432 10.1671 20.2673C9.19959 20.0544 8.28527 19.6759 7.44926 19.1423C7.15225 18.9528 6.76333 18.995 6.51429 19.2442L5.52602 20.2325L3.76751 18.474L4.75578 17.4858C5.00482 17.2367 5.04731 16.8478 4.85766 16.5508C4.32422 15.715 3.9456 14.8005 3.7326 13.8328C3.65677 13.4886 3.35179 13.2434 2.99922 13.2434H1.60094V10.7566H3.00185C3.35389 10.7566 3.65879 10.5119 3.735 10.1681C3.94898 9.20192 4.32798 8.28888 4.86187 7.45415C5.05174 7.15713 5.00955 6.76792 4.76021 6.51866L3.76751 5.52603L5.52602 3.76745L6.52135 4.76278C6.77032 5.01174 7.1587 5.05416 7.45572 4.86511C8.29008 4.33362 9.20229 3.95635 10.1671 3.74403C10.5114 3.6682 10.7566 3.36322 10.7566 3.01065V1.60089H13.2435V3.01328C13.2435 3.36533 13.4882 3.67022 13.832 3.74643C14.7956 3.9598 15.7064 4.33753 16.5394 4.86924C16.8363 5.05866 17.2252 5.01647 17.4743 4.76736L18.4741 3.7676L20.2326 5.52611L19.2328 6.52564C18.9838 6.77475 18.9413 7.16351 19.1309 7.46053C19.6626 8.29376 20.0404 9.20462 20.2537 10.168C20.3298 10.5118 20.6346 10.7565 20.9869 10.7565H22.3992V13.2434Z"/>
</mask>
<path d="M23.15 9.25485H21.5707C21.3632 8.53018 21.0745 7.8339 20.7079 7.17433L21.8254 6.05684C22.1186 5.76366 22.1186 5.28818 21.8254 4.99492L19.0051 2.17464C18.8643 2.03387 18.6733 1.95474 18.4742 1.95474C18.2751 1.95474 18.0841 2.03387 17.9433 2.17464L16.8257 3.29227C16.1663 2.92566 15.4701 2.63698 14.7453 2.42946V0.850018C14.7453 0.43543 14.4091 0.0991493 13.9944 0.0991493H10.0058C9.59121 0.0991493 9.25492 0.435355 9.25492 0.850018V2.42608C8.52875 2.63308 7.83111 2.92153 7.17034 3.28807L6.05691 2.17457C5.91606 2.03379 5.72513 1.95466 5.52602 1.95466C5.32691 1.95466 5.13591 2.03379 4.99513 2.17457L2.17485 4.99507C1.88166 5.28826 1.88166 5.76373 2.17485 6.05699L3.2849 7.16697C2.91648 7.82872 2.62637 8.5274 2.41803 9.255H0.850141C0.435477 9.25492 0.0992704 9.59121 0.0992704 10.0058V13.9943C0.0992704 14.4089 0.435477 14.7452 0.850141 14.7452H2.41472C2.62254 15.4742 2.91235 16.1743 3.28084 16.8372L2.17485 17.9431C1.88166 18.2363 1.88166 18.7118 2.17485 19.005L4.99521 21.8253C5.13598 21.9661 5.32699 22.0452 5.5261 22.0452C5.72521 22.0452 5.91614 21.9661 6.05698 21.8253L7.16298 20.7193C7.82593 21.0877 8.5259 21.3776 9.25492 21.5854V23.1499C9.25492 23.5645 9.59113 23.9008 10.0058 23.9008H13.9944C14.409 23.9008 14.7453 23.5646 14.7453 23.1499V21.5821C15.4729 21.3739 16.1716 21.0837 16.8332 20.7153L17.9433 21.8253C18.0841 21.9661 18.2751 22.0452 18.4742 22.0452C18.6733 22.0452 18.8643 21.9661 19.0051 21.8253L21.8254 19.005C22.1186 18.7118 22.1186 18.2363 21.8254 17.943L20.7119 16.8296C21.0785 16.1686 21.367 15.4711 21.5739 14.745H23.1501C23.5646 14.745 23.9009 14.4088 23.9009 13.9942V10.0056C23.9008 9.59113 23.5646 9.25485 23.15 9.25485ZM22.3992 13.2434H20.9893C20.6368 13.2434 20.3317 13.4886 20.256 13.8329C20.0438 14.7975 19.6666 15.7097 19.1349 16.5442C18.9457 16.8412 18.9883 17.2297 19.2372 17.4786L20.2326 18.4739L18.4741 20.2324L17.4814 19.2397C17.2321 18.9905 16.8428 18.9483 16.5458 19.1381C15.7114 19.672 14.7983 20.0511 13.832 20.2651C13.4882 20.3412 13.2435 20.646 13.2435 20.9982V22.3991H10.7566V21.0007C10.7566 20.6483 10.5114 20.3432 10.1671 20.2673C9.19959 20.0544 8.28527 19.6759 7.44926 19.1423C7.15225 18.9528 6.76333 18.995 6.51429 19.2442L5.52602 20.2325L3.76751 18.474L4.75578 17.4858C5.00482 17.2367 5.04731 16.8478 4.85766 16.5508C4.32422 15.715 3.9456 14.8005 3.7326 13.8328C3.65677 13.4886 3.35179 13.2434 2.99922 13.2434H1.60094V10.7566H3.00185C3.35389 10.7566 3.65879 10.5119 3.735 10.1681C3.94898 9.20192 4.32798 8.28888 4.86187 7.45415C5.05174 7.15713 5.00955 6.76792 4.76021 6.51866L3.76751 5.52603L5.52602 3.76745L6.52135 4.76278C6.77032 5.01174 7.1587 5.05416 7.45572 4.86511C8.29008 4.33362 9.20229 3.95635 10.1671 3.74403C10.5114 3.6682 10.7566 3.36322 10.7566 3.01065V1.60089H13.2435V3.01328C13.2435 3.36533 13.4882 3.67022 13.832 3.74643C14.7956 3.9598 15.7064 4.33753 16.5394 4.86924C16.8363 5.05866 17.2252 5.01647 17.4743 4.76736L18.4741 3.7676L20.2326 5.52611L19.2328 6.52564C18.9838 6.77475 18.9413 7.16351 19.1309 7.46053C19.6626 8.29376 20.0404 9.20462 20.2537 10.168C20.3298 10.5118 20.6346 10.7565 20.9869 10.7565H22.3992V13.2434Z" fill="#708090"/>
<path d="M23.15 9.25485H21.5707C21.3632 8.53018 21.0745 7.8339 20.7079 7.17433L21.8254 6.05684C22.1186 5.76366 22.1186 5.28818 21.8254 4.99492L19.0051 2.17464C18.8643 2.03387 18.6733 1.95474 18.4742 1.95474C18.2751 1.95474 18.0841 2.03387 17.9433 2.17464L16.8257 3.29227C16.1663 2.92566 15.4701 2.63698 14.7453 2.42946V0.850018C14.7453 0.43543 14.4091 0.0991493 13.9944 0.0991493H10.0058C9.59121 0.0991493 9.25492 0.435355 9.25492 0.850018V2.42608C8.52875 2.63308 7.83111 2.92153 7.17034 3.28807L6.05691 2.17457C5.91606 2.03379 5.72513 1.95466 5.52602 1.95466C5.32691 1.95466 5.13591 2.03379 4.99513 2.17457L2.17485 4.99507C1.88166 5.28826 1.88166 5.76373 2.17485 6.05699L3.2849 7.16697C2.91648 7.82872 2.62637 8.5274 2.41803 9.255H0.850141C0.435477 9.25492 0.0992704 9.59121 0.0992704 10.0058V13.9943C0.0992704 14.4089 0.435477 14.7452 0.850141 14.7452H2.41472C2.62254 15.4742 2.91235 16.1743 3.28084 16.8372L2.17485 17.9431C1.88166 18.2363 1.88166 18.7118 2.17485 19.005L4.99521 21.8253C5.13598 21.9661 5.32699 22.0452 5.5261 22.0452C5.72521 22.0452 5.91614 21.9661 6.05698 21.8253L7.16298 20.7193C7.82593 21.0877 8.5259 21.3776 9.25492 21.5854V23.1499C9.25492 23.5645 9.59113 23.9008 10.0058 23.9008H13.9944C14.409 23.9008 14.7453 23.5646 14.7453 23.1499V21.5821C15.4729 21.3739 16.1716 21.0837 16.8332 20.7153L17.9433 21.8253C18.0841 21.9661 18.2751 22.0452 18.4742 22.0452C18.6733 22.0452 18.8643 21.9661 19.0051 21.8253L21.8254 19.005C22.1186 18.7118 22.1186 18.2363 21.8254 17.943L20.7119 16.8296C21.0785 16.1686 21.367 15.4711 21.5739 14.745H23.1501C23.5646 14.745 23.9009 14.4088 23.9009 13.9942V10.0056C23.9008 9.59113 23.5646 9.25485 23.15 9.25485ZM22.3992 13.2434H20.9893C20.6368 13.2434 20.3317 13.4886 20.256 13.8329C20.0438 14.7975 19.6666 15.7097 19.1349 16.5442C18.9457 16.8412 18.9883 17.2297 19.2372 17.4786L20.2326 18.4739L18.4741 20.2324L17.4814 19.2397C17.2321 18.9905 16.8428 18.9483 16.5458 19.1381C15.7114 19.672 14.7983 20.0511 13.832 20.2651C13.4882 20.3412 13.2435 20.646 13.2435 20.9982V22.3991H10.7566V21.0007C10.7566 20.6483 10.5114 20.3432 10.1671 20.2673C9.19959 20.0544 8.28527 19.6759 7.44926 19.1423C7.15225 18.9528 6.76333 18.995 6.51429 19.2442L5.52602 20.2325L3.76751 18.474L4.75578 17.4858C5.00482 17.2367 5.04731 16.8478 4.85766 16.5508C4.32422 15.715 3.9456 14.8005 3.7326 13.8328C3.65677 13.4886 3.35179 13.2434 2.99922 13.2434H1.60094V10.7566H3.00185C3.35389 10.7566 3.65879 10.5119 3.735 10.1681C3.94898 9.20192 4.32798 8.28888 4.86187 7.45415C5.05174 7.15713 5.00955 6.76792 4.76021 6.51866L3.76751 5.52603L5.52602 3.76745L6.52135 4.76278C6.77032 5.01174 7.1587 5.05416 7.45572 4.86511C8.29008 4.33362 9.20229 3.95635 10.1671 3.74403C10.5114 3.6682 10.7566 3.36322 10.7566 3.01065V1.60089H13.2435V3.01328C13.2435 3.36533 13.4882 3.67022 13.832 3.74643C14.7956 3.9598 15.7064 4.33753 16.5394 4.86924C16.8363 5.05866 17.2252 5.01647 17.4743 4.76736L18.4741 3.7676L20.2326 5.52611L19.2328 6.52564C18.9838 6.77475 18.9413 7.16351 19.1309 7.46053C19.6626 8.29376 20.0404 9.20462 20.2537 10.168C20.3298 10.5118 20.6346 10.7565 20.9869 10.7565H22.3992V13.2434Z" stroke="#708090" stroke-width="0.2" mask="url(#path-1-outside-1)"/>
<path d="M16.9363 7.09878L16.9363 7.09878L16.9178 7.08031L16.9178 7.0803C16.6052 6.76783 16.0985 6.76784 15.7858 7.0803L15.7858 7.08031C15.4732 7.39286 15.4732 7.89973 15.7858 8.21235L15.7858 8.21243L15.8043 8.23084C15.8043 8.23084 15.8043 8.23084 15.8043 8.23084C15.9606 8.38705 16.1655 8.46526 16.3703 8.46526C16.575 8.46526 16.7799 8.38705 16.9362 8.23084L16.9362 8.23083C17.2488 7.9182 17.2488 7.41141 16.9363 7.09878Z" fill="#708090" stroke="#708090" stroke-width="0.1"/>
<path d="M17.1175 10.4214C16.9876 9.99885 17.225 9.55104 17.6475 9.42128C18.0697 9.29129 18.5178 9.5287 18.6477 9.95129C19.407 12.4225 18.7438 15.0926 16.9173 16.9195L16.8822 16.8845L16.9173 16.9196C15.6033 18.2335 13.8561 18.9573 11.9977 18.9573C10.1393 18.9573 8.39205 18.2335 7.07809 16.9196C5.76406 15.6056 5.04032 13.8583 5.04032 12C5.04032 10.1416 5.76406 8.39435 7.07809 7.0804L7.07811 7.08038C7.39088 6.76794 7.89758 6.768 8.21013 7.08039L8.21015 7.08041C8.52269 7.39303 8.52269 7.8999 8.21014 8.21245L8.21014 8.21245C7.19828 9.22416 6.64124 10.5692 6.64124 12C6.64124 12.7132 6.78091 13.4045 7.04517 14.0443C7.42885 13.3241 8.12477 12.7872 8.97235 12.6292L9.13206 12.5994C9.09004 12.4059 9.06729 12.2051 9.06729 11.9991V10.4196C9.06729 8.85552 10.3397 7.5831 11.9038 7.5831H12.0959C13.66 7.5831 14.9324 8.85552 14.9324 10.4196V11.9991C14.9324 12.2052 14.9097 12.4058 14.8677 12.5994L15.0274 12.6292L15.0184 12.6779M17.1175 10.4214C17.1175 10.4214 17.1175 10.4214 17.1175 10.4214L17.1649 10.4069L17.1175 10.4214ZM17.1175 10.4214C17.4902 11.6348 17.4178 12.9102 16.9521 14.0398M16.9521 14.0398C16.5679 13.3217 15.8731 12.7868 15.0275 12.6292L15.0184 12.6779M16.9521 14.0398C16.9439 14.0596 16.9356 14.0794 16.9272 14.0991C16.554 13.3758 15.8628 12.8353 15.0184 12.6779M16.9521 14.0398C16.9622 14.0588 16.9722 14.0779 16.9819 14.0971L14.8567 12.6478L15.0184 12.6779M10.6681 10.4194C10.6681 9.73804 11.2225 9.18371 11.9038 9.18371H12.0959C12.7772 9.18371 13.3316 9.73804 13.3316 10.4194V11.9989C13.3316 12.6802 12.7772 13.2345 12.0959 13.2345H11.9038C11.2225 13.2345 10.6681 12.6802 10.6681 11.9989V10.4194ZM15.677 15.3379V15.8903C14.6784 16.836 13.3785 17.3562 11.9977 17.3562C10.6189 17.3562 9.32071 16.8376 8.32272 15.8946V15.3379C8.32272 14.782 8.71931 14.3045 9.26584 14.2026L9.97018 14.0712C10.4771 14.5446 11.157 14.8354 11.9038 14.8354H12.0959C12.8428 14.8354 13.5226 14.5447 14.0295 14.0712L14.7339 14.2026C15.2803 14.3045 15.677 14.7819 15.677 15.3379Z" fill="#708090" stroke="#708090" stroke-width="0.1"/>
</svg>
