<svg width="19" height="16" viewBox="0 0 19 16" fill="none" xmlns="http://www.w3.org/2000/svg">
<path d="M19 1.82602C18.3007 2.13589 17.5503 2.34604 16.762 2.43986C17.567 1.95781 18.1832 1.19321 18.4752 0.284938C17.7201 0.731346 16.8866 1.0555 15.9985 1.23121C15.2874 0.472548 14.2758 0 13.1538 0C11.0013 0 9.25596 1.7453 9.25596 3.89665C9.25596 4.20177 9.29039 4.49978 9.35689 4.78475C6.11801 4.62207 3.24599 3.07031 1.32379 0.712346C0.987784 1.287 0.796635 1.9566 0.796635 2.67137C0.796635 4.02369 1.48526 5.21691 2.53008 5.915C1.89131 5.89364 1.29054 5.71792 0.764596 5.42584V5.47452C0.764596 7.36229 2.1086 8.93781 3.89069 9.29639C3.56418 9.38425 3.21988 9.43293 2.8637 9.43293C2.61201 9.43293 2.36861 9.408 2.12996 9.3605C2.62623 10.9099 4.06523 12.0366 5.77017 12.0675C4.43685 13.1123 2.75566 13.7333 0.929636 13.7333C0.615017 13.7333 0.305118 13.7143 0 13.6798C1.72512 14.7876 3.77318 15.4335 5.97439 15.4335C13.1444 15.4335 17.0636 9.49468 17.0636 4.34427L17.0505 3.83968C17.8163 3.29349 18.4788 2.60726 19 1.82602Z" fill="#94989c"/>
</svg>
