<svg width="17" height="14" viewBox="0 0 17 14" fill="none" xmlns="http://www.w3.org/2000/svg">
<path d="M16.8222 4.38308L12.5722 0.175964C12.335 -0.0587134 11.9506 -0.0586429 11.7135 0.176105C11.5997 0.288795 11.5358 0.441561 11.5358 0.600912V2.40396H7.28569C6.95035 2.40396 6.67852 2.67304 6.67852 3.00498C6.67852 3.33693 6.95035 3.60601 7.28569 3.60601H12.1429C12.4783 3.60601 12.7501 3.33693 12.7501 3.00498V2.05173L15.5345 4.80799L12.7501 7.56425V6.61104C12.7501 6.27909 12.4783 6.01001 12.1429 6.01001H5.46423V4.20697C5.46416 3.87502 5.19226 3.60601 4.85696 3.60608C4.69602 3.60612 4.54166 3.6694 4.42782 3.78205L0.177779 7.98917C-0.0592595 8.22388 -0.0592595 8.60432 0.177779 8.83899L4.42785 13.0461C4.54169 13.1588 4.69609 13.2222 4.8571 13.2222C4.9369 13.2225 5.01598 13.2069 5.08962 13.1765C5.31645 13.0834 5.4643 12.8643 5.46423 12.6212V10.8182H9.7143C10.0496 10.8182 10.3215 10.5491 10.3215 10.2171C10.3215 9.88518 10.0496 9.6161 9.7143 9.6161H4.8571C4.52177 9.6161 4.24994 9.88518 4.24994 10.2171V11.1703L1.46553 8.41408L4.24994 5.65782V6.61104C4.24994 6.94298 4.52177 7.21206 4.8571 7.21206H11.5358V9.01511C11.5358 9.34705 11.8077 9.61606 12.143 9.61599C12.304 9.61596 12.4583 9.55267 12.5722 9.44002L16.8222 5.2329C17.0593 4.99819 17.0593 4.61776 16.8222 4.38308Z" fill="#C4C7D6"/>
</svg>
