<svg width="49" height="45" viewBox="0 0 49 45" fill="none" xmlns="http://www.w3.org/2000/svg">
<path fill-rule="evenodd" clip-rule="evenodd" d="M48.9133 23.5231C48.9133 24.0882 48.4575 24.5458 47.8942 24.5458C45.0848 24.5458 42.7989 26.84 42.799 29.6592C42.799 32.4789 45.0849 34.7731 47.8943 34.7731C48.4576 34.7731 48.9134 35.2303 48.9134 35.7958V40.9093C48.9134 43.1653 47.0852 45 44.8371 45H10.1891C7.94092 45 6.11283 43.1653 6.11283 40.9093V35.7958C6.11283 35.2303 6.56864 34.7731 7.13193 34.7731C9.3984 34.7731 11.3014 33.2699 11.9611 31.2121C11.2996 29.0846 9.35637 27.6139 7.13193 27.6139C6.21935 27.6139 5.33954 27.8665 4.51754 28.3638C4.28264 28.5057 4.00004 28.5467 3.7353 28.478C3.46959 28.4092 3.2427 28.2353 3.10639 27.9955L0.538805 23.4911C-0.572728 21.5437 0.0909317 19.0407 2.01963 17.9143L31.7374 0.551127C32.6709 0.00563042 33.7615 -0.141014 34.8045 0.138422C35.8525 0.420246 36.7282 1.09806 37.2706 2.04718L39.7536 6.39969C39.889 6.63852 39.9237 6.92178 39.8491 7.18545C39.7755 7.45056 39.5973 7.6741 39.3575 7.80594C37.7086 8.70969 36.6845 10.4216 36.6845 12.2731C36.6845 12.9896 36.8739 13.6684 37.1665 14.3185H44.837C47.0852 14.3185 48.9133 16.1532 48.9133 18.4097V23.5231ZM34.2765 2.11405C33.765 1.9741 33.2236 2.04861 32.7629 2.3185L12.2237 14.3185H34.9608C34.7596 13.6545 34.6458 12.9667 34.6458 12.2731C34.6458 10.0209 35.7196 7.91867 37.5039 6.57499L35.5007 3.06366C35.231 2.59124 34.797 2.25353 34.2765 2.11405ZM7.13145 25.5685C6.19905 25.5685 5.26849 25.7624 4.39376 26.136L2.30791 22.4756C1.74957 21.4988 2.08101 20.2454 3.04429 19.6822L6.16818 17.857L6.1557 17.9459C6.13408 18.0987 6.11247 18.2516 6.11247 18.4097V23.5231C6.11247 24.0887 6.56828 24.5458 7.13157 24.5458C9.0066 24.5458 10.6303 25.5795 11.5151 27.097C10.2948 26.1336 8.76609 25.5685 7.13145 25.5685ZM46.8752 36.745C43.423 36.2477 40.7608 33.2594 40.7608 29.6592C40.7608 26.0586 43.423 23.0703 46.8752 22.573V18.4092C46.8752 17.2819 45.9606 16.3638 44.8371 16.3638H20.3797V18.6648C20.3797 19.2303 19.9239 19.6879 19.3606 19.6879C18.7973 19.6879 18.3415 19.2303 18.3415 18.6648V16.3638H10.1891C9.06553 16.3638 8.15097 17.2819 8.15097 18.4092V22.573C11.6032 23.0703 14.2653 26.0586 14.2653 29.6592C14.2653 33.2594 11.6032 36.2477 8.15097 36.745V40.9088C8.15097 42.0366 9.06553 42.9542 10.1891 42.9542H18.3415V41.1643C18.3415 40.5992 18.7973 40.1416 19.3606 40.1416C19.9239 40.1416 20.3797 40.5992 20.3797 41.1643V42.9542H44.8371C45.9606 42.9542 46.8752 42.0366 46.8752 40.9088V36.745Z" fill="#F2C119"/>
<path d="M19.361 23.7783C18.7977 23.7783 18.3419 24.2357 18.3419 24.801V26.8464C18.3419 27.4117 18.7977 27.8692 19.361 27.8692C19.9243 27.8692 20.3801 27.4117 20.3801 26.8464V24.801C20.3801 24.2357 19.9243 23.7783 19.361 23.7783Z" fill="#F2C119"/>
<path d="M19.361 31.9603C18.7977 31.9603 18.3419 32.4177 18.3419 32.983V35.0284C18.3419 35.5937 18.7977 36.0512 19.361 36.0512C19.9243 36.0512 20.3801 35.5937 20.3801 35.0284V32.983C20.3801 32.4177 19.9243 31.9603 19.361 31.9603Z" fill="#F2C119"/>
<path d="M38.3143 20.6595C37.8655 20.323 37.2256 20.4128 36.8882 20.8642L24.6595 37.2277C24.3211 37.6791 24.4128 38.3204 24.8635 38.6589C25.0466 38.7968 25.2605 38.8636 25.4735 38.8636C25.784 38.8636 26.0895 38.7228 26.2896 38.4541L38.5183 22.0906C38.8567 21.6392 38.7651 20.9981 38.3143 20.6595Z" fill="#F2C119"/>
<path fill-rule="evenodd" clip-rule="evenodd" d="M30.5705 24.5454C30.5705 26.8397 29.2281 28.6366 27.5134 28.6366C25.7987 28.6366 24.4562 26.8397 24.4562 24.5454C24.4562 22.2517 25.7987 20.4547 27.5134 20.4547C29.2281 20.4547 30.5705 22.2517 30.5705 24.5454ZM28.5321 24.5454C28.5321 23.2973 27.9289 22.5001 27.513 22.5001C27.097 22.5001 26.4939 23.2968 26.4939 24.5454C26.4939 25.7936 27.097 26.5908 27.513 26.5908C27.9289 26.5908 28.5321 25.794 28.5321 24.5454Z" fill="#F2C119"/>
<path fill-rule="evenodd" clip-rule="evenodd" d="M32.6084 34.7723C32.6084 32.4785 33.9509 30.6815 35.6656 30.6815C37.3803 30.6815 38.7227 32.4785 38.7227 34.7723C38.7227 37.0665 37.3803 38.8635 35.6656 38.8635C33.9509 38.8635 32.6084 37.0665 32.6084 34.7723ZM34.6464 34.7723C34.6464 36.0204 35.2495 36.8177 35.6655 36.8177C36.0814 36.8177 36.6846 36.0204 36.6846 34.7723C36.6846 33.5241 36.0814 32.7269 35.6655 32.7269C35.2495 32.7269 34.6464 33.5241 34.6464 34.7723Z" fill="#F2C119"/>
</svg>
