<svg width="22" height="24" viewBox="0 0 22 24" fill="none" xmlns="http://www.w3.org/2000/svg">
<path d="M19.2941 7.55631H16.15C16.4801 6.86204 16.6545 6.09679 16.6545 5.30659C16.6545 2.43538 14.3392 0.0981663 11.4913 0.0981663C8.64334 0.0981663 6.32806 2.43538 6.32806 5.30659C6.32806 6.09816 6.50221 6.86281 6.83196 7.55631H2.7063C1.2674 7.55631 0.0984061 8.737 0.0984061 10.1866V21.2357C0.0984061 22.6853 1.2674 23.866 2.7063 23.866H19.2941C20.733 23.866 21.902 22.6853 21.902 21.2357V10.1866C21.902 8.737 20.733 7.55631 19.2941 7.55631ZM11.4913 1.67573C13.4742 1.67573 15.0891 3.30377 15.0891 5.30659C15.0891 6.13223 14.8163 6.91773 14.3151 7.55631H14.3045H14.2901H14.2758H14.2614H14.2472H14.2329H14.2187H14.2046H14.1905H14.1764H14.1623H14.1483H14.1344H14.1204H14.1066H14.0927H14.0789H14.0651H14.0514H14.0377H14.024H14.0104H13.9968H13.9832H13.9697H13.9562H13.9428H13.9294H13.916H13.9027H13.8894H13.8761H13.8629H13.8497H13.8365H13.8234H13.8103H13.7972H13.7842H13.7712H13.7582H13.7453H13.7324H13.7195H13.7067H13.6939H13.6812H13.6684H13.6557H13.6431H13.6304H13.6178H13.6053H13.5927H13.5802H13.5677H13.5553H13.5429H13.5305H13.5182H13.5058H13.4936H13.4813H13.4691H13.4569H13.4447H13.4326H13.4204H13.4084H13.3963H13.3843H13.3723H13.3603H13.3484H13.3365H13.3246H13.3127H13.3009H13.2891H13.2773H13.2656H13.2539H13.2422H13.2305H13.2189H13.2073H13.1957H13.1841H13.1726H13.1611H13.1496H13.1381H13.1267H13.1153H13.1039H13.0926H13.0812H13.0699H13.0587H13.0474H13.0362H13.025H13.0138H13.0026H12.9915H12.9803H12.9693H12.9582H12.9471H12.9361H12.9251H12.9141H12.9032H12.8922H12.8813H12.8704H12.8596H12.8487H12.8379H12.8271H12.8163H12.8055H12.7948H12.784H12.7733H12.7627H12.752H12.7413H12.7307H12.7201H12.7095H12.699H12.6884H12.6779H12.6674H12.6569H12.6464H12.6359H12.6255H12.6151H12.6047H12.5943H12.5839H12.5735H12.5632H12.5529H12.5426H12.5323H12.522H12.5118H12.5015H12.4913H12.4811H12.4709H12.4607H12.4506H12.4404H12.4303H12.4202H12.4101H12.4H12.3899H12.3799H12.3698H12.3598H12.3498H12.3398H12.3298H12.3198H12.3098H12.2999H12.2899H12.28H12.2701H12.2602H12.2503H12.2404H12.2306H12.2207H12.2109H12.201H12.1912H12.1814H12.1716H12.1618H12.152H12.1422H12.1325H12.1227H12.113H12.1033H12.0935H12.0838H12.0741H12.0644H12.0547H12.0451H12.0354H12.0257H12.0161H12.0064H11.9968H11.9872H11.9775H11.9679H11.9583H11.9487H11.9391H11.9295H11.92H11.9104H11.9008H11.8912H11.8817H11.8721H11.8626H11.853H11.8435H11.834H11.8245H11.8149H11.8054H11.7959H11.7864H11.7769H11.7674H11.7579H11.7484H11.7389H11.7294H11.72H11.7105H11.701H11.6915H11.682H11.6726H11.6631H11.6536H11.6442H11.6347H11.6253H11.6158H11.6063H11.5969H11.5874H11.578H11.5685H11.5591H11.5496H11.5401H11.5307H11.5212H11.5118H11.5023H11.4929H11.4834H11.4739H11.4645H11.455H11.4456H11.4361H11.4266H11.4172H11.4077H11.3982H11.3887H11.3793H11.3698H11.3603H11.3508H11.3413H11.3318H11.3223H11.3128H11.3033H11.2938H11.2843H11.2748H11.2652H11.2557H11.2462H11.2366H11.2271H11.2175H11.208H11.1984H11.1888H11.1793H11.1697H11.1601H11.1505H11.1409H11.1313H11.1217H11.1121H11.1024H11.0928H11.0832H11.0735H11.0639H11.0542H11.0445H11.0348H11.0251H11.0154H11.0057H10.996H10.9863H10.9765H10.9668H10.957H10.9473H10.9375H10.9277H10.9179H10.9081H10.8983H10.8884H10.8786H10.8687H10.8589H10.849H10.8391H10.8292H10.8193H10.8094H10.7994H10.7895H10.7795H10.7695H10.7595H10.7495H10.7395H10.7295H10.7194H10.7094H10.6993H10.6892H10.6791H10.669H10.6589H10.6488H10.6386H10.6284H10.6182H10.608H10.5978H10.5876H10.5773H10.5671H10.5568H10.5465H10.5362H10.5258H10.5155H10.5051H10.4947H10.4843H10.4739H10.4635H10.453H10.4425H10.432H10.4215H10.411H10.4005H10.3899H10.3793H10.3687H10.3581H10.3474H10.3368H10.3261H10.3154H10.3047H10.2939H10.2832H10.2724H10.2616H10.2508H10.2399H10.229H10.2182H10.2073H10.1963H10.1854H10.1744H10.1634H10.1524H10.1413H10.1303H10.1192H10.1081H10.0969H10.0858H10.0746H10.0634H10.0522H10.0409H10.0296H10.0183H10.007H9.99564H9.98427H9.97287H9.96144H9.94999H9.93852H9.92701H9.91548H9.90393H9.89235H9.88075H9.86911H9.85745H9.84577H9.83406H9.82232H9.81055H9.79876H9.78693H9.77508H9.76321H9.7513H9.73937H9.72741H9.71542H9.7034H9.69135H9.67927H9.66717H9.65503H9.64287H9.63067H9.61845H9.60619H9.59391H9.5816H9.56925H9.55688H9.54447H9.53203H9.51956H9.50706H9.49453H9.48197H9.46938H9.45675H9.44409H9.4314H9.41868H9.40592H9.39314H9.38032H9.36746H9.35458H9.34166H9.3287H9.31571H9.30269H9.28964H9.27655H9.26342H9.25027H9.23707H9.22385H9.21058H9.19729H9.18395H9.17059H9.15718H9.14374H9.13027H9.11675H9.10321H9.08962H9.076H9.06234H9.04865H9.03492H9.02115H9.00734H8.9935H8.97962H8.9657H8.95174H8.93775H8.92371H8.90964H8.89553H8.88138H8.86719H8.85297H8.8387H8.82439H8.81005H8.79566H8.78124H8.76677H8.75226H8.73772H8.72313H8.7085H8.69383H8.67912H8.66722C8.16586 6.91811 7.8934 6.1341 7.8934 5.30659C7.8934 3.30377 9.50833 1.67573 11.4913 1.67573ZM20.3366 17.6847H16.7388C15.6616 17.6847 14.7836 16.8001 14.7836 15.7112C14.7836 14.6222 15.6616 13.7377 16.7388 13.7377H20.3366V17.6847ZM20.3366 12.1601H16.7388C14.7967 12.1601 13.2183 13.7539 13.2183 15.7112C13.2183 17.6685 14.7967 19.2622 16.7388 19.2622H20.3366V21.2357C20.3366 21.8169 19.868 22.2885 19.2941 22.2885H2.7063C2.13235 22.2885 1.66375 21.8169 1.66375 21.2357V10.1866C1.66375 9.6054 2.13235 9.13388 2.7063 9.13388H19.2941C19.868 9.13388 20.3366 9.6054 20.3366 10.1866V12.1601Z" fill="#708090" stroke="#708090" stroke-width="0.2"/>
<path d="M16.7388 16.5C17.1718 16.5 17.5214 16.146 17.5214 15.7112C17.5214 15.2764 17.1718 14.9224 16.7388 14.9224C16.3057 14.9224 15.9561 15.2764 15.9561 15.7112C15.9561 16.146 16.3057 16.5 16.7388 16.5Z" fill="#708090" stroke="#708090" stroke-width="0.2"/>
<path d="M11.741 7.65453V7.08683C11.8955 7.0767 12.0452 7.0488 12.1899 7.00313C12.3344 6.95751 12.463 6.88988 12.5757 6.80025C12.6883 6.71066 12.7791 6.5957 12.8481 6.45533C12.9169 6.31505 12.9515 6.14517 12.9515 5.9456C12.9515 5.77655 12.9263 5.63286 12.8758 5.51445C12.8254 5.39613 12.753 5.29559 12.6589 5.21267C12.5648 5.12985 12.4513 5.05799 12.3185 4.99712C12.1856 4.93626 12.0368 4.88046 11.8721 4.82978C11.8351 4.8196 11.7998 4.80869 11.7662 4.79677C11.7326 4.78498 11.7007 4.77568 11.6704 4.76887V4.3124C11.7645 4.32934 11.8578 4.35384 11.9504 4.38597C12.0428 4.41815 12.126 4.45277 12.2 4.48992C12.2874 4.53048 12.3681 4.5745 12.4421 4.62178L12.8658 3.8052C12.7952 3.77146 12.7178 3.73509 12.6338 3.69618C12.5497 3.65733 12.4598 3.62008 12.3639 3.58459C12.2681 3.54909 12.168 3.51788 12.0638 3.49076C11.9596 3.46374 11.852 3.44344 11.741 3.4299V2.91262H11.3375V3.42488C11.1794 3.44182 11.0307 3.48068 10.8912 3.54154C10.7516 3.6024 10.6297 3.68352 10.5255 3.78499C10.4212 3.88646 10.3389 4.00735 10.2784 4.14763C10.2178 4.288 10.1876 4.44946 10.1876 4.63204C10.1876 4.7639 10.2052 4.88056 10.2405 4.98198C10.2758 5.0834 10.3304 5.17391 10.4044 5.25332C10.4784 5.33279 10.5725 5.40382 10.6869 5.46634C10.8011 5.52895 10.9374 5.58728 11.0955 5.64133C11.1996 5.67858 11.3039 5.71067 11.4082 5.73774V6.18407C11.2871 6.16722 11.1686 6.13767 11.0526 6.09531C10.9366 6.0531 10.8348 6.00996 10.7474 5.96599C10.6432 5.9153 10.5457 5.86121 10.4549 5.80366L10.0311 6.67092C10.2126 6.77921 10.4177 6.86875 10.6464 6.93974C10.875 7.01073 11.1054 7.0564 11.3374 7.0767V7.65453C-1.40749 7.65453 22.5691 7.65453 11.741 7.65453ZM11.6703 6.19927V5.82397C11.7375 5.85104 11.7914 5.8823 11.8317 5.91779C11.872 5.95329 11.8922 5.99472 11.8922 6.04205C11.8922 6.08601 11.8754 6.12151 11.8418 6.14853C11.8082 6.17565 11.751 6.19254 11.6703 6.19927ZM11.408 4.29725V4.68273C11.3407 4.65571 11.2903 4.62615 11.2567 4.59397C11.223 4.56188 11.2063 4.52045 11.2063 4.46971C11.2063 4.3717 11.2735 4.31424 11.408 4.29725Z" fill="#708090"/>
</svg>
