<svg width="20" height="15" viewBox="0 0 20 15" fill="none" xmlns="http://www.w3.org/2000/svg">
<path d="M19.5682 3.23863C19.5682 3.23863 19.3636 1.77271 18.7841 1.125C18.0341 0.272724 17.1818 0.272724 16.8068 0.238624C14.0455 0.0341002 9.88636 0 9.88636 0C9.88636 0 5.72725 0.0341002 2.96591 0.238624C2.59092 0.272724 1.73865 0.306825 0.988636 1.125C0.374986 1.77275 0.204563 3.23863 0.204563 3.23863C0.204563 3.23863 0 4.97728 0 6.71593V8.31821C0 10.0569 0.204563 11.7614 0.204563 11.7614C0.204563 11.7614 0.409125 13.2273 0.988636 13.875C1.73865 14.7273 2.72728 14.6932 3.17047 14.7955C4.73862 14.9659 9.88636 15 9.88636 15C9.88636 15 14.0455 15 16.8068 14.7614C17.1818 14.7273 18.0341 14.6932 18.7841 13.875C19.3636 13.2273 19.5682 11.7614 19.5682 11.7614C19.5682 11.7614 19.7727 10.0227 19.7727 8.31817V6.71589C19.7727 4.97728 19.5682 3.23863 19.5682 3.23863Z" fill="rgba(255,255,255,.3)"/>
<path d="M7.49999 4.05681V11.4545L13.9773 7.84092L7.49999 4.05681Z" fill="white"/>
</svg>
