<svg width="70" height="70" viewBox="0 0 70 70" fill="none" xmlns="http://www.w3.org/2000/svg">
<path d="M13.9141 34.8868C13.9141 35.4164 14.3378 35.8401 14.8675 35.8401C15.3971 35.8401 15.8208 35.4164 15.8208 34.8868C15.8208 24.5926 24.1216 16.1956 34.3772 16.0319L33.0772 17.3319C32.7016 17.7074 32.7016 18.3045 33.0772 18.68C33.2601 18.863 33.5105 18.9593 33.7512 18.9593C33.992 18.9593 34.2423 18.863 34.4253 18.68L37.3527 15.7526C37.7283 15.3771 37.7283 14.78 37.3527 14.4045L34.4253 11.477C34.0497 11.1015 33.4527 11.1015 33.0772 11.477C32.7016 11.8526 32.7016 12.4496 33.0772 12.8252L34.3868 14.1348C23.0719 14.2793 13.9141 23.5334 13.9141 34.8868Z" fill="#FFCD20"/>
<path d="M54.5033 33.9334C53.9737 33.9334 53.55 34.3571 53.55 34.8867C53.55 45.1808 45.2492 53.5779 34.9936 53.7416L36.2936 52.4416C36.6692 52.066 36.6692 51.469 36.2936 51.0934C35.918 50.7179 35.321 50.7179 34.9454 51.0934L32.018 54.0209C31.8351 54.2038 31.7388 54.4446 31.7388 54.6949C31.7388 54.9453 31.8351 55.186 32.018 55.369L34.9454 58.2964C35.1284 58.4794 35.3788 58.5757 35.6195 58.5757C35.8603 58.5757 36.1106 58.4794 36.2936 58.2964C36.6692 57.9209 36.6692 57.3238 36.2936 56.9483L34.984 55.6386C46.2988 55.4942 55.4566 46.2401 55.4566 34.8867C55.4565 34.3571 55.0329 33.9334 54.5033 33.9334Z" fill="#FFCD20"/>
<path fill-rule="evenodd" clip-rule="evenodd" d="M29.0135 32.5371C29.6394 31.0253 30.8238 29.8409 32.3357 29.2148C33.0867 28.9067 33.8764 28.743 34.6853 28.743C37.1794 28.743 39.4038 30.2355 40.3572 32.5371C40.9831 34.049 40.9831 35.7245 40.3572 37.2363C39.7313 38.7482 38.5468 39.9326 37.0349 40.5587C36.2838 40.8764 35.4941 41.0304 34.6853 41.0304C32.1912 41.0304 29.9667 39.5379 29.0135 37.2363C28.3875 35.7245 28.3875 34.049 29.0135 32.5371ZM38.595 36.5143C39.0283 35.4646 39.0283 34.3186 38.595 33.2691C37.9402 31.6801 36.3995 30.6497 34.6854 30.6497C34.1268 30.6497 33.5875 30.7653 33.0675 30.9772C32.0179 31.4105 31.209 32.2194 30.7757 33.2691C30.3424 34.3186 30.3424 35.4646 30.7757 36.5143C31.4305 38.103 32.9616 39.1334 34.6854 39.1334C35.2439 39.1334 35.7831 39.018 36.3031 38.806C37.3527 38.3726 38.1616 37.5638 38.595 36.5143Z" fill="#FFCD20"/>
<path fill-rule="evenodd" clip-rule="evenodd" d="M36.2164 23.1384L36.6112 22.1852C36.9387 21.386 37.709 20.8755 38.5661 20.8755C38.8453 20.8755 39.1149 20.9333 39.375 21.0392L41.1757 21.7806C41.6957 22.0021 42.1098 22.4067 42.3216 22.9266C42.5335 23.4468 42.5335 24.0245 42.3216 24.5444L41.9267 25.4978C42.7357 26.114 43.4579 26.846 44.0839 27.6548L45.0372 27.26C45.2972 27.154 45.5668 27.0963 45.8461 27.0963C46.7031 27.0963 47.4735 27.6067 47.8009 28.3963L48.5423 30.1971C48.7542 30.717 48.7542 31.2949 48.5423 31.8148C48.3208 32.3347 47.9164 32.749 47.3965 32.9608L46.4431 33.3557C46.578 34.3667 46.578 35.3874 46.4431 36.4081L47.3965 36.803C47.9164 37.0245 48.3305 37.4288 48.5423 37.949C48.7542 38.4689 48.7542 39.0468 48.5423 39.5667L47.8009 41.3675C47.4735 42.1571 46.7031 42.6675 45.8461 42.6675C45.5668 42.6675 45.2972 42.6097 45.0372 42.5038L44.0839 42.1089C43.4676 42.9178 42.7357 43.6401 41.9267 44.2659L42.3216 45.2194C42.5335 45.7393 42.5335 46.317 42.3216 46.8372C42.1001 47.3571 41.6957 47.7711 41.1757 47.9831L39.375 48.7246C39.1149 48.8305 38.8453 48.8883 38.5661 48.8883C37.709 48.8883 36.9387 48.3778 36.6112 47.5883L36.2164 46.6348C35.2053 46.7697 34.1749 46.7697 33.1638 46.6348L32.769 47.5883C32.4416 48.3778 31.6712 48.8883 30.8142 48.8883C30.5349 48.8883 30.2653 48.8305 30.0053 48.7246L28.2045 47.9831C27.126 47.5401 26.6156 46.3074 27.0585 45.2289L27.4534 44.2756C26.6445 43.6592 25.9222 42.9275 25.2964 42.1186L24.3431 42.5135C24.083 42.6194 23.8134 42.6772 23.5342 42.6772C22.6771 42.6772 21.9068 42.1667 21.5793 41.3772L20.8378 39.5764C20.626 39.0563 20.626 38.4786 20.8378 37.9586C21.0593 37.4385 21.4637 37.0245 21.9838 36.8127L22.9371 36.4178C22.8023 35.4068 22.8023 34.3861 22.9371 33.3651L21.9838 32.9705C21.4637 32.749 21.0496 32.3444 20.8378 31.8245C20.626 31.3043 20.626 30.7266 20.8378 30.2067L21.5793 28.4059C21.9068 27.6164 22.6771 27.1059 23.5342 27.1059C23.8134 27.1059 24.083 27.1637 24.3431 27.2696L25.2964 27.6645C25.9127 26.8556 26.6445 26.1333 27.4534 25.5073L27.0585 24.554C26.8467 24.0341 26.8467 23.4562 27.0585 22.9363C27.28 22.4164 27.6845 22.0021 28.2045 21.7903L30.0053 21.0489C30.2653 20.943 30.5349 20.8852 30.8142 20.8852C31.6712 20.8852 32.4416 21.3954 32.769 22.1852L33.1638 23.1384C34.1749 23.0038 35.2053 23.0038 36.2164 23.1384ZM38.3735 22.9075L37.6897 24.5637C37.5165 24.9874 37.0638 25.2185 36.6305 25.1223C35.3498 24.8718 34.0305 24.8718 32.7594 25.1223C32.3165 25.2089 31.8638 24.9777 31.6905 24.554L31.0068 22.8978C30.9682 22.8014 30.8816 22.7726 30.8142 22.7726C30.7853 22.7726 30.7661 22.7822 30.7372 22.7919L28.9364 23.5333C28.869 23.5621 28.8401 23.6105 28.8209 23.6489C28.8015 23.6777 28.792 23.7355 28.8209 23.803L29.5046 25.4592C29.6779 25.8734 29.5238 26.3645 29.1483 26.6148C28.0601 27.3371 27.1453 28.2616 26.4135 29.3497C26.1631 29.7253 25.6816 29.8696 25.2578 29.6963L23.6015 29.0126C23.583 29.0064 23.5684 29.0001 23.5527 28.9964C23.544 28.9945 23.5349 28.9933 23.5245 28.9933C23.4572 28.9933 23.3705 29.0223 23.3319 29.1186L22.5905 30.9194C22.5616 30.9772 22.5713 31.0347 22.5905 31.0734C22.5967 31.092 22.6109 31.1186 22.6384 31.1431C22.6535 31.1566 22.6726 31.1692 22.6964 31.1793L24.3527 31.8629C24.7667 32.0363 25.0076 32.489 24.9209 32.9318C24.6705 34.2223 24.6608 35.5223 24.9209 36.803C25.0076 37.2557 24.7764 37.6985 24.3527 37.8718L22.6964 38.5557C22.6625 38.5668 22.6386 38.5879 22.6208 38.6113C22.6081 38.628 22.5985 38.6456 22.5905 38.6616C22.5713 38.6904 22.5616 38.7482 22.5905 38.8156L23.3319 40.6165C23.3705 40.7127 23.4572 40.7415 23.5245 40.7415C23.5454 40.7415 23.5614 40.7364 23.5794 40.7301L23.6015 40.7224L25.2578 40.0385C25.672 39.8651 26.1631 40.0194 26.4135 40.3949C27.1357 41.4831 28.0601 42.3979 29.1483 43.1296C29.5238 43.3802 29.6682 43.8616 29.495 44.2853L28.8112 45.9415C28.7631 46.0474 28.8112 46.1727 28.9171 46.2111L30.7179 46.9528C30.7347 46.9583 30.7484 46.9639 30.7626 46.9675C30.7726 46.9702 30.7829 46.9719 30.795 46.9719C30.8623 46.9719 30.949 46.9431 30.9876 46.8469L31.6713 45.1904C31.8446 44.7764 32.2971 44.5356 32.7401 44.6224C34.0209 44.8727 35.3401 44.8727 36.6112 44.6224C36.669 44.6127 36.7364 44.603 36.7942 44.603C37.1697 44.603 37.5165 44.8245 37.6705 45.1904L38.3543 46.8469C38.3795 46.91 38.4255 46.9441 38.4731 46.96C38.4981 46.9685 38.5237 46.9719 38.5469 46.9719C38.5571 46.9719 38.5662 46.9707 38.5749 46.9687C38.5908 46.9651 38.6053 46.9588 38.6239 46.9528L40.4246 46.2111C40.4728 46.1976 40.5013 46.169 40.5207 46.1398C40.5284 46.1282 40.5347 46.1163 40.5402 46.1052C40.5594 46.0764 40.5691 46.0186 40.5402 45.9512L39.8564 44.295C39.6832 43.8807 39.8372 43.3896 40.2127 43.1393C41.3009 42.417 42.2157 41.4926 42.9476 40.4044C43.198 40.0288 43.6794 39.8845 44.1031 40.0579L45.7594 40.7415C45.7883 40.7511 45.8076 40.7608 45.8364 40.7608C45.9039 40.7608 45.9906 40.7318 46.029 40.6356L46.7706 38.8347C46.7995 38.7772 46.7898 38.7194 46.7706 38.6807C46.7609 38.6519 46.732 38.6038 46.6646 38.5748L45.0083 37.8912C44.5942 37.7178 44.3535 37.2651 44.4402 36.8224C44.6906 35.5318 44.7001 34.2318 44.4402 32.9511C44.3535 32.4984 44.5847 32.0557 45.0083 31.8823L46.6646 31.1984C46.7609 31.1503 46.8091 31.0347 46.7706 30.9288L46.029 29.1282C45.9906 29.0318 45.9039 29.003 45.8364 29.003C45.8137 29.003 45.7968 29.009 45.7763 29.0165L45.7594 29.0223L44.1031 29.7059C43.6891 29.8793 43.198 29.7253 42.9476 29.3497C42.2254 28.2616 41.3009 27.3468 40.2127 26.6148C39.8372 26.3645 39.6927 25.8831 39.8661 25.4592L40.5498 23.803C40.5787 23.7452 40.5691 23.6874 40.5498 23.6489C40.5402 23.6199 40.5113 23.5718 40.4439 23.543L38.6431 22.8014C38.6234 22.7948 38.6082 22.7883 38.5914 22.7849C38.5835 22.7832 38.5753 22.7822 38.5661 22.7822C38.4986 22.7822 38.4121 22.811 38.3735 22.9075Z" fill="#FFCD20"/>
<path d="M0 68.6144H39.2951C55.7664 68.6144 69.095 55.2162 69.0091 38.7451L68.8072 0.00507814" stroke="#FFCA13" stroke-width="2"/>
</svg>
