<svg width="70" height="70" viewBox="0 0 70 70" fill="none" xmlns="http://www.w3.org/2000/svg">
<path fill-rule="evenodd" clip-rule="evenodd" d="M53.7548 30.5961L48.0187 21.7378C47.5741 21.0513 46.8202 20.6414 46.0023 20.6414H20.6938C19.8772 20.6414 19.124 21.0504 18.6793 21.7352L12.9253 30.5944C12.3373 31.4995 12.4281 32.6945 13.1462 33.5005L31.5443 54.1558C31.9998 54.667 32.6534 54.9603 33.338 54.9603C34.0226 54.9603 34.6766 54.6672 35.1319 54.156L53.5321 33.4996C54.2492 32.6945 54.3407 31.5005 53.7548 30.5961ZM44.8402 22.701L40.0162 30.1608L35.1892 22.701H44.8402ZM28.5525 31.0267H38.1235L33.338 23.631L28.5525 31.0267ZM31.4868 22.701L26.6731 30.1402L21.861 22.701H31.4868ZM24.7938 31.0267L19.957 23.549L15.1002 31.0267H24.7938ZM15.5351 33.0863H25.8992L31.3793 50.8741L15.5351 33.0863ZM28.0543 33.0863L33.338 50.2364L38.6217 33.0863H28.0543ZM35.2966 50.8748L40.7769 33.0865H51.142L35.2966 50.8748ZM46.7413 23.5544L41.9088 31.027H51.58L46.7413 23.5544Z" fill="#FFCD20"/>
<path d="M0 0.99048H39.2951C55.7664 0.99048 69.095 14.3887 69.0091 30.8598L68.8072 69.5998" stroke="#FFCA13" stroke-width="2"/>
</svg>
