<svg width="70" height="70" viewBox="0 0 70 70" fill="none" xmlns="http://www.w3.org/2000/svg">
<path fill-rule="evenodd" clip-rule="evenodd" d="M22.6446 16.1427H48.7046C49.6844 16.1427 50.4786 16.9368 50.4786 17.9167V52.2079C50.4786 53.1878 49.6844 53.9819 48.7046 53.9819H32.4282V57.8316C32.4282 58.0908 32.3147 58.3372 32.1176 58.5058C31.7454 58.824 31.1855 58.7805 30.8671 58.4081L28.9157 56.1374L26.9643 58.4081C26.7958 58.6052 26.5494 58.7186 26.2901 58.7186C25.8002 58.7186 25.4032 58.3213 25.4032 57.8316V53.9819H22.6446C21.6648 53.9819 20.8706 53.1878 20.8706 52.2079V17.9167C20.8706 16.9368 21.6648 16.1427 22.6446 16.1427ZM28.3393 54.0704C28.7115 53.7522 29.2714 53.7959 29.5898 54.1681L30.6542 55.4101V52.0394C29.5336 52.4616 28.2978 52.4616 27.1772 52.0394V55.4101L28.2416 54.1681C28.2717 54.133 28.3042 54.1004 28.3393 54.0704ZM32.1355 47.3208C32.1356 49.1049 30.6997 50.5566 28.9157 50.5761H28.8802C27.0823 50.5761 25.6249 49.1185 25.6249 47.3208C25.6249 45.5229 27.0823 44.0655 28.8802 44.0655C30.678 44.0655 32.1355 45.5229 32.1355 47.3208ZM32.4282 52.199H48.6602L48.7045 17.9167H22.6446V52.199H25.4032V50.913C25.3841 50.8946 25.3653 50.8758 25.3466 50.8569L25.3162 50.8259C23.3764 48.8382 23.4153 45.654 25.4032 43.7141C27.391 41.7743 30.5752 41.8132 32.5151 43.8009C34.455 45.7889 34.416 48.9731 32.4282 50.913V52.199Z" fill="#FFCA13"/>
<path d="M43.3826 23.1588H27.9666C27.4768 23.1588 27.0796 23.5559 27.0796 24.0458C27.0796 24.5356 27.4768 24.9328 27.9666 24.9328H43.3826C43.8725 24.9328 44.2696 24.5356 44.2696 24.0458C44.2696 23.5559 43.8726 23.1588 43.3826 23.1588Z" fill="#FFCA13"/>
<path d="M43.3826 28.2591H27.9666C27.4768 28.2591 27.0796 28.6563 27.0796 29.1461C27.0796 29.636 27.4768 30.0331 27.9666 30.0331H43.3826C43.8725 30.0331 44.2696 29.636 44.2696 29.1461C44.2696 28.6563 43.8726 28.2591 43.3826 28.2591Z" fill="#FFCA13"/>
<path d="M43.3826 33.3593H27.9666C27.4768 33.3593 27.0796 33.7565 27.0796 34.2463C27.0796 34.7361 27.4768 35.1333 27.9666 35.1333H43.3826C43.8725 35.1333 44.2696 34.7361 44.2696 34.2463C44.2696 33.7565 43.8726 33.3593 43.3826 33.3593Z" fill="#FFCA13"/>
<path d="M43.3826 38.4594H27.9666C27.4768 38.4594 27.0796 38.8566 27.0796 39.3464C27.0796 39.8363 27.4768 40.2334 27.9666 40.2334H43.3826C43.8725 40.2334 44.2696 39.8363 44.2696 39.3464C44.2696 38.8566 43.8726 38.4594 43.3826 38.4594Z" fill="#FFCA13"/>
<path d="M43.3826 43.5598H36.3399C35.85 43.5598 35.4529 43.957 35.4529 44.4468C35.4529 44.9367 35.85 45.3338 36.3399 45.3338H43.3826C43.8725 45.3338 44.2696 44.9367 44.2696 44.4468C44.2696 43.957 43.8726 43.5598 43.3826 43.5598Z" fill="#FFCA13"/>
<path d="M70 0.99048H30.7049C14.2335 0.99048 0.905015 14.3887 0.990876 30.8598L1.19282 69.5998" stroke="#FFCA13" stroke-width="2"/>
</svg>
