<svg width="70" height="70" viewBox="0 0 70 70" fill="none" xmlns="http://www.w3.org/2000/svg">
<path fill-rule="evenodd" clip-rule="evenodd" d="M49.3133 29.0216C49.3134 30.2237 49.8332 31.3551 50.777 32.2073C52.6264 33.8756 52.6673 35.1287 52.3763 35.8863C52.1004 36.6042 51.3067 37.46 49.0927 37.46C49.0488 37.46 49.0045 37.4598 48.9598 37.4591C48.9129 37.4583 48.8656 37.4571 48.8179 37.4557C48.7491 37.4535 48.6795 37.4506 48.6094 37.447L48.5393 37.4441L48.4782 37.4424C48.4532 37.4416 48.4281 37.4414 48.4032 37.4412L48.3618 37.4409C47.4417 37.4409 46.5832 37.7064 45.8746 38.2L51.9936 52.133C52.127 52.4369 52.0914 52.7885 51.8999 53.0596C51.7082 53.3304 51.3871 53.4813 51.0577 53.4567L45.7385 53.0627L43 57.1707C42.8236 57.4353 42.5275 57.592 42.2131 57.592C42.1863 57.592 42.1593 57.5908 42.1323 57.5886C41.7885 57.5593 41.4881 57.3448 41.3482 57.0295L35.6423 44.1658L30.471 56.9995C30.3397 57.325 30.0392 57.5513 29.6902 57.5871C29.6577 57.5903 29.6253 57.592 29.5933 57.592C29.2791 57.592 28.9828 57.4355 28.8063 57.1705L26.0699 53.0627L20.748 53.4569C20.4202 53.4808 20.1013 53.3326 19.9092 53.0644C19.7172 52.7965 19.6785 52.4478 19.8073 52.1441L25.6635 38.3414C24.8591 37.7101 23.833 37.3909 22.7385 37.4472C22.5742 37.4557 22.4118 37.46 22.2561 37.46C20.042 37.46 19.2482 36.6042 18.9723 35.8865C18.6811 35.1289 18.7223 33.8758 20.5721 32.207C21.5155 31.3551 22.0353 30.2237 22.0355 29.0216C22.0357 27.8188 21.5157 26.6864 20.5714 25.833C18.7226 24.1666 18.6813 22.9138 18.9722 22.1564C19.2481 21.4382 20.0423 20.5824 22.259 20.5824C22.4136 20.5824 22.5751 20.5866 22.7389 20.595C22.8201 20.5991 22.9032 20.6013 22.985 20.6013C24.1997 20.6013 25.3069 20.1402 26.1032 19.303C26.905 18.4603 27.3124 17.3179 27.2506 16.0861C27.1727 14.5735 27.4506 13.4718 28.0766 12.8126C28.4661 12.4028 28.9695 12.1859 29.5323 12.1859C30.4561 12.1859 31.4499 12.7679 32.4864 13.9163C33.3394 14.8611 34.4717 15.3815 35.6745 15.3815C36.8774 15.3815 38.0095 14.8611 38.8628 13.9161C39.8989 12.7679 40.8928 12.1859 41.817 12.1859C42.3802 12.1859 42.8837 12.4028 43.2732 12.8131C43.8992 13.4726 44.1767 14.5743 44.0981 16.0878C44.0365 17.3174 44.4438 18.4598 45.2453 19.3025C46.0953 20.1963 47.3037 20.6613 48.6108 20.595C48.7736 20.5866 48.9351 20.5822 49.0897 20.5822C51.3067 20.5822 52.1009 21.4382 52.3767 22.1564C52.6677 22.9136 52.6262 24.1664 50.7764 25.8337C49.8329 26.6864 49.313 27.8186 49.3133 29.0216ZM27.3381 51.5543L29.3863 54.629L34.0798 42.9817C33.4892 43.229 32.9468 43.6142 32.4861 44.1245C31.4506 45.2724 30.457 45.8549 29.5327 45.8549C28.9695 45.8549 28.4661 45.6383 28.0766 45.2284C27.4506 44.5692 27.1727 43.4677 27.2507 41.9547C27.2832 41.3061 27.1841 40.6827 26.9667 40.114L22.1545 51.4556L26.481 51.1352C26.8198 51.1101 27.1489 51.2702 27.3381 51.5543ZM49.6291 51.4539L45.3275 51.1352C44.9878 51.1103 44.6597 51.2702 44.4706 51.554L42.38 54.6899L37.1682 42.9401C37.798 43.185 38.3757 43.5852 38.8623 44.1242C39.8984 45.2726 40.8924 45.8552 41.8167 45.8549C42.3799 45.8549 42.8835 45.638 43.2733 45.2274C43.8992 44.568 44.1768 43.4667 44.0982 41.9559C44.0597 41.1869 44.2041 40.453 44.5131 39.8047L49.6291 51.4539ZM49.0925 35.568C50.2262 35.568 50.5827 35.2791 50.6102 35.2075C50.6443 35.1188 50.5558 34.5558 49.5095 33.6118C48.1632 32.3959 47.4218 30.7658 47.4215 29.0218C47.4211 27.2769 48.1625 25.6458 49.5088 24.4293C50.5558 23.4855 50.6448 22.9235 50.6108 22.8347C50.5833 22.7631 50.2262 22.4742 49.0898 22.4742C48.9676 22.4742 48.839 22.4776 48.7074 22.4843C48.5925 22.4901 48.4772 22.493 48.3639 22.493C46.6261 22.493 45.0318 21.823 43.8746 20.6064C42.7124 19.3842 42.1207 17.7455 42.2087 15.9913C42.2652 14.9048 42.0783 14.3022 41.9014 14.1158C41.8689 14.0815 41.8555 14.0778 41.817 14.0778C41.7604 14.0778 41.2371 14.1088 40.267 15.1837C39.0503 16.5311 37.4194 17.2732 35.6744 17.2732C33.9294 17.2732 32.2983 16.5311 31.0818 15.1837C30.1116 14.1085 29.5887 14.0776 29.5323 14.0776C29.4939 14.0776 29.4807 14.0815 29.4483 14.1153C29.2711 14.302 29.0842 14.9046 29.14 15.9899C29.2281 17.7455 28.6364 19.3847 27.4741 20.6066C26.3172 21.823 24.7229 22.4928 22.9854 22.4928C22.8714 22.4928 22.7561 22.4899 22.6424 22.4841C22.5687 22.4802 22.4961 22.4776 22.4253 22.4759C22.3687 22.4747 22.3132 22.4739 22.259 22.4739C21.1227 22.4739 20.7657 22.7631 20.7383 22.8347C20.7042 22.9235 20.7931 23.4855 21.8391 24.4283C23.1864 25.6461 23.9278 27.2769 23.9274 29.0218C23.9271 30.7658 23.1858 32.3959 21.8398 33.6115C20.7928 34.5558 20.7041 35.1188 20.7383 35.2075C20.7657 35.2791 21.1222 35.568 22.2561 35.568C22.379 35.568 22.5086 35.5644 22.641 35.5577C24.5166 35.4626 26.2408 36.139 27.4737 37.4351C28.6363 38.6575 29.2281 40.2968 29.14 42.0507C29.0842 43.1362 29.2711 43.7388 29.4482 43.9252C29.4808 43.9593 29.494 43.9629 29.5324 43.9629C29.5888 43.9629 30.1119 43.932 31.0816 42.8569C32.2984 41.5092 33.9294 40.7671 35.6744 40.7671C37.4194 40.7671 39.0504 41.5092 40.267 42.8566C41.2369 43.932 41.7602 43.9629 41.8166 43.9629C41.8405 43.9629 41.8547 43.9615 41.8698 43.9523C41.8791 43.9467 41.8887 43.938 41.9011 43.925C42.0782 43.7383 42.2651 43.1359 42.2087 42.0524C42.1205 40.2965 42.7124 38.6573 43.8749 37.4351C45.0319 36.2185 46.6252 35.5487 48.3618 35.5487C48.4759 35.5487 48.5919 35.5516 48.7068 35.5577C48.8403 35.5647 48.9698 35.568 49.0925 35.568Z" fill="#FFCD20"/>
<path fill-rule="evenodd" clip-rule="evenodd" d="M26.6814 29.6184C26.6814 24.63 30.7404 20.5718 35.7296 20.5718C40.7181 20.5718 44.7766 24.63 44.7765 29.6184C44.7765 34.6073 40.718 38.666 35.7296 38.666C30.7404 38.666 26.6814 34.6071 26.6814 29.6184ZM28.5733 29.6184C28.5733 33.5641 31.7836 36.774 35.7295 36.774C39.6748 36.774 42.8846 33.5641 42.8845 29.6184C42.8845 25.6734 39.6748 22.4638 35.7295 22.4638C31.7836 22.4638 28.5733 25.6734 28.5733 29.6184Z" fill="#FFCD20"/>
<path d="M36.0983 24.7894C35.9734 24.7764 34.8422 24.6771 33.6136 25.1948C32.4318 25.6929 30.9591 26.851 30.6549 29.5395C30.5962 30.0586 30.9694 30.5271 31.4884 30.5858C31.5246 30.5899 31.5605 30.5919 31.5961 30.5919C32.0708 30.5919 32.4802 30.2353 32.5348 29.7522C32.9033 26.4974 35.5961 26.6436 35.907 26.6716C36.4251 26.7227 36.8868 26.3463 36.9409 25.8285C36.9952 25.309 36.6179 24.8437 36.0983 24.7894Z" fill="#FFCD20"/>
<path d="M70 68.6144H30.7049C14.2335 68.6144 0.905015 55.2162 0.990876 38.7451L1.19282 0.00507814" stroke="#FFCA13" stroke-width="2"/>
</svg>
